<?xml version="1.0" encoding="UTF-8"?>
<svg id="Layer_1" xmlns="http://www.w3.org/2000/svg" version="1.1" viewBox="0 0 500 500">
  <!-- Generator: Adobe Illustrator 30.0.0, SVG Export Plug-In . SVG Version: 2.1.1 Build 123)  -->
  <defs>
    <style>
      .st0 {
        fill: #263238;
      }

      .st1, .st2, .st3 {
        fill: #fff;
      }

      .st4, .st5 {
        opacity: .25;
      }

      .st6 {
        fill: #0c131e;
      }

      .st7, .st8 {
        opacity: .15;
      }

      .st9 {
        fill: #ffa8a7;
      }

      .st10 {
        fill: #f28f8f;
      }

      .st2 {
        opacity: .4;
      }

      .st2, .st5, .st11, .st8, .st12, .st13, .st14, .st3 {
        isolation: isolate;
      }

      .st15 {
        fill: #e0e0e0;
      }

      .st11 {
        opacity: .1;
      }

      .st16 {
        fill: #d7a829;
      }

      .st17 {
        fill: #142033;
      }

      .st12 {
        opacity: .3;
      }

      .st13 {
        opacity: .5;
      }

      .st18 {
        fill: #455a64;
      }

      .st19 {
        fill: #f5f5f5;
      }

      .st14 {
        opacity: .6;
      }

      .st20 {
        fill: #fafafa;
      }

      .st3 {
        opacity: .8;
      }
    </style>
  </defs>
  <g id="freepik--Floor--inject-38">
    <ellipse id="freepik--floor--inject-38" class="st19" cx="246.71" cy="351.5" rx="235.55" ry="136"/>
  </g>
  <g id="freepik--Shadow--inject-38">
    <path id="freepik--shadow--inject-38" class="st15" d="M136.24,458.93l-88.12-50.87c-2.75-1.59-2.75-4.16,0-5.75l154.54-89.23c3.14-1.6,6.86-1.6,10,0l88.08,50.92c2.75,1.59,2.75,4.16,0,5.75l-154.54,89.18c-3.13,1.59-6.83,1.59-9.96,0Z"/>
  </g>
  <g id="freepik--Plants--inject-38">
    <g id="freepik--plants--inject-38">
      <path class="st16" d="M134.82,398.63s-.69-23-10.53-41.56-24.48-30.92-38.89-33.28-27.24,10-12.48,20.48,41.56,22.11,51.39,57.45l10.51-3.09Z"/>
      <g class="st7">
        <path d="M134.82,398.63s-.69-23-10.53-41.56-24.48-30.92-38.89-33.28-27.24,10-12.48,20.48,41.56,22.11,51.39,57.45l10.51-3.09Z"/>
      </g>
      <path class="st1" d="M131.06,392.37h.16c.41-.13.64-.56.52-.97,0,0,0-.02,0-.03-12.17-39-40-57.16-53-61.32-.4-.17-.85.02-1.02.41s.02.85.41,1.02c.05.02.09.03.14.05,12.75,4.08,40,21.93,52,60.31.12.33.45.55.8.53Z"/>
      <path class="st16" d="M60,379.37c1,2.91,3.89,4.65,6.61,6.06s5.69,2.92,7,5.7c2.58,5.62-3.19,12.64-.36,18.15,1.18,2.3,3.66,3.69,6.16,4.39,2.1.5,4.21.89,6.35,1.17,1.02.08,2.05.1,3.07.05,3-.15,6.18,0,8.73,1.77,4,2.78,4.81,8.25,7,12.62,2.76,5.23,7.67,8.99,13.44,10.29,4.74,1.09,12,.69,13.49-1.32,1.09-1.53-1.27-6.66-1.15-8.54.3-4.81.14-9.65-.47-14.43-.37-2.17-.48-4.38-.31-6.57.25-2.45.48-4.91.69-7.36.24-2.66,1.06-4.69.35-7.45-.79-2.62-1.97-5.1-3.5-7.37-1.4-2.28-2.82-4.55-4.27-6.81-1.6-2.73-3.53-5.26-5.76-7.51-4.08-3.78-9.53-5.71-15.07-5.35-4.54.33-9.14,2.43-13.73,1.79s-8.73-2.24-13.34-2.35c-4.81-.12-9.88,1.45-13,5.3-1.8,2.16-2.82,5.13-1.93,7.77Z"/>
      <path class="st1" d="M128.62,426h0c.38-.07.63-.42.57-.8-7.21-42.8-50.63-53-61-53.19-.38,0-.69.31-.69.69s.31.69.69.69c10.14.22,52.62,10.17,59.67,52,.04.37.37.65.74.61,0,0,.01,0,.02,0Z"/>
      <path class="st1" d="M81.73,400.21c.14-.01.27-.06.38-.15.12-.11,12.38-10.11,30.73-5.62.37.09.75-.14.84-.51.09-.37-.14-.75-.51-.84-19.06-4.65-31.82,5.8-31.95,5.91-.3.24-.35.67-.12.97,0,.01.02.02.03.03.16.16.38.24.6.21Z"/>
    </g>
  </g>
  <g id="freepik--Device--inject-38">
    <g id="freepik--device--inject-38">
      <path class="st16" d="M290.24,28.21l-144.65,83.51c-2.88,1.89-4.69,5.04-4.88,8.48v325.47c0,3.12,2.19,4.39,4.88,2.82l144.65-83.49c2.88-1.89,4.69-5.04,4.88-8.48V31c0-3.09-2.19-4.36-4.88-2.79ZM288.08,333.21c0,2.67-1.87,4.37-4.19,5.7l-132.44,76.5c-2.31,1.33-4.19.25-4.19-2.43V143.36c.16-2.95,1.72-5.65,4.19-7.27l132.44-76.46c2.32-1.34,4.19-.25,4.19,2.42v271.16Z"/>
      <path class="st13" d="M290.24,28.21l-144.65,83.51c-2.88,1.89-4.69,5.04-4.88,8.48v325.47c0,3.12,2.19,4.39,4.88,2.82l144.65-83.49c2.88-1.89,4.69-5.04,4.88-8.48V31c0-3.09-2.19-4.36-4.88-2.79ZM288.08,333.21c0,2.67-1.87,4.37-4.19,5.7l-132.44,76.5c-2.31,1.33-4.19.25-4.19-2.43V143.36c.16-2.95,1.72-5.65,4.19-7.27l132.44-76.46c2.32-1.34,4.19-.25,4.19,2.42v271.16Z"/>
      <path class="st16" d="M145,448.8c-2.96,1.25-6.31,1.14-9.18-.3l-5.59-3.24c-2.9-1.87-4.73-5.02-4.91-8.47V111.33c.03-1.26.32-2.5.85-3.65.17-.4.36-.8.58-1.18h0l15.4,8.89h0c-.33.57-.61,1.17-.85,1.79-.37.96-.57,1.97-.59,3v325.49c0,2.87,1.86,4.18,4.29,3.13Z"/>
      <path class="st14" d="M145,448.8c-2.96,1.25-6.31,1.14-9.18-.3l-5.59-3.24c-2.9-1.87-4.73-5.02-4.91-8.47V111.33c.03-1.26.32-2.5.85-3.65.17-.4.36-.8.58-1.18h0l15.4,8.89h0c-.33.57-.61,1.17-.85,1.79-.37.96-.57,1.97-.59,3v325.49c0,2.87,1.86,4.18,4.29,3.13Z"/>
      <path class="st17" d="M221.12,384.4h0c2.5,0,2.77,2.8,2.77,4-.31,4.9-2.9,9.37-7,12.08-.81.51-1.74.8-2.7.85-2.5,0-2.77-2.81-2.77-4,.31-4.9,2.9-9.37,7-12.08.81-.51,1.74-.8,2.7-.85M221.12,382.9c-1.22.04-2.41.41-3.45,1.05-4.54,2.99-7.39,7.95-7.67,13.38,0,3.49,1.74,5.51,4.27,5.51,1.22-.05,2.41-.41,3.45-1.06,4.57-2.96,7.44-7.93,7.72-13.37,0-3.49-1.74-5.51-4.27-5.51h-.05Z"/>
      <path class="st17" d="M217.81,75c1.81-1,3.28-.2,3.28,1.89-.13,2.31-1.34,4.42-3.28,5.68-1.81,1-3.28.2-3.28-1.9.13-2.31,1.34-4.41,3.28-5.67Z"/>
      <path class="st17" d="M200.58,95.41l34.66-20.03c1.48-.85,2.68-.24,2.68,1.35-.14,1.82-1.13,3.48-2.68,4.45l-34.66,20.03c-1.49.85-2.68.24-2.68-1.36.14-1.82,1.13-3.47,2.68-4.44Z"/>
      <path class="st16" d="M288.08,333.23c0,2.67-1.87,4.37-4.19,5.7l-132.44,76.48c-2.31,1.33-4.19.25-4.19-2.43V143.36c.16-2.95,1.72-5.65,4.19-7.27l132.44-76.46c2.32-1.34,4.19-.25,4.19,2.42v271.18Z"/>
      <path class="st3" d="M288.08,333.23c0,2.67-1.87,4.37-4.19,5.7l-132.44,76.48c-2.31,1.33-4.19.25-4.19-2.43V143.36c.16-2.95,1.72-5.65,4.19-7.27l132.44-76.46c2.32-1.34,4.19-.25,4.19,2.42v271.18Z"/>
      <path class="st1" d="M259.21,340.46l-98,56.58c-1.85,1.07-3.35-.37-3.35-3.22v-5.82c0-2.85,1.5-6,3.35-7.09l98-56.58c1.85-1.07,3.35.37,3.35,3.22v5.81c0,2.86-1.5,6.03-3.35,7.1Z"/>
      <path class="st16" d="M267.79,332.92v-10.92c0-1.42.44-2.08,1.93-2.21l10.35-.62c1.07.2,1.37,1.13.67,2.07l-11.69,12.6c-.66.7-1.26.51-1.26-.92Z"/>
      <path class="st16" d="M295.08,30.25c-.35-2.54-2.39-3.46-4.84-2l-144.65,83.47c-1.45.9-2.64,2.16-3.45,3.66l-15.4-8.89c.82-1.49,2.02-2.74,3.47-3.63L274.84,19.33c3.08-1.56,6.71-1.56,9.79,0l5.61,3.22c2.65,1.75,4.41,4.56,4.84,7.7Z"/>
      <path class="st12" d="M295.08,30.25c-.35-2.54-2.39-3.46-4.84-2l-144.65,83.47c-1.45.9-2.64,2.16-3.45,3.66l-15.4-8.89c.82-1.49,2.02-2.74,3.47-3.63L274.84,19.33c3.08-1.56,6.71-1.56,9.79,0l5.61,3.22c2.65,1.75,4.41,4.56,4.84,7.7Z"/>
    </g>
  </g>
  <g id="freepik--speech-bubbles--inject-38">
    <g id="freepik--black-bubble--inject-38">
      <path class="st6" d="M248.69,331.68l-3.53-2c-.76-.5-1.24-1.34-1.29-2.25v-90.85c.05-.91.53-1.75,1.3-2.25l180.2-104c.82-.42,1.78-.42,2.6,0l3.52,2c.77.5,1.25,1.34,1.3,2.25v90.81c-.05.91-.53,1.75-1.3,2.25l-180.19,104c-.81.43-1.78.44-2.61.04Z"/>
      <path class="st17" d="M251.29,237.87l180.19-104c.72-.41,1.3-.08,1.3.75v90.81c-.05.91-.53,1.75-1.3,2.25l-180.19,104c-.72.41-1.3.07-1.3-.75v-90.81c.05-.91.53-1.75,1.3-2.25Z"/>
      <path class="st6" d="M251,331.81c-.75.28-1.59.23-2.3-.14l-3.52-2c-.77-.5-1.25-1.34-1.3-2.25v-90.84c.01-.45.14-.89.38-1.28l6.12,3.53c-.24.39-.37.83-.38,1.28v90.81c0,.71.41,1.08,1,.89Z"/>
      <path class="st15" d="M259.38,276.49l10-5.78c1.2-.69,2.17-.2,2.17,1.09-.11,1.48-.91,2.82-2.17,3.6l-10,5.78c-1.19.69-2.16.2-2.16-1.1.11-1.47.91-2.8,2.16-3.59Z"/>
      <path class="st15" d="M276.82,266.41l25.48-14.71c1.19-.69,2.16-.2,2.16,1.1-.11,1.47-.91,2.8-2.16,3.59l-25.49,14.72c-1.19.69-2.16.2-2.16-1.1.11-1.48.91-2.82,2.17-3.6Z"/>
      <path class="st15" d="M308.66,248l27.47-15.84c1.2-.69,2.17-.2,2.17,1.09-.11,1.48-.91,2.82-2.17,3.6l-27.47,15.84c-1.2.69-2.17.2-2.17-1.09.11-1.48.91-2.82,2.17-3.6Z"/>
      <path class="st15" d="M259.37,248.35l25.49-14.71c1.19-.69,2.16-.2,2.16,1.09-.11,1.48-.91,2.81-2.16,3.6l-25.49,14.67c-1.19.69-2.16.2-2.16-1.1.12-1.46.92-2.77,2.16-3.55Z"/>
      <path class="st15" d="M291.22,230l23.56-13.6c1.2-.69,2.16-.2,2.16,1.1-.1,1.47-.91,2.81-2.16,3.59l-23.57,13.61c-1.19.69-2.16.2-2.16-1.1.11-1.48.91-2.82,2.17-3.6Z"/>
      <path class="st15" d="M321.28,212.59l15.54-9c1.19-.69,2.16-.2,2.16,1.1-.11,1.47-.91,2.8-2.16,3.59l-15.54,9c-1.2.69-2.17.2-2.17-1.1.11-1.47.92-2.81,2.17-3.59Z"/>
      <path class="st15" d="M259.37,290.54l25.49-14.71c1.19-.69,2.16-.2,2.16,1.1-.11,1.47-.91,2.8-2.16,3.59l-25.49,14.72c-1.19.69-2.16.2-2.16-1.1.11-1.48.91-2.81,2.16-3.6Z"/>
      <path class="st15" d="M291.22,272.16l23.56-13.6c1.2-.7,2.16-.2,2.16,1.09-.1,1.48-.91,2.81-2.16,3.6l-23.57,13.6c-1.19.69-2.16.2-2.16-1.09.11-1.48.91-2.82,2.17-3.6Z"/>
      <path class="st15" d="M321.28,254.78l15.54-8.95c1.19-.69,2.16-.2,2.16,1.09-.11,1.48-.91,2.81-2.16,3.6l-15.54,9c-1.2.69-2.17.2-2.17-1.1.09-1.49.9-2.85,2.17-3.64Z"/>
      <path class="st15" d="M259.37,262.42l48.05-27.73c1.2-.69,2.17-.2,2.17,1.1-.11,1.47-.92,2.81-2.17,3.59l-48.05,27.74c-1.19.69-2.16.2-2.16-1.1.11-1.48.91-2.81,2.16-3.6Z"/>
      <path class="st15" d="M314.39,230.65l21.71-12.5c1.2-.69,2.17-.2,2.17,1.09-.11,1.48-.91,2.82-2.17,3.6l-21.71,12.5c-1.2.7-2.17.2-2.17-1.09.11-1.48.91-2.82,2.17-3.6Z"/>
      <path class="st18" d="M428.72,229.23l1.45,12c.1.82-.49,1.57-1.31,1.67-.32.04-.65-.03-.93-.19l-11.48-6.58,12.27-6.9Z"/>
      <path id="freepik--Check--inject-38" class="st16" d="M269.39,299.24c-.76-.34-1.65.01-1.99.78,0,0,0,.02-.01.02l-5.66,13.47-1.35-1.31c-.64-.53-1.58-.44-2.11.19-.47.57-.46,1.4.03,1.96l2.92,2.84c.27.26.63.41,1,.42.1,0,.2,0,.3,0,.48-.1.89-.43,1.08-.88l6.51-15.5c.35-.75.03-1.64-.72-1.99Z"/>
      <path id="freepik--check--inject-38" class="st16" d="M282.07,291.87c-.76-.34-1.64,0-1.98.76,0,.01-.01.03-.02.04l-5.66,13.47-1.35-1.31c-.56-.61-1.51-.66-2.12-.1-.61.56-.66,1.51-.1,2.12.05.05.1.1.16.15l2.92,2.84c.36.34.86.49,1.35.39.48-.1.89-.43,1.08-.89l6.51-15.49c.33-.76-.02-1.64-.78-1.97,0,0,0,0-.01,0Z"/>
      <path class="st16" d="M387.1,163.25c-20.14,11.64-36.47,39.91-36.47,63.17s16.37,32.69,36.47,21.06,36.49-39.92,36.47-63.17-16.35-32.69-36.47-21.06Z"/>
      <path class="st2" d="M387.1,163.25c-20.14,11.64-36.47,39.91-36.47,63.17s16.37,32.69,36.47,21.06,36.49-39.92,36.47-63.17-16.35-32.69-36.47-21.06Z"/>
      <g id="freepik--character-bubble--inject-38">
        <path class="st9" d="M313,215.21c4.33,7.54,9.04,14.85,14.12,21.91,1.25,1.68,4.77,6.31,6.61,6.77,2.35.58,4.34-1.27,5.58-2.13,4.24-2.95,26.18-24.76,26.18-24.76,6.83-9.52,5.11-15.59,4.18-15.59s-7.93-1.84-13.92,4c-4.54,4.43-20.05,20.46-20.05,20.46-3.66-4.3-6.06-6.43-9.71-10.74-1.78-2.1-4.48-4.36-4.61-7.24.02-1.32.14-2.64.36-3.94.21-3.01.02-6.04-.58-9-.01-.13-.05-.27-.1-.39-.1-.17-.25-.3-.43-.36-.69-.2-1.44.1-1.8.72-.34.61-.53,1.3-.54,2-.02.69-.17,1.37-.45,2-.06.13-.15.24-.26.33-.13.08-.27.12-.42.12-.84,0-1.28-.91-1.59-1.57-.72-1.54-1.3-3.15-1.74-4.79-.3-1.13-.82-2.22-1.21-3.34-.15-.67-.5-1.27-1-1.74-.91-.66-2.19-.29-3.19.21-.56.27-1.09.61-1.58,1-1.43,1.32-2.38,3.08-2.69,5-.4,2.23-.25,4.52.44,6.68.86,3.03,2.29,5.87,4.2,8.37,1.4,2,2.94,3.91,4.2,6.02Z"/>
        <path class="st16" d="M371.62,201.38s-6.83-2.69-13,1.29-22.92,23.21-22.92,23.21l-4.21-4.68s-2.23,8.27-9.21,9c0,0,5.48,8.94,8.54,12.24s5.5,2.69,9,0,20.56-18.44,20.56-18.44c7.75-4.78,12.11-13.55,11.24-22.62Z"/>
        <path class="st5" d="M371.62,201.38s-6.83-2.69-13,1.29-22.92,23.21-22.92,23.21l-4.21-4.68s-2.23,8.27-9.21,9c0,0,5.48,8.94,8.54,12.24s5.5,2.69,9,0,20.56-18.44,20.56-18.44c7.75-4.78,12.11-13.55,11.24-22.62Z"/>
        <path class="st19" d="M406.24,221.93l-.3,8.63c-.75,1-1.53,1.91-2.32,2.83-4.68,5.59-10.26,10.35-16.52,14.09-11.51,6.65-21.77,6.41-28.45.65-.09-10.5-.07-23.49.49-29.35,1-10.68,4.59-16.11,10-17.29,2.58-.57,21.92,1.19,21.92,1.19l10.71,2.68c.23.11.45.23.67.37,1.64,1,2.45,2.87,3.3,5.56.61,1.95.5,7.01.5,10.64Z"/>
        <path class="st17" d="M389.89,171c-.52,7.22-6.79,12.65-14.01,12.13s-12.65-6.79-12.13-14.01c.52-7.22,6.79-12.65,14.01-12.13.02,0,.05,0,.07,0,7.19.55,12.58,6.81,12.06,14Z"/>
        <path class="st17" d="M398.7,181s-2.88,9.79-3.86,11.36c-.64.96-1.63,1.64-2.76,1.89l.69-7,5.93-6.25Z"/>
        <path class="st17" d="M397.06,166.55c.23-.62.71-1.12,1.32-1.37.41-.12.84-.15,1.26-.07,2.65.35,4.19,2.73,4.34,5.28.03,1.87-.34,3.73-1.07,5.45-.44,1.36-1.14,2.61-2.06,3.7-.89.99-2.16,1.56-3.49,1.57-.89-.08-1.79-.05-2.68.08.3-1.83.61-3.65.92-5.47l.75-4.48c.11-.66.25-1.32.33-2,.01-.89.14-1.78.36-2.64l.02-.05Z"/>
        <path class="st9" d="M393.48,181.1c.76.54,2-.91,3.09-1.87s4.39-2.12,5.74,1.39-2,7.89-4.63,8.5c-4.47,1-4.91-1.82-4.91-1.82l-1.54,16.2h0c-6,6.54-21.13,6.3-14.3-.49l.5-6.28c-1.97.16-3.95.11-5.91-.15-3.18-.74-5-3.43-5.71-7-1.14-5.71-1.39-10.26.78-21.14,2.38-11.93,16.39-11,23.59-5.64s3.3,18.3,3.3,18.3Z"/>
        <path class="st17" d="M398.38,171.11c.32-1.15-.25-2.33,0-3.5s1-1.65,1.42-2.6c.77-1.82-.24-3.26-1.66-4.42-5.59-4.55-13.49-4.93-19.78-8.43-.91-.57-1.86-1.06-2.86-1.46-1.01-.39-2.15-.34-3.12.14-.83.54-1.4,1.4-1.59,2.37-.13.97-.17,1.94-.13,2.92-.92,0-1.74-.63-2.68-.72-1.01-.11-2.03.06-2.94.5-.61.26-1.12.72-1.43,1.31-.19.47-.26.98-.23,1.48.1,3.29,1.79,6.32,4.52,8.15.94.6,1.95,1.09,3,1.46,1.76.71,3.65,1.08,5.55,1.08,1.92,0,3.77-.72,5.19-2,.85,1.77,2.26,3.22,4,4.12,1.79.88,3.9.85,5.66-.09.11,2.66.43,5.3.59,8-.05.86.23,1.71.79,2.37,1.55,1.44,2.89-1.77,3.83-2.5.55-.43.6-1.51.67-2.13s.13-1.29.15-1.93c-.07-.41-.11-.83-.1-1.25.3-1.06.89-1.92,1.15-2.87Z"/>
        <path class="st17" d="M399.73,166.17l5-2.23c-.53-1.38-2.07-2.06-3.45-1.54-.04.01-.07.03-.11.05-1.39.66-2.02,2.29-1.44,3.72Z"/>
        <path class="st10" d="M377.43,196.73s7.28-.9,9.89-2c1.53-.65,2.83-1.76,3.72-3.16-.49,1.44-1.27,2.76-2.28,3.89-2,2.21-11.48,3.22-11.48,3.22l.15-1.95Z"/>
        <path class="st17" d="M379.2,178.2c-.03.79.6,1.46,1.39,1.49.79.03,1.46-.6,1.49-1.39.02-.77-.56-1.42-1.33-1.48-.81-.05-1.5.58-1.55,1.39,0,0,0,0,0,0Z"/>
        <path class="st17" d="M381.14,172.89l2.94,1.93c.53-.84.29-1.95-.53-2.5-.79-.52-1.85-.29-2.37.5-.02.02-.03.05-.04.07Z"/>
        <path class="st10" d="M379.29,187.6l-4.1,1.19c.28,1.13,1.42,1.82,2.55,1.54.02,0,.04,0,.06-.01,1.15-.36,1.8-1.56,1.49-2.72Z"/>
        <path class="st17" d="M367.13,173l3-1.94c-.47-.81-1.51-1.09-2.32-.61-.03.02-.06.03-.09.05-.83.54-1.09,1.64-.59,2.5Z"/>
        <path class="st17" d="M367.7,176.91c-.03.79.6,1.46,1.39,1.49.79.03,1.46-.6,1.49-1.39.02-.77-.56-1.42-1.33-1.48-.81-.05-1.5.58-1.55,1.39,0,0,0,0,0,0Z"/>
        <polygon class="st10" points="374.49 176.1 373.35 184.71 368.96 182.82 374.49 176.1"/>
        <path class="st16" d="M416,214.31c-2.78,5.76-6.16,11.21-10.1,16.25-.75,1-1.53,1.91-2.32,2.83-5.07-9-6.3-24-3.56-28.46l2.83.43c5.56.71,10.45,4.04,13.15,8.95Z"/>
        <g class="st4">
          <path d="M416,214.31c-2.78,5.76-6.16,11.21-10.1,16.25-.75,1-1.53,1.91-2.32,2.83-5.07-9-6.3-24-3.56-28.46l2.83.43c5.56.71,10.45,4.04,13.15,8.95Z"/>
        </g>
      </g>
    </g>
    <g id="freepik--color-bubble--inject-38">
      <path class="st16" d="M163.39,249.58l-3.53-2c-.77-.5-1.25-1.34-1.3-2.25v-90.84c.05-.91.53-1.75,1.3-2.25l180.19-104c.82-.41,1.78-.41,2.6,0l3.53,2c.77.5,1.25,1.34,1.3,2.25v90.81c-.05.91-.53,1.75-1.3,2.25l-180.18,104.03c-.82.42-1.79.42-2.61,0Z"/>
      <path class="st2" d="M347.43,52.1c-.17-.54-.67-.71-1.25-.36l-180.18,104.03c-.38.25-.7.6-.92,1l-6.13-3.53c.22-.41.53-.75.92-1l180.2-104c.82-.41,1.78-.41,2.6,0l3.52,2c.65.43,1.1,1.1,1.24,1.86Z"/>
      <path class="st16" d="M166,155.78l180.19-104c.72-.41,1.3-.08,1.3.75v90.77c-.05.91-.53,1.75-1.3,2.25l-180.19,104.03c-.72.42-1.3.08-1.3-.75v-90.83c.06-.9.54-1.73,1.3-2.22Z"/>
      <path class="st8" d="M165.68,249.72c-.75.28-1.58.23-2.29-.14l-3.52-2c-.77-.5-1.25-1.34-1.3-2.25v-90.84c.01-.45.14-.89.37-1.28l6.13,3.53c-.24.39-.37.83-.39,1.28v90.81c0,.71.43,1.06,1,.89Z"/>
      <path class="st16" d="M168.75,248v9.26c0,.83.67,1.5,1.49,1.51.5,0,.97-.24,1.25-.66l13.51-19.5-16.25,9.39Z"/>
      <path class="st20" d="M256.23,145.89l10-5.78c1.19-.69,2.16-.2,2.16,1.1-.11,1.47-.91,2.8-2.16,3.59l-10,5.78c-1.2.69-2.17.2-2.17-1.09.11-1.48.91-2.82,2.17-3.6Z"/>
      <path class="st20" d="M273.66,135.82l25.48-14.71c1.2-.69,2.17-.2,2.17,1.09-.11,1.48-.91,2.82-2.17,3.6l-25.48,14.71c-1.2.69-2.17.2-2.17-1.1.11-1.47.92-2.81,2.17-3.59Z"/>
      <path class="st20" d="M305.5,117.43l28.76-16.59c1.19-.69,2.16-.2,2.16,1.1-.11,1.47-.91,2.8-2.16,3.59l-28.76,16.59c-1.19.69-2.16.2-2.16-1.09.11-1.48.91-2.81,2.16-3.6Z"/>
      <path class="st20" d="M256.22,117.75l25.48-14.75c1.2-.69,2.16-.2,2.16,1.1-.1,1.47-.91,2.81-2.16,3.59l-25.48,14.71c-1.2.69-2.17.2-2.17-1.09.12-1.46.92-2.78,2.17-3.56Z"/>
      <path class="st20" d="M288.06,99.37l23.56-13.61c1.2-.69,2.17-.2,2.17,1.1-.11,1.47-.92,2.81-2.17,3.59l-23.56,13.61c-1.2.69-2.17.2-2.17-1.1.11-1.47.92-2.8,2.17-3.59Z"/>
      <path class="st20" d="M318.12,82l16.82-9.71c1.2-.69,2.17-.2,2.17,1.1-.1,1.48-.91,2.82-2.17,3.61l-16.82,9.71c-1.19.69-2.16.2-2.16-1.09.1-1.48.9-2.83,2.16-3.62Z"/>
      <path class="st20" d="M256.22,160l25.48-14.71c1.2-.69,2.16-.2,2.16,1.09-.1,1.48-.91,2.81-2.16,3.6l-25.48,14.71c-1.2.69-2.17.2-2.17-1.1.11-1.47.92-2.81,2.17-3.59Z"/>
      <path class="st20" d="M288.06,141.56l23.56-13.56c1.2-.69,2.17-.2,2.17,1.09-.11,1.48-.91,2.82-2.17,3.6l-23.56,13.6c-1.2.69-2.17.2-2.17-1.09.1-1.49.9-2.84,2.17-3.64Z"/>
      <path class="st20" d="M318.12,124.19l16.82-9.71c1.2-.69,2.17-.2,2.17,1.09-.11,1.48-.91,2.82-2.17,3.6l-16.82,9.71c-1.19.69-2.16.2-2.16-1.1.11-1.47.91-2.8,2.16-3.59Z"/>
      <path class="st20" d="M256.22,131.83l48-27.74c1.19-.69,2.16-.2,2.16,1.1-.11,1.47-.91,2.8-2.16,3.59l-48,27.74c-1.2.69-2.17.2-2.17-1.1.11-1.47.92-2.81,2.17-3.59Z"/>
      <path class="st20" d="M311.23,100.06l23-13.26c1.2-.69,2.17-.2,2.17,1.09-.11,1.48-.91,2.82-2.17,3.6l-23,13.26c-1.2.69-2.17.2-2.16-1.1.11-1.47.91-2.8,2.16-3.59Z"/>
      <path id="freepik--check--inject-381" data-name="freepik--check--inject-38" class="st17" d="M326.25,135.07c-.76-.34-1.65.01-1.99.78,0,0,0,.02-.01.02l-5.66,13.48-1.31-1.35c-.61-.56-1.56-.51-2.12.1-.53.58-.52,1.48.03,2.05l2.93,2.84c.27.27.62.42,1,.43.1,0,.2,0,.3,0,.49-.1.89-.43,1.08-.89l6.55-15.53c.29-.75-.06-1.6-.8-1.93Z"/>
      <path id="freepik--check--inject-382" data-name="freepik--check--inject-38" class="st17" d="M338.94,127.7c-.76-.34-1.64,0-1.98.76,0,.01-.01.03-.02.04l-5.63,13.5-1.31-1.34c-.61-.56-1.56-.51-2.12.1-.53.58-.52,1.48.03,2.05l2.92,2.84c.28.28.66.43,1.05.43h.29c.49-.1.89-.43,1.09-.89l6.51-15.5c.33-.76-.02-1.64-.78-1.97-.02,0-.03-.01-.05-.02Z"/>
      <path class="st17" d="M209.26,135.65c-20.14,11.64-36.47,39.91-36.46,63.17s16.33,32.69,36.47,21.06,36.48-39.92,36.46-63.17-16.35-32.71-36.47-21.06Z"/>
      <path class="st17" d="M224.5,191c-6.8-.28-24.86-2.58-24.86-2.58h0c-10.96-7.14-17.19-19.67-16.26-32.72l.4-5.62c.7-10.67,8.71-19.44,19.28-21.08,11.42-1.73,22.09,6.13,23.82,17.55.23,1.52.29,3.06.18,4.6-.2,2.76.1,5.28,2,7.44,1.09,1.09,2.3,2.05,3.61,2.86,1.86,1.21,3.47,2.75,4.77,4.54,1.3,1.83,1.78,4.11,1.33,6.3-.38,1.38-1.15,2.62-2.22,3.58-.19.13-.33.34-.37.57,0,.17.06.33.15.47,1.62,2.94,2.1,6.73.37,9.61-1.18,1.8-2.95,3.13-5,3.76-2.03.62-4.15.89-6.27.8-.24-.08-.59-.08-.93-.08Z"/>
      <path class="st9" d="M192.65,191.18c-.51,3.76-2.47,7.18-5.47,9.51-.99.78-2.09,1.4-3.26,1.84h0l-5.13,15.91c-3.78-4.45-6-11.12-6-19.64.03-3.43.36-6.84,1-10.21h0c2.63-6.52,6-9.24,13.34-10h0c.36.22,6.76,4.57,5.52,12.59Z"/>
      <path class="st9" d="M271,190.45c-4.33,7.54-9.04,14.85-14.11,21.91-1.26,1.68-4.78,6.32-6.62,6.77-2.34.58-4.33-1.27-5.58-2.13-4.24-2.94-26.18-24.75-26.18-24.75-6.83-9.52-5.11-15.59-4.18-15.6s7.93-1.84,13.92,4c4.54,4.43,20.05,20.46,20.05,20.46,3.66-4.3,6.06-6.43,9.71-10.74,1.78-2.1,4.49-4.36,4.61-7.25-.01-1.32-.13-2.64-.35-3.94-.22-3.01-.03-6.04.57-9,.01-.13.05-.27.1-.39.1-.17.25-.29.43-.36.69-.2,1.43.09,1.8.71.34.61.53,1.3.55,2,.02.69.17,1.37.44,2,.06.13.15.24.26.33.13.08.28.13.43.12.83,0,1.28-.9,1.58-1.56.72-1.54,1.31-3.15,1.74-4.8.3-1.13.82-2.22,1.21-3.34.15-.66.5-1.27,1-1.73.9-.67,2.18-.3,3.19.21.56.28,1.08.61,1.57,1,1.44,1.31,2.39,3.08,2.69,5,.4,2.23.25,4.52-.44,6.67-.86,3.03-2.28,5.87-4.2,8.37-1.36,2.02-2.91,3.93-4.19,6.04Z"/>
      <path class="st20" d="M222.19,204.59l-.25,5.35c-3.76,3.86-8.02,7.2-12.67,9.94-4.12,2.5-8.71,4.14-13.49,4.81-3.36.45-6.78.07-9.95-1.13l.75-2.36-2.68-18.65h0c.4-.38.76-.81,1.06-1.27.15-.21.3-.44.47-.71.19-.3.37-.61.53-.93.12-.22.23-.45.35-.7s.23-.5.35-.77l.2-.45c.12-.3.24-.63.36-1,.04-.09.07-.19.1-.29h0c.57-1.71.97-3.47,1.2-5.25,1-7.41-.84-11.85-1.43-12.61h0c.31-.1,7.13-.48,7.13-.48l13.67-1.6,6.55.25c4.99,3.08,8.85,7.7,11,13.15,3.49,8.59-3.25,14.7-3.25,14.7Z"/>
      <path class="st11" d="M195.78,224.69c-3.36.45-6.78.07-9.95-1.13l.75-2.36-2.68-18.65h0c.4-.38.76-.81,1.06-1.27.15-.21.3-.44.47-.71.19-.3.37-.61.53-.93.12-.22.23-.45.35-.7s.23-.5.35-.77l.2-.45c.12-.3.24-.63.36-1,.04-.09.07-.19.1-.29-.06,1-.14,2.56-.16,4.25-.03,1.91.06,3.82.26,5.72.6,4.88,5.83,15.52,7.88,17.21.36.23.55.66.48,1.08Z"/>
      <path class="st9" d="M221.5,141.35c1.29,1.54,2.89,5.45,1.57,17.9-1.12,10.55-4.76,12.88-6.54,13.49s-5.06-.13-8.24-.93l-.43,5.15c3.05,2.39,5.67,5.29,7.73,8.57,2.44,4.2-9.22,5-16.1-1.49-3.68-3.47-6-5.92-6-5.92l1.35-15.26s-2,1.69-5-1.39c-2.46-2.54-3-6.53-.79-8.47,2.01-1.59,4.93-1.24,6.52.77.31.39.55.84.72,1.31,0,0,5.13.62,12.29-2.58s12.12-7.09,12.92-11.15Z"/>
      <path class="st0" d="M212,155.89c.03.74-.55,1.36-1.28,1.39-.74.03-1.36-.55-1.39-1.28,0-.07,0-.14,0-.21-.03-.74.55-1.36,1.28-1.39.74-.03,1.36.55,1.39,1.28,0,.07,0,.14,0,.21Z"/>
      <path class="st10" d="M210.5,164.26l3.43,1.41c-.34.95-1.38,1.44-2.32,1.1-.02,0-.04-.02-.07-.02-.94-.44-1.39-1.52-1.04-2.49Z"/>
      <path class="st0" d="M222.92,153.21l-2.92-1.47c.35-.79,1.27-1.16,2.07-.81.03.01.06.03.08.04.81.42,1.15,1.41.77,2.24Z"/>
      <path class="st0" d="M221.5,156.37c-.06.73-.69,1.28-1.43,1.23s-1.28-.69-1.23-1.43c.05-.71.65-1.25,1.36-1.23.75.04,1.33.68,1.29,1.43,0,0,0,0,0,0Z"/>
      <polygon class="st10" points="216.16 154.46 215.37 163.11 219.69 162.16 216.16 154.46"/>
      <path class="st10" d="M208.29,171.81c-3.37-.73-10.19-3.32-11-6.17.32,1.44,1.07,2.74,2.16,3.73,1.94,2,8.71,4.55,8.71,4.55l.13-2.11Z"/>
      <path class="st17" d="M195.51,158.91c1.47,0,2.67-1.2,2.67-2.67,0-1.47-1.19-2.67-2.67-2.67v5.34Z"/>
    </g>
  </g>
  <g id="freepik--paper-planes--inject-38">
    <g id="freepik--paper-planes--inject-381" data-name="freepik--paper-planes--inject-38">
      <polygon class="st16" points="362.26 331.88 404.56 304.79 423.19 310.77 362.26 331.88"/>
      <polygon class="st16" points="362.26 331.88 398.82 301.39 390.69 292.01 362.26 331.88"/>
      <polygon class="st16" points="398.82 301.39 398.82 308.47 362.26 331.88 398.82 301.39"/>
      <polygon class="st12" points="398.82 301.39 398.82 308.47 362.26 331.88 398.82 301.39"/>
      <polygon class="st16" points="451.12 115.58 419.92 95.6 406.18 100.01 451.12 115.58"/>
      <polygon class="st16" points="451.12 115.58 424.15 93.09 430.15 86.17 451.12 115.58"/>
      <polygon class="st16" points="424.15 93.09 424.15 98.31 451.12 115.58 424.15 93.09"/>
      <polygon class="st12" points="424.15 93.09 424.15 98.31 451.12 115.58 424.15 93.09"/>
      <path class="st15" d="M418.63,91.58c-.22,0-.43-.07-.6-.2-.39-.3-.79-.59-1.19-.88-.45-.32-.55-.95-.23-1.39h0c.32-.45.95-.55,1.4-.23,0,0,0,0,0,0,.41.29.82.59,1.22.9.44.33.53.96.2,1.4-.19.25-.49.4-.8.4h0Z"/>
      <path class="st15" d="M413,87.72c-.19,0-.37-.05-.53-.15-.89-.56-1.79-1.1-2.7-1.62-.48-.28-.65-.89-.37-1.37.28-.48.89-.65,1.37-.37.94.54,1.86,1.09,2.77,1.66.47.29.61.91.32,1.38-.18.3-.51.47-.85.47h0ZM405.57,83.62c-.15,0-.3-.03-.43-.1-.94-.45-1.91-.89-2.86-1.29-.52-.2-.78-.77-.58-1.29s.77-.78,1.29-.58c.02,0,.05.02.07.03,1,.42,2,.86,2.94,1.33.5.24.7.84.46,1.34-.17.34-.51.56-.89.56h0ZM397.71,80.43c-.11,0-.22-.02-.32-.05-1-.33-2-.64-3-.92-.54-.1-.9-.62-.81-1.16.1-.54.62-.9,1.16-.81.06.01.12.03.17.05,1,.28,2.07.6,3.09.94.53.17.81.73.64,1.26,0,0,0,0,0,.01-.13.39-.49.66-.91.68h-.03ZM361.24,80.23c-.43,0-.82-.28-.95-.69-.17-.52.11-1.08.63-1.26,1-.35,2.06-.66,3.09-1,.53-.15,1.08.17,1.23.7,0,0,0,0,0,0,.15.53-.17,1.08-.7,1.23,0,0,0,0,0,0-1,.28-2,.58-3,.91-.08.05-.17.09-.27.11h-.03ZM389.5,78.3h-.19c-1-.19-2.06-.36-3.08-.49-.55-.07-.94-.58-.87-1.13s.58-.94,1.13-.87c1.06.14,2.13.31,3.19.51.55.05.96.54.91,1.09s-.54.96-1.09.91h0v-.02ZM369.5,78.14c-.55.05-1.04-.36-1.08-.91-.05-.55.36-1.04.91-1.09,1.06-.18,2.14-.34,3.21-.46.55-.06,1.05.33,1.12.88.06.55-.33,1.05-.89,1.12h0c-1,.12-2.07.27-3.1.45h-.17ZM381.12,77.35h-3.13c-.55,0-1-.45-1-1s.45-1,1-1h3.24c.55,0,1,.45,1,1s-.45,1-1,1h-.11Z"/>
      <path class="st15" d="M354.94,82.76c-.55,0-1-.45-.99-1.01,0-.38.22-.73.56-.89l1.39-.63c.51-.22,1.1,0,1.32.51.22.51,0,1.1-.51,1.32h0c-.45.19-.9.4-1.35.61-.13.06-.28.09-.42.09Z"/>
      <path class="st15" d="M411.17,297.66c-.55,0-1-.45-.99-1.01,0-.32.16-.62.41-.8l1.22-.87c.45-.33,1.08-.23,1.4.22.33.45.23,1.08-.21,1.4l-1.22.88c-.18.12-.39.19-.61.18Z"/>
      <path class="st15" d="M416.41,293.84c-.31,0-.61-.15-.8-.4-.33-.44-.24-1.07.2-1.4l2.37-1.8c.46-.31,1.08-.19,1.39.27.28.42.21.98-.17,1.31-.79.61-1.58,1.22-2.39,1.82-.17.13-.38.2-.6.2ZM422.7,288.93c-.55,0-1-.46-.99-1.01,0-.29.13-.57.36-.76l2.29-1.9c.39-.39,1.02-.39,1.41,0,.39.39.39,1.02,0,1.41-.04.04-.08.07-.12.1-.76.65-1.54,1.29-2.32,1.93-.18.14-.4.22-.63.22ZM428.76,283.74c-.55,0-1-.44-1.01-.99,0-.28.12-.56.33-.75.74-.67,1.47-1.34,2.18-2,.39-.39,1.02-.39,1.41,0,0,0,0,0,0,0,.39.39.39,1.02,0,1.41-.73.69-1.46,1.37-2.21,2.05-.19.18-.45.28-.71.28ZM434.5,278.2c-.26,0-.51-.1-.7-.28-.39-.39-.39-1.02,0-1.41.69-.72,1.37-1.44,2-2.16.4-.38,1.03-.37,1.41.03.35.36.37.93.06,1.32-.67.74-1.36,1.47-2.06,2.2-.19.19-.44.3-.71.3h0ZM439.81,272.26c-.23,0-.46-.08-.64-.23-.43-.35-.49-.98-.14-1.41,0,0,0,0,0,0,.63-.77,1.24-1.54,1.83-2.32.35-.42.98-.48,1.41-.13.4.33.48.91.18,1.34-.6.8-1.23,1.59-1.87,2.38-.19.23-.47.37-.77.37h0ZM444.53,265.83c-.55,0-1-.45-1-1,0-.19.06-.38.16-.54.54-.82,1.06-1.66,1.56-2.5.23-.5.82-.73,1.32-.5s.73.82.5,1.32c-.03.06-.06.12-.1.18-.51.87-1.05,1.74-1.6,2.58-.18.29-.5.46-.84.46ZM448.46,258.9c-.15,0-.29-.04-.43-.1-.5-.24-.71-.83-.47-1.33,0,0,0,0,0,0,.43-.89.83-1.79,1.2-2.68.21-.51.8-.75,1.31-.54.51.21.75.8.54,1.31-.38.92-.8,1.85-1.25,2.78-.17.35-.52.57-.9.57ZM451.36,251.48c-.1.01-.19.01-.29,0-.52-.16-.82-.72-.66-1.24.28-.94.54-1.89.76-2.83.13-.54.67-.87,1.21-.74.54.13.87.67.74,1.21h0c-.23,1-.5,2-.8,3-.16.38-.54.63-.96.61Z"/>
      <path class="st15" d="M453,243.68h-.13c-.55-.07-.93-.57-.86-1.12.06-.48.11-1,.15-1.45.05-.55.54-.96,1.09-.91s.96.54.91,1.09c-.05.51-.11,1-.17,1.52-.07.5-.49.87-.99.87Z"/>
    </g>
  </g>
</svg>