<?xml version="1.0" encoding="UTF-8"?>
<svg id="Layer_1" xmlns="http://www.w3.org/2000/svg" version="1.1" viewBox="0 0 500 500">
  <!-- Generator: Adobe Illustrator 30.0.0, SVG Export Plug-In . SVG Version: 2.1.1 Build 123)  -->
  <defs>
    <style>
      .st0 {
        fill: #162438;
      }

      .st1 {
        fill: #b16668;
      }

      .st2 {
        fill: #263238;
      }

      .st3, .st4 {
        fill: #fff;
      }

      .st5 {
        fill: #9a4a4d;
      }

      .st6 {
        fill: #f0f0f0;
      }

      .st7 {
        fill: #e0e0e0;
      }

      .st8 {
        fill: #0e1723;
      }

      .st9 {
        fill: none;
        stroke: #fff;
        stroke-linecap: round;
        stroke-miterlimit: 10;
      }

      .st10 {
        opacity: .1;
      }

      .st10, .st11, .st12, .st13, .st4 {
        isolation: isolate;
      }

      .st14 {
        fill: #d7a829;
      }

      .st11 {
        opacity: .15;
      }

      .st15 {
        fill: #142033;
      }

      .st12 {
        opacity: .3;
      }

      .st13 {
        opacity: .2;
      }

      .st16 {
        fill: #f5f5f5;
      }

      .st17 {
        fill: #fafafa;
      }

      .st4 {
        opacity: .8;
      }

      .st18 {
        fill: #e6e6e6;
      }
    </style>
  </defs>
  <g id="freepik--Floor--inject-270">
    <ellipse id="freepik--floor--inject-270" class="st16" cx="249.05" cy="301.46" rx="235.1" ry="140.4"/>
  </g>
  <g id="freepik--Shadows--inject-270">
    <ellipse class="st7" cx="299.03" cy="387.68" rx="30.87" ry="17.82"/>
    <path class="st7" d="M55.08,365l16,9.23c1.36.69,2.97.69,4.33,0l186.59-107.75c.69-.23,1.06-.98.83-1.67-.13-.39-.44-.69-.83-.83l-16-9.22c-1.36-.69-2.97-.69-4.33,0l-186.59,107.72c-.7.22-1.08.96-.87,1.65.13.41.45.74.87.87Z"/>
  </g>
  <g id="freepik--Plants--inject-270">
    <path class="st14" d="M67.44,330.24s4.86-19.24-2.23-33.37-19.65-14.87-24.47-13.76-9.21,6.69-2.93,12.95,19.78,19,20.43,27.64l9.2,6.54Z"/>
    <path class="st11" d="M67.44,330.24s4.86-19.24-2.23-33.37-19.65-14.87-24.47-13.76-9.21,6.69-2.93,12.95,19.78,19,20.43,27.64l9.2,6.54Z"/>
    <path class="st9" d="M44.72,286.36c6,3.45,21.18,14.82,20.57,40.62"/>
    <path class="st14" d="M66.47,324.62c1-5-2.49-9.77-10.85-11.1s-7.11-1.14-16-6.87-16.95-4-18.91-.5c-2.13,3.85,5.2,8.25,10.23,12.85s8,9.34,4.76,14.19c-2.73,4.16-3.26,8.27,3.21,12.29,5.76,3.57,13.63,2.19,14.21,9,.32,3.9,4.91,9.57,11.35,8.2,18.93-9.68,2-38.06,2-38.06Z"/>
    <path class="st9" d="M28.55,306.49c9.91,4.13,35.13,20.7,40.73,49"/>
    <path class="st9" d="M42.55,336.26s9.25-3,18.66-1"/>
  </g>
  <g id="freepik--Megaphone--inject-270">
    <path class="st8" d="M297.81,76.72l20.31-11.72v75c0,3.52,4.06,7,4.06,7l-20.31,11.72s-4.06-3.51-4.06-7v-75Z"/>
    <path class="st15" d="M273.12,76.52l8.56,10.91v30.24l-9.25,24.09,29.48,17c-2.56-2.31-3.85-4.66-4.06-7v-61l-24.73-14.24Z"/>
    <polygon class="st14" points="272.39 141.76 272.39 146.45 301.87 163.47 301.87 158.78 272.39 141.76"/>
    <polygon class="st14" points="301.87 163.47 322.18 151.75 322.18 147.06 301.87 158.78 301.87 163.47"/>
    <polygon class="st10" points="301.87 163.47 322.18 151.75 322.18 147.06 301.87 158.78 301.87 163.47"/>
    <path class="st6" d="M296.88,27.39h0c-3.45-2.07-8.26-1.81-13.57,1.25l-.19.12c-10.5,6.06-19,20.8-19,32.93v.22c0,6.28,2.29,10.62,5.95,12.51h0l15.37,9,25.65-47.71-14.21-8.32Z"/>
    <path class="st7" d="M270.06,74.42h0l15.37,9,8.5-15.81-28.05-16.2c-1.12,3.3-1.72,6.75-1.77,10.23v.22c0,6.33,2.29,10.67,5.95,12.56Z"/>
    <path class="st14" d="M330.07,39.06h0c-3.9-2.24-9.15-2.15-15,.7-.61.29-1.23.62-1.86,1s-1.46.88-2.18,1.38c-1.21.82-2.37,1.72-3.48,2.68-2.12,1.83-4.08,3.83-5.85,6-4.91,6.02-8.55,12.97-10.7,20.44-1.01,3.51-1.54,7.15-1.58,10.8,0,7.41,2.54,12.68,6.67,15.24l-14.68-8.46h0c-5.53-3.59-8.81-9.78-8.66-16.37.03-3.49.52-6.95,1.45-10.31,2.12-7.67,5.82-14.81,10.86-20.96,1.77-2.17,3.73-4.18,5.85-6,1.1-.96,2.27-1.86,3.48-2.68.72-.5,1.45-1,2.18-1.38s1.25-.68,1.88-1c5.29-2.5,11.43-2.39,16.63.28h0l.41.23.51.35,14.07,8.06Z"/>
    <path class="st10" d="M281.37,88.84h0c-5.53-3.59-8.81-9.78-8.66-16.37.03-3.49.52-6.95,1.45-10.31l16.84,9.1c-1.01,3.51-1.54,7.15-1.58,10.8,0,7.41,2.54,12.68,6.67,15.24l-14.72-8.46Z"/>
    <path class="st14" d="M337.07,54.52c0,15.21-10.67,33.7-23.84,41.3-6.62,3.83-12.62,4.17-16.94,1.62l-.24-.14c-4.13-2.56-6.67-7.83-6.67-15.24,0-15.21,10.67-33.7,23.84-41.31,6.57-3.79,12.53-4.16,16.84-1.68s7.01,7.83,7.01,15.45Z"/>
    <path class="st13" d="M337.07,54.52c0,15.21-10.67,33.7-23.84,41.3-6.62,3.83-12.62,4.17-16.94,1.62l-.24-.14c-4.13-2.56-6.67-7.83-6.67-15.24,0-15.21,10.67-33.7,23.84-41.31,6.57-3.79,12.53-4.16,16.84-1.68s7.01,7.83,7.01,15.45Z"/>
    <path class="st6" d="M410.18,50.59s-24.05,12.34-44.6,47.93c-3.69,6.39-6.95,13.01-9.75,19.84-10.31,25.31-9.46,42.75-9.46,42.75-7.17-17.56-16.08-35.74-30.95-49.66-5.82-5.41-11.93-10.52-18.29-15.29h0c-3.93-2.29-6.23-7.25-6.23-14.09.08-4.79.99-9.52,2.69-14,1.1-3.03,2.47-5.95,4.08-8.74,4.18-7.24,9.95-13.56,16.31-17.23,5.92-3.42,11.37-3.91,15.31-1.64h0c7.32,3.12,14.79,5.85,22.39,8.19,19.51,5.88,39.71,4.5,58.5,1.94Z"/>
    <path class="st7" d="M355.83,118.36c-10.31,25.31-9.46,42.75-9.46,42.75-7.17-17.56-16.08-35.74-30.95-49.66-5.82-5.41-11.93-10.52-18.29-15.29h0c-3.93-2.29-6.23-7.25-6.23-14.09.08-4.79.99-9.52,2.69-14,18.24,9.1,47.74,25.93,62.24,50.29Z"/>
    <path class="st14" d="M455.5,84.91c0,15.86-4.88,33.22-13,49.25h0c-10.42,20.53-26.14,38.86-43.74,49-31.35,18.12-56.76,3.45-56.76-32.73.09-8.68,1.35-17.31,3.75-25.65,6.34-22.02,18.17-42.07,34.38-58.27,2.22-2.18,4.5-4.23,6.84-6.15,1-.8,2-1.58,2.95-2.33h0c1.41-1.07,2.84-2.09,4.27-3.05,1.5-1,3-1.95,4.54-2.83,31.36-18.09,56.77-3.43,56.77,32.76Z"/>
    <path class="st10" d="M442.49,134.17c-10.42,20.53-26.14,38.86-43.74,49-31.34,18.11-56.75,3.44-56.75-32.74.09-8.68,1.35-17.31,3.75-25.65h0c2.12,4.68,9.74,11.36,13.15,6.68-2.1,7.4-3.21,15.05-3.29,22.75,0,10.4,2.32,18.79,6.7,24.28,3.74,4.68,8.88,7.06,15.27,7,6.21,0,13.43-2.28,20.88-6.57,15-8.64,28.73-24.17,38.49-41.76.05.05,1.97,1.7,5.54-2.99Z"/>
    <path class="st14" d="M451.62,86.93c0,16-5.61,34-14.65,50.28-9.76,17.59-23.52,33.12-38.49,41.76-7.45,4.29-14.67,6.58-20.88,6.57-6.39,0-11.53-2.37-15.27-7-4.38-5.49-6.7-13.88-6.7-24.28.08-7.7,1.19-15.35,3.29-22.75.8-2.94,1.74-5.89,2.81-8.83,1.89-5.2,4.13-10.28,6.69-15.19.53-1.02,1.07-2.02,1.62-3,.91-1.67,1.86-3.33,2.85-5,3.33-5.52,7.07-10.78,11.19-15.74,0,0,.1-.11.14-.17,2.66-3.18,5.48-6.22,8.47-9.09,2.11-2,4.27-3.89,6.47-5.67.92-.74,1.85-1.45,2.79-2.14,1.13-.82,2.27-1.61,3.42-2.37,1.12-.73,2.25-1.42,3.38-2.08,7.47-4.32,14.69-6.58,20.9-6.59,13.76-.03,21.97,11.69,21.97,31.29Z"/>
    <path class="st12" d="M451.62,86.93c0,16-5.61,34-14.65,50.28-9.76,17.59-23.52,33.12-38.49,41.76-7.45,4.29-14.67,6.58-20.88,6.57-6.39,0-11.53-2.37-15.27-7-4.38-5.49-6.7-13.88-6.7-24.28.08-7.7,1.19-15.35,3.29-22.75.8-2.94,1.74-5.89,2.81-8.83,1.89-5.2,4.13-10.28,6.69-15.19.53-1.02,1.07-2.02,1.62-3,.91-1.67,1.86-3.33,2.85-5,3.33-5.52,7.07-10.78,11.19-15.74,0,0,.1-.11.14-.17,2.66-3.18,5.48-6.22,8.47-9.09,2.11-2,4.27-3.89,6.47-5.67.92-.74,1.85-1.45,2.79-2.14,1.13-.82,2.27-1.61,3.42-2.37,1.12-.73,2.25-1.42,3.38-2.08,7.47-4.32,14.69-6.58,20.9-6.59,13.76-.03,21.97,11.69,21.97,31.29Z"/>
    <path class="st7" d="M403.4,95.82l-19.91,37.18c-5.59-2.1-15.06-5.46-22.77-7.43.32-1,.66-2,1-2.93,1.89-5.2,4.13-10.28,6.69-15.19.53-1.02,1.07-2.02,1.62-3,.91-1.67,1.86-3.33,2.85-5,3.33-5.52,7.07-10.78,11.19-15.74,0,0,.1-.11.14-.17.6-.71,1.2-1.42,1.81-2.11,5.36,5.29,11.18,10.11,17.38,14.39Z"/>
    <path class="st16" d="M385.15,132.9c-4.5,0-7.19-3.64-7.19-9.73v-.17c0-9.57,6.75-21.25,15-26l.17-.09c1.88-1.2,4.05-1.89,6.28-2,4.49,0,7.18,3.64,7.18,9.72v.19c0,9.57-6.74,21.25-15,26l-.16.09c-1.89,1.2-4.05,1.88-6.28,2h0Z"/>
  </g>
  <g id="freepik--Device--inject-270">
    <path class="st0" d="M253.84,104.9c-1.47-.66-3.19-.5-4.51.43l-172,99.28c-2.05,1.34-3.7,3.2-4.79,5.39l-8.12-4.69c1.11-2.18,2.78-4.03,4.84-5.36l171.94-99.31c1.8-1,3.43-1.08,4.67-.33h0l7.97,4.59Z"/>
    <path class="st8" d="M64.67,364.47h0c-1.52-.85-2.48-2.86-2.48-5.72v-146.33c0-.34,0-.46.07-.69s.05-.44.09-.66c.02-.16.05-.32.09-.47.1-.56.24-1.11.41-1.65.06-.24.14-.48.22-.72s.24-.65.36-1c0,0,0-.07.05-.1.13-.32.26-.63.41-.93s.32-.65.49-1l8.16,4.8c-.18.33-.35.67-.52,1s-.25.56-.36.84c0,.04,0,.09,0,.13-.14.32-.26.65-.37,1s-.23.69-.32,1c-.08.26-.14.52-.19.78-.27,1.1-.41,2.23-.41,3.36v145.32c0,2.89,1,4.92,2.52,5.76l-8.22-4.72Z"/>
    <path class="st15" d="M249.33,105.33l-172,99.27c-3.9,2.26-7.06,8.3-7.06,13.5v145.33c0,5.2,3.16,7.59,7.06,5.34l172-99.27c3.9-2.25,7.06-8.3,7.06-13.5V110.67c0-5.2-3.16-7.59-7.06-5.34Z"/>
    <path class="st14" d="M239.86,268.2l-153,88.34c-2,1.16-3.67-.08-3.67-2.77v-140.87c0-2.7,1.64-5.83,3.67-7l153-88.33c2-1.17,3.66.07,3.66,2.76v140.87c0,2.7-1.64,5.8-3.66,7Z"/>
    <path class="st10" d="M239.86,268.2l-153,88.34c-2,1.16-3.67-.08-3.67-2.77v-140.87c0-2.7,1.64-5.83,3.67-7l153-88.33c2-1.17,3.66.07,3.66,2.76v140.87c0,2.7-1.64,5.8-3.66,7Z"/>
    <path class="st7" d="M79.12,291.17c-.03,1.79-.9,3.47-2.36,4.51-1.31.76-2.37,0-2.37-1.78.02-1.8.9-3.48,2.37-4.52,1.3-.76,2.36.05,2.36,1.79Z"/>
    <path class="st7" d="M76.76,267.87h0c-.88.64-1.42,1.65-1.44,2.74v12.54c0,1.06.65,1.54,1.44,1.08h0c.88-.63,1.41-1.64,1.43-2.73v-12.5c0-1.1-.64-1.58-1.43-1.13Z"/>
    <polygon class="st17" points="228.74 135.93 106.87 206.29 106.87 344.93 228.74 274.62 228.74 135.93"/>
    <polygon class="st3" points="228.74 135.93 224.67 133.59 102.81 203.94 106.87 206.29 228.74 135.93"/>
    <polygon class="st7" points="102.81 203.94 106.87 206.29 106.87 344.93 102.81 347.27 102.81 203.94"/>
    <path class="st15" d="M121.64,226.23c.06.49.09.99.07,1.49.02.52,0,1.05-.07,1.57l-7.1,4.1c-.06-.49-.09-.99-.07-1.49-.01-.52.01-1.05.07-1.57l2.2-1.27v-15.45l-1.83,1c-.06-.49-.09-.99-.07-1.48-.01-.52.01-1.05.07-1.57l6.14-3.55,5.84,11.11v-11.38l-1.83,1.06c-.06-.49-.09-.99-.07-1.49-.01-.52.01-1.04.07-1.56l7-4c.06.49.09.99.07,1.49.02.52,0,1.05-.07,1.57l-2.06,1.19v18.51l-3.41,2-6.74-12.67v13.5l1.79-1.11Z"/>
    <path class="st15" d="M146,193.66v5.34c-.36.27-.74.52-1.13.74-.37.22-.76.42-1.16.59v-2.33l-5.53,3.18v5.63l2.64-1.53v-2.23c.36-.28.74-.53,1.14-.75.34-.22.71-.41,1.1-.54v7.54c-.34.29-.71.53-1.1.73-.36.23-.74.42-1.14.57v-2.32l-2.64,1.52v6.84l5.75-3.32v-2.87c.37-.28.76-.54,1.17-.77.36-.21.74-.39,1.13-.55v5.92l-13.18,7.61c-.05-.49-.08-.99-.07-1.49,0-.52.02-1.05.07-1.57l2.06-1.18v-15.42l-1.83,1.06c-.06-.49-.08-.99-.07-1.49,0-.89.07-1.57.07-1.57l12.72-7.34Z"/>
    <path class="st15" d="M156.81,191.39l3.18-1.84,2.87,12.58.14-.13s1.26-10.32,1.72-16.15l-1.82,1.15v-3.05l6.24-3.6c.06.47.08.95.07,1.43.01.54-.01,1.08-.07,1.62l-1.61.93c-.57,6.59-2.2,19.78-2.2,19.78l-4.67,2.7-2.36-10.4-2.36,13.13-4.68,2.69s-1.74-11-2.17-17.25l-1.61.93v-3.06l6.49-3.74c.06.47.08.95.07,1.42.01.54-.01,1.09-.07,1.63l-1.84,1.06c.33,5.5,1.68,14.19,1.68,14.19l.16-.1,2.84-15.92Z"/>
    <path class="st15" d="M180.38,179.49c-.38.3-.79.56-1.21.79-.42.26-.85.48-1.31.66v-2.16s-.8-.37-2.34.52c-1.56.96-2.56,2.61-2.7,4.43,0,1.07.25,2.06,1.28,1.89l3-.45c1.61-.22,4-.07,4,4s-2.09,7.44-6,9.67c-3.69,2.14-5.36.5-5.36.5v-4.09c.39-.28.79-.55,1.21-.79.42-.25.86-.47,1.31-.66v2.29s.85.61,2.84-.54c1.73-.89,2.84-2.65,2.89-4.6,0-1.56-1-2.06-2-1.91l-3.28.49c-2.27.33-3-1.39-3-4.05,0-3.6,2.63-7.66,5.77-9.47,1.47-.89,3.27-1.02,4.86-.36l.04,3.84Z"/>
    <polygon class="st7" points="219.21 150.89 186.71 169.66 186.71 191.73 219.21 172.96 219.21 150.89"/>
    <polygon class="st14" points="219.21 185.81 114.61 246.2 114.61 240.49 219.21 180.1 219.21 185.81"/>
    <polygon class="st15" points="147.78 286.42 114.61 305.57 114.61 253.34 147.78 234.19 147.78 286.42"/>
    <path class="st3" d="M142.2,245.73l-22,12.71c-.41.23-.74,0-.74-.55h0c.01-.55.29-1.07.74-1.39l22-12.7c.4-.24.73,0,.73.55h0c-.01.55-.28,1.06-.73,1.38Z"/>
    <path class="st3" d="M142.2,255.1l-22,12.7c-.41.23-.74,0-.74-.55h0c.01-.56.29-1.08.74-1.4l22-12.7c.4-.23.73,0,.73.55h0c0,.56-.28,1.07-.73,1.4Z"/>
    <path class="st3" d="M142.2,264.46l-22,12.7c-.41.24-.74,0-.74-.55h0c0-.56.28-1.07.74-1.39l22-12.71c.4-.23.73,0,.73.56h0c-.01.55-.28,1.07-.73,1.39Z"/>
    <path class="st3" d="M142.2,273.82l-22,12.71c-.41.23-.74,0-.74-.55h0c0-.56.28-1.08.74-1.4l22-12.7c.4-.24.73,0,.73.55h0c0,.55-.28,1.07-.73,1.39Z"/>
    <path class="st3" d="M142.2,283.19l-22,12.7c-.41.23-.74,0-.74-.55h0c.01-.56.29-1.08.74-1.4l22-12.7c.4-.23.73,0,.73.55h0c0,.56-.28,1.07-.73,1.4Z"/>
    <path class="st3" d="M142.2,250.2l-22,12.7c-.41.23-.74,0-.74-.55h0c0-.56.28-1.08.74-1.4l22-12.7c.4-.24.73,0,.73.55h0c-.01.56-.28,1.07-.73,1.4Z"/>
    <path class="st3" d="M142.2,259.56l-22,12.7c-.41.24-.74,0-.74-.55h0c.01-.56.29-1.08.74-1.4l22-12.7c.4-.23.73,0,.73.55h0c0,.56-.28,1.07-.73,1.4Z"/>
    <path class="st3" d="M142.2,268.92l-22,12.71c-.41.23-.74,0-.74-.56h0c0-.56.28-1.07.74-1.39l22-12.71c.4-.23.73,0,.73.56h0c-.01.55-.28,1.07-.73,1.39Z"/>
    <path class="st3" d="M142.2,278.29l-22,12.7c-.41.23-.74,0-.74-.55h0c0-.56.28-1.08.74-1.4l22-12.7c.4-.24.73,0,.73.55h0c-.01.56-.28,1.07-.73,1.4Z"/>
    <polygon class="st7" points="219.21 280.07 155.12 317.08 155.12 229.95 219.21 192.95 219.21 280.07"/>
    <path class="st14" d="M159.63,231.43l55.71-32.16c.78-.46,1.42-.09,1.42.81v45.73c-.06,1-.58,1.91-1.42,2.45l-55.7,32.17c-.79.45-1.42.08-1.42-.82v-45.73c.05-.99.58-1.9,1.41-2.45Z"/>
    <path class="st4" d="M159.63,231.43l55.71-32.16c.78-.46,1.42-.09,1.42.81v45.73c-.06,1-.58,1.91-1.42,2.45l-55.7,32.17c-.79.45-1.42.08-1.42-.82v-45.73c.05-.99.58-1.9,1.41-2.45Z"/>
    <path class="st14" d="M201.22,225.65l-9.31,16.47,6.54,8.48-21.61-18.6-18.62,40.33v7.3c0,.9.63,1.27,1.42.82l55.7-32.17c.84-.54,1.36-1.45,1.42-2.45v-5.95l-15.54-14.23Z"/>
    <path class="st14" d="M207.65,210.55c1.54-.89,2.79-.17,2.79,1.61-.11,1.97-1.14,3.76-2.79,4.84-1.54.89-2.79.17-2.79-1.61.11-1.97,1.14-3.76,2.79-4.84Z"/>
    <polygon class="st6" points="169.65 282.62 216.55 255.54 216.55 274.3 169.65 301.38 169.65 282.62"/>
    <polygon class="st14" points="165.38 303.84 114.61 333.15 114.61 314.4 165.38 285.08 165.38 303.84"/>
  </g>
  <g id="freepik--Character--inject-270">
    <path class="st15" d="M295.37,207.59h.85c7.95,0,14.4,6.46,14.4,14.41v16.33h-17.09c-6.93-.02-12.53-5.64-12.53-12.57v-3.76c0-7.94,6.43-14.39,14.37-14.41Z"/>
    <path class="st15" d="M282.87,211.39c1.05.21,1.74,1.23,1.53,2.28,0,0,0,0,0,0l-3.81-.76c.21-1.05,1.23-1.73,2.28-1.52Z"/>
    <path class="st15" d="M285.36,210.56c.3,1.02-.25,2.09-1.25,2.45l-1.2-3.69c1.02-.33,2.11.22,2.45,1.24,0,0,0,0,0,0Z"/>
    <path class="st8" d="M311.06,382.52c1.73,1.81,3.62,3.46,5.65,4.92.33.2.6.48.79.81.27.56.68,1.93-1.85,2.81-2.59.9-5.44.63-7.81-.75-2.07-1.3-2.17-4-4.13-5.55-1.45-1.14-3.27-1.43-4.44-2.93-.82-1-.6-2.42-.18-4.14s.68-3.28,1.3-3.14l-.1.86c.77,1.24,4.78,1.6,6.56.75,1.29,2.19,2.69,4.32,4.21,6.36Z"/>
    <path class="st1" d="M312.81,384.27h0c-.6-.55-1.19-1.12-1.75-1.74-1.19-1.53-2.28-3.14-3.27-4.81-.69-1.01-1.01-2.23-.92-3.45l.5-4.61-6.34-.45-.74,6.22h0c-.15,1.41,1,2.66,3.08,4.44s4.68,5.93,6.55,7,3.21,1,4,.47.9-1.02-1.11-3.07Z"/>
    <path class="st8" d="M286.93,383.08v-.95c.38,1.12,2.12,5.93,4.77,8.35,2.1,1.91,5,4.13,5.7,6.27s-4,3-6,2.62c-2.62-.44-5.02-1.73-6.84-3.67-1.13-1.39-1.85-3-2.66-4.13s-2.67-2.31-3.11-3.58c-.13-1.18,0-2.38.39-3.5.31-1.17.64-2.47,1-2.36v.73c.97.77,2.18,1.17,3.42,1.14.97,0,3.34-.17,3.33-.92Z"/>
    <path class="st1" d="M293.6,392.16c-.65-.58-1.31-1.15-1.9-1.69-1.78-1.87-3.16-4.08-4.07-6.5-.46-1.11-.7-2.31-.7-3.51v-3.8h-6.67v6.19h0v.15h0c.32,1.39,3.38,5.07,5.12,7.48,1.41,2.06,3.56,3.49,6,4,2.62.38,3.85-.42,2.22-2.32Z"/>
    <path class="st15" d="M281.59,279.46c-5.17,11.29.19,51.06.19,51.06-.16,1.83-2.25,5.44-3,13.5-.93,9.53,1.44,33.45,1.44,33.45,2.06,1.2,4.59,1.3,6.74.27,0,0,6.35-36,7.55-45.5,1-8.27,3-27.7,3-27.7l5.2,27.88c-.95,2.61-1.62,5.31-2,8.06-.54,5.57-.13,31.35-.13,31.35,0,0,2.27,1.73,6.64,1.09,0,0,7.56-35.29,8.15-42,.35-4-4.22-53.12-4.22-53.12l-29.56,1.66Z"/>
    <path class="st2" d="M297.52,304.54l1.68-9.23s7.1-1.47,10.32-4.5c-2.22,2.6-5.13,4.54-8.39,5.58l-1.89,8.07,3,25.22-4.72-25.14Z"/>
    <path class="st1" d="M268.61,272.17c.17-.73,2.77-8.32,4.39-12.54l8.74,4.25-2.89,7.78-8.71,5c-2.34-.86-1.69-3.77-1.53-4.49Z"/>
    <polygon class="st1" points="318.11 257.89 322.5 265.94 315.67 271.8 309.41 261.88 318.11 257.89"/>
    <path class="st14" d="M301.63,239.94c4.35,0,9.15,1.63,10.8,5s6.9,14,6.9,14c0,0-4.74,4.37-10.85,4l-6.85-23Z"/>
    <path class="st12" d="M301.63,239.94c4.35,0,9.15,1.63,10.8,5s6.9,14,6.9,14c0,0-4.74,4.37-10.85,4l-6.85-23Z"/>
    <path class="st14" d="M292.61,240.09l-4,.15c-3.94.95-5,3.66-6.69,7.16-1.22,2.7-1.33,5.76-.32,8.54l4.62,13.36s-2.16,5.22-4.67,10.16c11.59,6.47,26.06,3.07,29.54-1.65.15-1-.05-5.51.23-10.65.3-5.47,1.05-11.66.19-15-1.51-6.32-4.51-12.22-10.51-12.22l-8.39.15Z"/>
    <path class="st14" d="M288.65,240.24c-5.56-.3-9.47,1-12.69,10.09-2.21,6.23-5,13.47-5,13.47,0,0,3.46,3.45,10,3.42.04,0,8.74-20.84,7.69-26.98Z"/>
    <path class="st12" d="M288.65,240.24c-5.56-.3-9.47,1-12.69,10.09-2.21,6.23-5,13.47-5,13.47,0,0,3.46,3.45,10,3.42.04,0,8.74-20.84,7.69-26.98Z"/>
    <path class="st1" d="M305.75,213.58c1.57.93,3.5,4.87,3.31,13.13-.16,7-2.43,8.73-3.57,9.23s-3.33.19-5.47-.16v4.22s3,3.43,2.77,5.35-4.27,2.39-7,.5c-1.79-1.29-3.33-2.89-4.53-4.74v-10.18c-.94,1.15-2.63,1.32-3.79.38,0,0-.02-.01-.02-.02-2.35-1.57-2.44-5.44-1.07-6.84s4.32-.95,4.88,1c2.8-.12,5.53-.93,7.94-2.37,3.58-1.94,6.01-5.47,6.55-9.5Z"/>
    <path class="st2" d="M301.54,225.05c0,.49-.38.88-.87.89-.49,0-.88-.38-.89-.87,0-.47.37-.87.84-.89.49-.01.9.38.92.87Z"/>
    <path class="st5" d="M301.48,230.88l2,.66c-.16.56-.74.89-1.31.74,0,0-.02,0-.02,0-.56-.21-.85-.82-.67-1.39Z"/>
    <path class="st2" d="M308.46,222.25l-1.78-1.25c.27-.48.88-.65,1.36-.38.04.02.08.05.12.08.5.35.63,1.04.3,1.55Z"/>
    <path class="st2" d="M308.21,224.9c0,.49-.4.88-.88.88-.49,0-.88-.4-.88-.88,0-.47.36-.85.83-.88.5-.01.91.38.93.88Z"/>
    <polygon class="st5" points="303.9 223.81 304.04 229.11 306.83 228.25 303.9 223.81"/>
    <path class="st5" d="M300,235.78c-2.25-.3-6.88-1.63-7.61-3.46.3.93.86,1.74,1.63,2.34,1.38,1.18,6,2.52,6,2.52l-.02-1.4Z"/>
    <polygon class="st16" points="333.93 253.78 303.83 264.13 294.43 303.11 323.26 292.44 333.93 253.78"/>
    <polygon class="st7" points="299.03 292.29 323.87 283.63 322.02 290.81 297.23 299.86 299.03 292.29"/>
    <polygon class="st18" points="314.67 281.42 313.98 285.83 324.22 282.01 325.53 277.46 314.67 281.42"/>
    <polygon class="st7" points="303.52 273.62 314.73 269.76 311.72 286.61 299.2 290.81 303.52 273.62"/>
    <polygon class="st18" points="329.03 264.56 326.01 275.51 315.02 279.58 316.91 269.16 329.03 264.56"/>
    <polygon class="st7" points="331.19 256.71 305.26 265.56 303.81 271.54 329.68 262.22 331.19 256.71"/>
    <path class="st11" d="M322,278.08c.24.65,1.64,2.44,4.61,2.3l.37-1.31-4.98-.99Z"/>
    <path class="st11" d="M312.53,279.37c-.11.85-1.85,2.41-4.79,3.39-3.34,1.12-8.54.57-8.54.57l.39-1.66,12.94-2.3Z"/>
    <path class="st1" d="M270.14,276.66l9.15-6.17s13.74,5.06,15.77,5.22c2.2.06,4.22-1.24,5.07-3.27.77-2,2.14-1.75,2.14-1.75,0,0-.6,2.53-.8,3.34s4.68,1.47,7.39.56,6.61.41,4.19,4.09-7.14,4.1-10.41,4.11c-1.37-.01-2.74-.1-4.1-.28-1.06-.13-2.11-.24-3.17-.32-6.71-.47-22.18-4.58-25.23-5.53Z"/>
    <path class="st1" d="M330.45,266.37s-.9,3.26-1.12,4-3.19,2.19-5.06,2.71-3.94,1.13-3,3.75c.82,2.43,3.91,3,5.49,2.91,2.16-.37,3.92-1.91,4.57-4,1.09-3.09.5-6.39.93-8.2s-.87-2.25-1.81-1.17Z"/>
  </g>
  <g id="freepik--paper-planes--inject-270">
    <polygon class="st14" points="425.12 240.84 467.42 213.75 486.05 219.74 425.12 240.84"/>
    <polygon class="st14" points="425.12 240.84 461.68 210.35 453.56 200.97 425.12 240.84"/>
    <polygon class="st14" points="461.68 210.35 461.68 217.43 425.12 240.84 461.68 210.35"/>
    <polygon class="st12" points="461.68 210.35 461.68 217.43 425.12 240.84 461.68 210.35"/>
    <polygon class="st14" points="369.5 239.97 400.7 219.99 414.45 224.4 369.5 239.97"/>
    <polygon class="st14" points="369.5 239.97 396.47 217.48 390.48 210.56 369.5 239.97"/>
    <polygon class="st14" points="396.47 217.48 396.47 222.7 369.5 239.97 396.47 217.48"/>
    <polygon class="st12" points="396.47 217.48 396.47 222.7 369.5 239.97 396.47 217.48"/>
    <path class="st18" d="M467,208.39c-.41,0-.75-.34-.75-.75,0-.21.09-.41.24-.55,1.44-1.32,2.74-2.78,3.9-4.36.25-.33.71-.4,1.05-.16.33.24.41.7.17,1.03,0,0,0,.01-.01.02-1.22,1.65-2.59,3.18-4.09,4.57-.14.13-.32.2-.51.2ZM473.62,199.68c-.12,0-.23-.03-.34-.08-.36-.19-.5-.64-.32-1,.88-1.74,1.6-3.56,2.14-5.44.11-.39.51-.63.91-.52,0,0,0,0,.01,0,.4.12.63.53.52.93-.56,1.97-1.32,3.88-2.25,5.71-.13.25-.39.4-.67.4ZM476.8,189.21h-.09c-.41-.05-.7-.41-.65-.82,0,0,0,0,0-.01.15-1.25.22-2.52.22-3.78,0-.69,0-1.39-.06-2.07-.03-.41.27-.76.68-.8,0,0,.02,0,.02,0,.41-.03.76.28.79.69,0,0,0,0,0,.01.05.72.07,1.45.07,2.17,0,1.34-.08,2.67-.23,4-.07.36-.39.61-.75.61h0ZM476.28,178.27c-.35,0-.66-.25-.73-.59-.41-1.92-.98-3.8-1.69-5.63-.15-.39.04-.82.43-.97.39-.15.82.04.97.43.74,1.9,1.33,3.86,1.76,5.86.08.4-.18.79-.58.88-.05.02-.11.02-.16.02h0ZM472.45,168c-.27,0-.53-.15-.66-.39-.94-1.74-2-3.41-3.18-5-.25-.33-.18-.8.15-1.05.33-.25.8-.18,1.05.15,1.22,1.63,2.32,3.35,3.3,5.13.19.36.05.8-.3,1-.1.08-.23.14-.36.16ZM466,159.13c-.21,0-.4-.09-.54-.24-1.35-1.44-2.78-2.79-4.29-4.06-.32-.28-.35-.76-.08-1.07.28-.32.76-.35,1.08-.07,1.55,1.31,3.03,2.71,4.41,4.19.28.3.26.78-.04,1.06-.14.13-.32.2-.51.2h-.03ZM457.68,152c-.15,0-.3-.05-.42-.14-1.48-1-3.05-2-4.67-2.93l-.37-.21c-.36-.21-.48-.67-.27-1.03.21-.36.67-.48,1.02-.27l.37.21c1.65.94,3.26,2,4.77,3,.34.23.43.7.2,1.04-.14.21-.38.33-.63.33h0ZM448.27,146.31c-.13,0-.26-.03-.37-.1l-5.2-3c-.37-.19-.52-.64-.33-1.01.19-.37.64-.52,1.01-.33.03.01.05.03.08.05l5.19,3c.36.21.48.67.28,1.02-.13.23-.39.38-.66.38h0ZM438.75,140.8c-.13,0-.26-.03-.37-.1l-5.19-3c-.35-.2-.47-.65-.28-1,.21-.34.64-.46,1-.28l5.19,3c.36.21.48.67.28,1.02-.13.23-.39.38-.66.38l.03-.02ZM429.23,135.29c-.13,0-.26-.04-.37-.11l-5.19-3c-.34-.21-.46-.64-.28-1,.21-.34.65-.46,1-.27l5.19,3c.35.2.47.65.28,1-.14.21-.38.34-.63.35v.03ZM419.72,129.77c-.13,0-.26-.03-.38-.1l-1.81-1c-.36-.21-.48-.67-.27-1.03.21-.36.67-.48,1.02-.28l1.81,1c.34.21.46.64.28,1-.14.23-.38.37-.65.37v.03Z"/>
    <path class="st18" d="M402.82,217.57c-.41,0-.75-.34-.74-.76,0-.22.1-.42.26-.56l3.73-3.08c.32-.28.8-.24,1.08.07.28.32.24.8-.08,1.07l-3.73,3.08c-.14.12-.33.18-.52.17ZM410.41,211.31c-.22,0-.44-.1-.58-.27-.26-.32-.22-.79.1-1.06l4.63-3.82c.33-.25.8-.19,1.05.14.24.31.2.76-.1,1.02l-4.62,3.82c-.14.11-.31.17-.48.17h0ZM418.75,204.15c-.2,0-.4-.09-.54-.23-.29-.29-.29-.77,0-1.06,1.41-1.37,2.74-2.82,4-4.33.27-.31.74-.35,1.06-.09.31.27.35.74.09,1.06-1.28,1.51-2.67,3-4.15,4.44-.12.12-.29.2-.46.21h0ZM425.89,195.81c-.15,0-.3-.05-.42-.14-.32-.23-.4-.67-.19-1,1.13-1.6,2.16-3.27,3.09-5,.16-.38.6-.56.98-.4.38.16.56.6.4.98-.02.04-.04.08-.06.12-.95,1.79-2.02,3.53-3.18,5.19-.16.18-.39.27-.62.25h0ZM431.12,186.16c-.09.01-.18.01-.27,0-.39-.14-.59-.57-.44-.96,0-.01,0-.02.01-.04.72-1.83,1.3-3.71,1.74-5.62.06-.41.45-.69.86-.62.41.06.69.45.62.86,0,.03-.01.06-.02.1-.45,1.99-1.06,3.93-1.8,5.83-.12.28-.39.46-.7.46h0ZM433.66,175.5h-.07c-.41-.03-.71-.39-.68-.79,0,0,0-.01,0-.02.08-1,.12-1.92.12-2.87s0-2-.13-3c-.04-.41.26-.77.66-.81,0,0,.01,0,.02,0,.41-.03.77.27.81.68.09,1,.14,2.08.14,3.12s0,2-.13,3c-.03.39-.35.69-.74.69h0ZM432.82,164.58c-.34,0-.64-.24-.73-.57-.46-1.9-1.1-3.75-1.9-5.54-.18-.37-.02-.82.36-1,.37-.18.82-.02,1,.36,0,0,0,.02.01.03.83,1.87,1.5,3.81,2,5.79.09.4-.15.81-.55.91l-.19.02ZM428.51,154.51c-.26,0-.5-.13-.64-.34-1.05-1.66-2.23-3.23-3.53-4.7-.28-.31-.25-.79.07-1.07s.79-.25,1.07.07c1.35,1.53,2.57,3.16,3.67,4.88.23.34.13.8-.21,1.03-.13.08-.27.13-.42.12h0ZM421.37,146.19c-.18,0-.36-.07-.5-.19-1.47-1.3-3.03-2.51-4.66-3.61-.34-.23-.43-.7-.2-1.05.23-.34.7-.43,1.05-.19,1.68,1.14,3.29,2.39,4.81,3.73.31.28.34.75.06,1.06,0,0,0,0,0,0-.14.16-.35.25-.56.25h0ZM412.37,139.87c-.14,0-.27-.04-.39-.11l-5.14-3.09c-.37-.18-.53-.62-.36-1s.62-.53,1-.36c.03.02.07.03.1.06.42.24,3.76,2.25,5.17,3.11.35.22.47.68.25,1.03-.13.22-.37.36-.63.36h0Z"/>
  </g>
</svg>