<?xml version="1.0" encoding="UTF-8"?>
<svg id="Layer_1" xmlns="http://www.w3.org/2000/svg" version="1.1" viewBox="0 0 500 500">
  <!-- Generator: Adobe Illustrator 30.0.0, SVG Export Plug-In . SVG Version: 2.1.1 Build 123)  -->
  <defs>
    <style>
      .st0 {
        fill: #b16668;
      }

      .st1 {
        fill: #263238;
      }

      .st2 {
        fill: #152133;
      }

      .st3 {
        fill: #fff;
      }

      .st4 {
        fill: #ffa8a7;
      }

      .st5 {
        fill: #111b28;
      }

      .st6 {
        fill: #f28f8f;
      }

      .st7 {
        fill: #e0e0e0;
      }

      .st8 {
        fill: #d7a829;
      }

      .st9 {
        fill: #fafafa;
      }
    </style>
  </defs>
  <g id="freepik--Plant--inject-220">
    <g id="freepik--Plants--inject-220">
      <path class="st8" d="M419.2,399.72c-.08.02-.16.02-.24,0l-6.71-2.57c-.19-.07-.33-.24-.37-.44-.05-.19-4.26-19.35,10.93-43.07,10.84-16.92,26.22-27,35-23,3.42,1.42,5.83,4.54,6.36,8.21.39,4.22-1.42,8.34-4.79,10.91-.78.64-2,1.49-3.51,2.58-9.44,6.7-31.55,22.39-36.14,46.9-.03.17-.14.33-.29.42-.07.04-.16.06-.24.06ZM413,396.07l5.74,2.21c5-24.59,27-40.25,36.49-47,1.51-1.07,2.7-1.92,3.45-2.53,3.01-2.3,4.64-5.98,4.32-9.75-.46-3.25-2.62-6.01-5.67-7.23-8.27-3.8-23,6.09-33.53,22.53-13.8,21.57-11.29,39.21-10.8,41.77Z"/>
      <path class="st8" d="M415.39,398.26h-.08c-.33-.04-.58-.33-.55-.67,2.28-29,24.32-54.7,37.91-59,.31-.1.64.07.74.38,0,0,0,.02,0,.03.1.32-.07.66-.39.77-13.44,4.23-34.92,30.47-37.03,57.93-.02.32-.29.57-.61.56Z"/>
      <path class="st8" d="M412.49,397.15c-.09.02-.17.02-.26,0l-4.53-2c-.19-.08-.32-.24-.36-.44,0-.28-5.62-28.79,4-65.33,4.91-18.61,17.39-35.93,29.66-41.18,5.9-2.53,11.44-2.32,16.46.61,2.84,1.65,4.51,3.82,5,6.45,1.25,7.24-6.83,16.95-15.39,27.23-6,7.19-12.17,14.63-15.33,21.44-.13.3-.48.43-.78.3,0,0-.01,0-.02-.01-.3-.16-.42-.52-.28-.82,3.22-7,9.47-14.47,15.51-21.72,8.36-10.05,16.27-19.54,15.12-26.22-.39-2.26-1.82-4.09-4.37-5.58-4.69-2.73-9.88-2.92-15.42-.54-12,5.12-24.14,22.1-29,40.38-9,34.18-4.64,61.22-4.06,64.43l4.23,1.83c.31.14.45.5.32.81-.09.2-.28.34-.5.36Z"/>
      <path class="st8" d="M413,379.44h0c-.34-.02-.6-.3-.58-.64,0,0,0,0,0,0,.79-45.09,28.38-78.26,36.12-83.63.27-.18.64-.11.82.15,0,0,0,.01.01.02.18.28.11.66-.16.86-7.63,5.29-34.82,38-35.6,82.63,0,.33-.26.6-.59.61,0,0-.01,0-.02,0Z"/>
    </g>
  </g>
  <g id="freepik--Shadow--inject-220">
    <path id="freepik--shadow--inject-220" class="st7" d="M258.05,365.41c-37.3,21.54-37.3,56.46,0,78,37.3,21.54,97.79,21.53,135.1,0s37.3-56.46,0-78-97.79-21.54-135.1,0Z"/>
  </g>
  <g id="freepik--Character--inject-220">
    <g id="freepik--character--inject-220">
      <g id="freepik--Bottom--inject-220">
        <path class="st5" d="M286.27,434.06s-27.66-10-36.67-24.58c.83-16.2,2.39-45.29,2.63-45.09l52.13,5.39-11,45.71-7.09,18.57Z"/>
        <path class="st2" d="M286.27,427.61v6.45c19.37,7.94,55.46,8.1,78.88.45,15.9-5.19,29.72-14,34.45-19.43l-1.78-45.29h-141c0,6.91,4.26,27.23,9.14,35.69s20.31,22.13,20.31,22.13Z"/>
      </g>
      <g id="freepik--Top--inject-220">
        <g id="freepik--Arm--inject-220">
          <path class="st2" d="M269,195.93c-13.75,0-22,2.52-34,2.57-30.83.13-47.87,1.93-47.87,1.93,0,0-40,11.31-37.17,21.13,3.68,12.89,28.32,21.59,60.51,26.27,33.25,4.83,53.83,7.44,53.83,7.44l4.7-59.34Z"/>
          <path class="st4" d="M277.06,111.38c1.09-4.4,2.23-8.78,3.32-13.18.54-1.83.88-3.71,1-5.61.12-1.92-.38-3.82-1.44-5.42-.79-1.1-2.41-2-3.45-1.09-.3.28-.54.62-.7,1-3.48,6.67-6.96,13.33-10.43,20-1.08,2.19-2.31,4.3-3.68,6.32-1.37,1.94-3.07,3.76-3.92,6s-4.12,8.31-5.22,10.43c-2.35,4.55-6.23,9.7-14.33,15.27-12.67,8.7-32.42,15.18-62.82,31-10,5.18-17.58,16.68-22.37,26.76-8.3,17.45-2.43,26.26,10.51,26.12,10.33-.12,24.48-2.85,39.19-13.58,24.28-17.76,39.59-38.18,52.28-46.28,3.14-2.31,8.67-3.65,10.64-5.32,3.86-3.28,5.61-6.78,6.54-11.75s.61-10.09.83-15.13c.19-4.12.08-8,.94-12.06.93-4.51,2.05-9,3.11-13.48Z"/>
          <path class="st6" d="M264.41,108.84h0l.93-1.77,10.43-20c.16-.38.4-.72.7-1,1-.87,2.66,0,3.45,1.09,1.06,1.6,1.56,3.5,1.44,5.42-.12,1.9-.46,3.78-1,5.61-1.09,4.4-2.23,8.78-3.32,13.18s-2.18,9-3.13,13.48c-.86,4.07-.75,7.94-.94,12.06-.22,5,.1,10.15-.83,15.13s-2.68,8.47-6.54,11.75c-1.55,1.03-3.23,1.86-5,2.47-4.08-8.23-1.93-21.8-.17-34,1.48-10.18-1.98-14.59,3.98-23.42Z"/>
        </g>
        <g id="freepik--Chest--inject-220">
          <path class="st9" d="M252.24,258.07c.27-43.92,19.45-56.38,27.05-59.72l31-6.9c9.54.85,50.34,12.12,61.57,14.64,7.23,1.63,19.09,5.81,23.22,28.78,3.36,18.66,3.85,26.19,1.65,60.11-2.18,29.85-1.44,59.84,2.2,89.54-49,16.13-103.15,22.7-140.39-4.6.73-6.18-4.12-57.45-4.76-72.59s-1.62-37.33-1.54-49.26Z"/>
          <path class="st8" d="M296.92,197c-4.06,2.14-22.51,20-24.9,49.58-4.38,54.48-4.29,102.68-4.29,149.82-6.49-3.16-17.11-10.67-20.25-19.17,1-18.57,1-56.79,1.3-69.85.47-18.6,1-48.77,2.13-60.73,1.47-15.91,4.93-39.56,18-50.67,14.07-1.42,27.41-2.52,27.41-2.52l.6,3.54Z"/>
          <g id="freepik--Head--inject-220">
            <path class="st2" d="M336.76,178.26c1.78-10.64,12.33-21.76,17.08-31,4.57-9,7.29-15.9,6.74-24.3-.32-5-3.47-11.72-7.17-13.12,4.23-18.52-9.68-27.07-17.06-28.81-3.46-.71-6.87-1.65-10.21-2.81-4-1.67-4.93-4.89-8.17-7.63-5.57-4.71-15-4.79-18.5,2.37-3.71-4.78-8.74-4.65-14.54-3.16-5.53,1.43-8.14,6.12-7.56,11.22-7.77-4.32-14.88,1.18-15.58,5.74-.52,3.37.2,6.21-2,9.23-2.47,3.4-7.16,3.36-8.59.62-.79,4.78,1.08,8.42,6.27,8.14-1.78,2.69-2.26,6.04-1.33,9.13,1.29,3.93,4.87,6.64,9,6.81.55,2.63.67,5,2.33,7.29,1.56,2.3,3.66,4.18,6.11,5.49,7.86,3.72,16.55,4.91,25,6.64l10,2.06c.59.11,3.62.29,4,.81l24.18,35.28Z"/>
            <path class="st4" d="M349.61,164.47c-7.46,4.49-10.9-.37-10.9-.37l.85,38.84s-16,20.66-44.65,22.09c-2.06-6.27-2-17.3-.45-20.74l-.34-15.6c-4.22.09-8.45-.09-12.65-.53-8.34-1.12-15.4-7.7-17.81-16.72-2.51-9.43-3.23-24.86-1.21-36.18.55-2.89.7-5.83.43-8.76-.83-7.75.56-12.27,2.54-18.79,9.16-7.41,35.12-9,54.94,3-4.22,10.1-1.53,20.36,7.05,24.82-.39,3.18-.77,11.22,4.46,11,3.77-.11,4-4.84,7.86-9s12.87-5.31,16.38.81c4.89,8.57,1.68,21.22-6.5,26.13Z"/>
            <path class="st6" d="M294.12,188.69c13.23-1.6,23.27-3.06,30.14-12.66,4.3-6,7.93-15.7,7.93-15.7,0,0-1.32,11.67-5.62,19.67-3.31,6.13-11.48,11.25-32.21,13.09l-.24-4.4Z"/>
            <path class="st1" d="M299.16,136.34c.13,2.26,2.06,3.99,4.32,3.86,2.26-.13,3.99-2.06,3.86-4.32-.12-2.21-1.98-3.92-4.19-3.87-2.29.08-4.08,2-4,4.29,0,.01,0,.02,0,.04Z"/>
            <path class="st1" d="M309.34,125.62l-7.95-6.07c-1.65,2.28-1.2,5.45,1,7.2,2.15,1.62,5.21,1.19,6.83-.97.04-.05.08-.11.12-.16Z"/>
            <path class="st1" d="M276.91,118.48l-7.78,6.41c1.59,2.15,4.62,2.61,6.77,1.02.08-.06.16-.12.23-.18,2.15-1.83,2.49-5.01.78-7.25Z"/>
            <path class="st1" d="M269,135.46c.13,2.26,2.07,3.98,4.33,3.85,2.26-.13,3.98-2.07,3.85-4.33-.13-2.2-1.98-3.91-4.19-3.86-2.3.09-4.09,2.02-4,4.31,0,0,0,.02,0,.03Z"/>
            <path class="st6" d="M276,148.56l13,5.71,3.93-25.4c-4.93-1.71-11.07,9.98-16.93,19.69Z"/>
            <path class="st0" d="M288.68,168.2c2.12,1.4,3.41-.72,7.12-2.26s7.21.29,6.71-2.79c-.52-3.26-6.25-5.14-9.95-3.6s-6.29,7.05-3.88,8.65Z"/>
            <path class="st6" d="M295.51,165.63c-.34.15-.68.33-1,.52-.23-2.45,1.5-4.65,3.93-5,1.12-.24,2.29.03,3.18.75.21.31.37.64.48,1,.77,3-2.88,1.19-6.59,2.73Z"/>
          </g>
          <path class="st8" d="M391.48,209.86l-21.69-13.93-30.42-1.73s-8,18.11-8.51,80.11c-.55,67.44,1.26,139,1.26,139,0,0,51.48-.11,70.8-29,0,0-2.17-20.55-3.29-54.52-.66-20.07-1.56-33.52.61-50.7,4.05-31.93.76-52.24-8.76-69.23Z"/>
          <path class="st2" d="M333.33,225.62l.18-29.14s4.91-5.66,5.71-8.93l-.11-5.15s2.63-.05,3,3.6.62,9.61.62,9.61l-9.4,30.01Z"/>
          <path class="st2" d="M278.08,222l3.44-24.38s6-6.49,9.7-8.91h2.9l.23,10.33c-6.63,6.72-12.12,14.48-16.27,22.96Z"/>
          <path class="st6" d="M281.7,117.36c-.26-.49-.6-.92-1-1.3-.77-.75-1.81-1.15-2.89-1.11-.48,0-.19.74.16.79s.48.11.71.17h0l.15.06.13.06h.06c.17.09.33.19.5.3h0l.13.1.22.21.07.07.07.08c.07.07.13.15.18.23l.16.23.05.09.06.12.12.27.06.15s.05.15,0,.09v.09s0,.1,0,.15c.04.23.1.46.18.68.07.13.17.25.29.33.11.12.32.27.46.14.81-.45.43-1.36.13-2Z"/>
          <path class="st6" d="M300.6,116.24c-.53.21-1,.56-1.36,1-.34.36-.64.76-.9,1.18-.27.42-.49.87-.66,1.34-.1.25-.17.51-.21.77,0,.12,0,.25,0,.37,0,.08,0,.17,0,.25.03.15.08.31.14.45.06.23.48.6.67.28.11-.15.2-.31.28-.48,0-.14.11-.27.16-.41s.15-.45.24-.67c.15-.42.34-.83.57-1.22.23-.35.48-.69.76-1,.38-.34.72-.72,1-1.14.18-.44-.35-.82-.69-.72Z"/>
        </g>
        <g id="freepik--arm--inject-220">
          <path class="st2" d="M369.79,195.93c25.86-.31,34.81,2.74,54.34,8.08,9.26,2.53,36.86,9.13,36.86,9.13l25.29,28.05-6.36,14.81c-8.83,4.87-32.8,1.75-59,4.67-10.46,1.17-16.85,5.16-20.05,12.6-1.1,2.57-18.69,4.72-27-16-7.52-18.77-9.07-42.34-4.08-61.34Z"/>
          <path class="st6" d="M381.11,151.41c-1-5.35-.17-12.88-.83-18s-3.52-13.1-4-19.57-1.39-7.12-3.86-6.58c-2,.44-4.69,4.82-3.71,11.69.68,5.05,4.82,28.93,12.4,32.46Z"/>
          <path class="st4" d="M366.5,111.44c1.71,3.57,4.73,7,6.26,10.66,1.61,3.81,1.46,5.64,2.84,13.1,1.08,5.81,1,11,7.91,18,12.28,12.46,56.2,29.84,82.58,51.26,10.07,8.16,15.64,15.63,19.14,28,4.61,16.32-1.85,25.35-11.73,24.73-11.9-.75-32.75-6.8-47.77-21.47-24.84-24.26-48.38-48.31-61.5-59.65-3.2-3.15-7.52-6.87-9.49-9.1-3.69-4.17-5.17-10.34-5.72-15.88-.92-9.17-4.6-16.16-4.29-20.33-.68-3.93-3-10-5.05-16.29-1.19-3.57-2.49-6.66-1-8.48.35-.36.76-.66,1.2-.9,0,0-.13-.47-.16-.67-.33-1.31-.53-2.65-.58-4-.12-1.31.26-2.62,1.06-3.66.32-.34.7-.6,1.13-.78,0,0-.13-.36-.28-.84-.43-1.29-.57-2.65-.42-4,.14-1.38.85-2.63,1.95-3.47,1.14-.81,2.68-.81,3.82,0,.38.34.72.72,1,1.15l2.28,3.12c1.6-1.23,2.64-.43,4.06.79,1.74,1.5,3.21,3.28,4.8,4.92,1.46,1.35,2.62,3,3.39,4.84,1.51,2.94,3.12,5.93,4.57,8.95Z"/>
          <path class="st0" d="M354.74,167c-4.54-4.63-5.74-11.48-6.4-17.64s-3.7-12.21-3.61-18.57c.08,1.58.37,3.14.88,4.63,1.41,4.54,3,9,3.64,13.81.61,6.22,1.57,12.67,5.49,17.77h0Z"/>
          <path class="st0" d="M349.73,91.84c1.89,2.38,6.22,7.58,8,10,2.51,3.45,3.41,7.87,4.92,11.82l1.3,4c.15.67.4,1.32.75,1.92.48.5,1.02.95,1.6,1.33-.65-.31-1.25-.7-1.79-1.18-.89-1.15-1.91-4.52-2.53-5.87-1.29-3.28-2.46-6.62-3.84-9.85-2.53-4-5.94-8-8.37-12.16h-.04Z"/>
          <path class="st0" d="M341.36,96c.66-.31,1.4-.38,2.11-.2.74.22,1.19,1,1.56,1.49.8,1.13,1.66,2.25,2.5,3.37,1.8,2.2,3.27,4.65,4.36,7.28,1.81,4.57,3.79,9.13,4.87,13.94.18.68.24,1.39.18,2.1-.17-1.38-.55-2.73-1.11-4-2.7-6.44-4.73-13.18-8.88-18.89-.77-1.17-1.56-2.33-2.31-3.53-.35-.65-.63-1.24-1.26-1.51-.65-.21-1.35-.21-2,0l-.02-.05Z"/>
          <path class="st0" d="M339.91,105.1c2.27-.75,3.38,2.32,4.35,3.82,2.63,4.45,4.06,9.46,5.61,14.36.27,1.02.31,2.08.11,3.11.1-2.1-1-3.88-1.71-5.81s-1.47-3.83-2.2-5.75-1.63-3.73-2.45-5.59c-.85-1.51-1.52-4.48-3.71-4.14h0Z"/>
        </g>
      </g>
    </g>
  </g>
  <g id="freepik--speech-bubble-1--inject-220">
    <g id="freepik--speech-bubble--inject-220">
      <g id="freepik--speech-bubble--inject-2201" data-name="freepik--speech-bubble--inject-220">
        <path class="st3" d="M206.59,148.25c15.37-11.5,25-27.94,25-46.19,0-34.79-34.94-63-78-63s-78,28.2-78,63,34.93,63,78,63c10.51.03,20.95-1.7,30.88-5.13,13.3,9,36.82,5.29,44.58-6.22-9.33,2.01-17.89,0-22.46-5.46Z"/>
        <path class="st2" d="M153.56,166c-43.58,0-79-28.7-79-64s35.45-64,79-64,79,28.71,79,64c0,17.46-8.93,34.29-24.54,46.33,4.43,4.52,12.26,6.18,20.75,4.33.55-.09,1.06.28,1.15.83.04.24-.01.5-.15.7-3.83,5.68-11.65,9.88-20.9,11.22s-18.19-.28-24.65-4.45c-9.87,3.35-20.23,5.06-30.66,5.04ZM153.56,40c-42.48,0-77,27.81-77,62s34.55,62,77,62c10.39.06,20.72-1.63,30.55-5,.3-.11.63-.07.89.11,6,4,14.84,5.7,23.66,4.42,7.55-1.1,14-4.16,17.93-8.36-8.65,1.21-16.46-1.09-20.77-6.25-.17-.21-.25-.49-.22-.76.03-.27.17-.52.39-.68,15.64-11.7,24.61-28.25,24.61-45.39,0-34.21-34.6-62.02-77.04-62.02v-.07Z"/>
      </g>
    </g>
  </g>
  <g id="freepik--Lines--inject-220">
    <path id="freepik--lines--inject-220" class="st7" d="M417.4,92.3c.35-1.14-1.41-1.19-2-.91-2.21,1-3.95,3.59-5.54,5.35-2,2.24-4.04,4.47-6.13,6.68-3.77,4.06-7.68,8-11.53,12-.38.44-.46,1.06-.2,1.58.22.47.63.83,1.12,1,.74.35,1.62.21,2.22-.35,3.91-4.13,7.68-8.38,11.49-12.6,1.88-2.08,3.75-4.17,5.6-6.27,1.7-1.87,4.21-4.04,4.97-6.48ZM423.77,122.73c2.45-.6,5.74-1,7.75-2.53.94-.73-.48-1.77-1.15-1.9-2.37-.46-5.29.69-7.6,1.23-2.95.68-5.89,1.35-8.84,2-5.42,1.18-10.88,2.19-16.31,3.26-.57.17-.97.68-1,1.27-.08.51.05,1.03.36,1.44.4.71,1.19,1.11,2,1,5.57-1.16,11.09-2.5,16.63-3.79,2.71-.66,5.44-1.32,8.16-1.98ZM399.13,140c5.42,1.74,10.88,3.3,16.34,4.91,2.68.8,5.37,1.57,8.07,2.34,2.42.68,5.46,2,8,1.63,1.18-.18.46-1.78-.06-2.23-1.83-1.57-5-2-7.22-2.68-2.9-.86-5.79-1.73-8.68-2.63-5.29-1.64-10.54-3.46-15.79-5.21-.59-.15-1.21.09-1.54.6-.32.41-.46.92-.39,1.43,0,.81.51,1.54,1.27,1.84Z"/>
  </g>
</svg>