<?xml version="1.0" encoding="UTF-8"?>
<svg id="Layer_1" xmlns="http://www.w3.org/2000/svg" version="1.1" viewBox="0 0 500 500">
  <!-- Generator: Adobe Illustrator 30.0.0, SVG Export Plug-In . SVG Version: 2.1.1 Build 123)  -->
  <defs>
    <style>
      .st0 {
        fill: #263238;
      }

      .st1, .st2, .st3, .st4, .st5 {
        fill: #fff;
      }

      .st6 {
        fill: #f0f0f0;
      }

      .st2, .st3, .st4, .st7, .st8, .st9, .st10, .st5, .st11 {
        isolation: isolate;
      }

      .st2, .st11 {
        opacity: .6;
      }

      .st12, .st10, .st5 {
        opacity: .2;
      }

      .st13 {
        fill: #ffa8a7;
      }

      .st14 {
        fill: #f28f8f;
      }

      .st3, .st15, .st9 {
        opacity: .3;
      }

      .st16 {
        fill: #e0e0e0;
      }

      .st4 {
        opacity: .5;
      }

      .st17 {
        fill: #d7a829;
      }

      .st7 {
        opacity: .4;
      }

      .st18 {
        fill: #142033;
      }

      .st8 {
        opacity: .7;
      }

      .st19 {
        fill: #ebebeb;
      }

      .st20 {
        fill: #703838;
      }

      .st21 {
        fill: #f5f5f5;
      }

      .st22 {
        fill: #0e1623;
      }

      .st23 {
        fill: #fafafa;
      }

      .st24 {
        fill: #945959;
      }
    </style>
  </defs>
  <g id="freepik--Floor--inject-47">
    <ellipse class="st21" cx="250.48" cy="356.58" rx="221.04" ry="130.23"/>
  </g>
  <g id="freepik--Shadows--inject-47">
    <ellipse class="st16" cx="98.52" cy="357.37" rx="26.26" ry="15.47"/>
    <ellipse class="st16" cx="173.28" cy="398" rx="44.57" ry="26.26"/>
    <ellipse class="st16" cx="298.23" cy="323.09" rx="44.57" ry="26.26"/>
    <ellipse class="st16" cx="345.69" cy="348.53" rx="37.4" ry="22.04"/>
    <ellipse class="st16" cx="393.13" cy="379.78" rx="44.57" ry="26.26"/>
    <ellipse class="st16" cx="223.99" cy="276.4" rx="37.4" ry="22.04"/>
  </g>
  <g id="freepik--table-1--inject-47">
    <path class="st17" d="M242.26,285.49c-10.09,5.83-26.45,5.83-36.54,0s-10.09-15.27,0-21.1,26.45-5.82,36.54,0,10.09,15.28,0,21.1Z"/>
    <path class="st7" d="M242.26,285.49c-10.09,5.83-26.45,5.83-36.54,0s-10.09-15.27,0-21.1,26.45-5.82,36.54,0,10.09,15.28,0,21.1Z"/>
    <path class="st17" d="M242.26,285.49c-10.09,5.83-26.45,5.83-36.54,0-5-2.91-7.56-6.73-7.56-10.55h0v3.13h0c.09,3.75,2.61,7.48,7.55,10.33,10.09,5.83,26.45,5.83,36.54,0,5.17-3,7.68-6.91,7.56-10.81v-2.38c-.11,3.73-2.62,7.44-7.55,10.28Z"/>
    <path class="st11" d="M242.26,285.49c-10.09,5.83-26.45,5.83-36.54,0-5-2.91-7.56-6.73-7.56-10.55h0v3.13h0c.09,3.75,2.61,7.48,7.55,10.33,10.09,5.83,26.45,5.83,36.54,0,5.17-3,7.68-6.91,7.56-10.81v-2.38c-.11,3.73-2.62,7.44-7.55,10.28Z"/>
    <path class="st17" d="M220.51,177.87v95.13c0,4.48,7,4.48,7,0v-95.13c0-4.48-7-4.49-7,0Z"/>
    <path class="st17" d="M215.89,163.27v21.16h0c0,1.2.79,2.39,2.37,3.31,3.6,1.83,7.87,1.83,11.47,0,1.58-.92,2.37-2.11,2.37-3.31v-21.16h-16.21Z"/>
    <path class="st8" d="M215.89,163.27v21.16h0c0,1.2.79,2.39,2.37,3.31,3.6,1.83,7.87,1.83,11.47,0,1.58-.92,2.37-2.11,2.37-3.31v-21.16h-16.21Z"/>
    <ellipse class="st17" cx="223.99" cy="136.63" rx="47.45" ry="27.4"/>
    <ellipse class="st7" cx="223.99" cy="136.63" rx="47.45" ry="27.4"/>
    <path class="st17" d="M257.55,156c-18.53,10.7-48.58,10.7-67.11,0-9.27-5.35-13.9-12.36-13.9-19.38h0v5.76h0c.17,6.87,4.79,13.72,13.88,19,18.53,10.7,48.58,10.7,67.11,0,9.48-5.47,14.1-12.69,13.88-19.86v-4.36c-.19,6.84-4.81,13.62-13.86,18.84Z"/>
    <path class="st11" d="M257.55,156c-18.53,10.7-48.58,10.7-67.11,0-9.27-5.35-13.9-12.36-13.9-19.38h0v5.76h0c.17,6.87,4.79,13.72,13.88,19,18.53,10.7,48.58,10.7,67.11,0,9.48-5.47,14.1-12.69,13.88-19.86v-4.36c-.19,6.84-4.81,13.62-13.86,18.84Z"/>
  </g>
  <g id="freepik--Plant--inject-47">
    <path class="st17" d="M99.77,323.7s-14.56-14.21-6.28-38c4.65-13.35,20-23.15,28.8-24.07-2.9,3.45-5.22,7.35-6.85,11.55l-11,7.33,10.15-3.17-2.2,8.66s-9.44,5.71-10.84,6.95l10.18-2.66s-.73,24.58-11.96,33.41Z"/>
    <path class="st7" d="M99.77,323.7s-14.56-14.21-6.28-38c4.65-13.35,20-23.15,28.8-24.07-2.9,3.45-5.22,7.35-6.85,11.55l-11,7.33,10.15-3.17-2.2,8.66s-9.44,5.71-10.84,6.95l10.18-2.66s-.73,24.58-11.96,33.41Z"/>
    <path class="st1" d="M99.77,323.7s-7.54-29.75,3.61-47.1c0,0-13.07,15.31-3.61,47.1Z"/>
    <path class="st22" d="M116.43,327.73l-17.81-.22h-.19l-17.81.22s-.2,21.95,6.56,30.88h0c1.87,2.37,6.24,4,11.34,4s9.5-1.68,11.36-4.06c6.75-8.89,6.55-30.82,6.55-30.82Z"/>
    <ellipse class="st18" cx="98.52" cy="327.73" rx="17.9" ry="9.61"/>
    <path class="st0" d="M98.52,325.18c6.16,0,11.38,2,13.22,4.71.45-.63.7-1.38.71-2.16,0-3.79-6.23-6.87-13.93-6.87s-13.92,3.08-13.92,6.87c.01.78.26,1.53.71,2.16,1.84-2.73,7.05-4.71,13.21-4.71Z"/>
    <path class="st16" d="M98.52,325.18c-6.16,0-11.37,2-13.21,4.71,1.84,2.74,7,4.72,13.21,4.72s11.38-2,13.22-4.72c-1.84-2.73-7.06-4.71-13.22-4.71Z"/>
    <path class="st17" d="M98.74,331.08s-6.9-.27-12.82-9.43c-2.44-3.78-3.61-5.77-3.61-5.77l9.61-.71-10.77-2.69-5.09-7.79,9-.66s-6.67-2.34-11.42-2.37c0,0-8.25-14.57-10.67-16.65,12.59.79,24.32,6.63,32.54,16.19,13.56,16.04,5.25,30.29,3.23,29.88Z"/>
    <path class="st1" d="M98.74,331.08s4.32-26-23.22-41.63c0,0,28.58,13.73,23.22,41.63Z"/>
    <path class="st17" d="M98.74,331.08s6.25.41,12.46-7.3c2.56-3.18,3.8-4.86,3.8-4.86l-8.6-1.55,10-1.42,5.32-6.54-8-1.45s6.23-1.47,10.52-1c0,0,8.81-12.37,11.19-14-11.44-.49-22.6,3.68-30.93,11.54-13.77,13.12-7.61,26.76-5.76,26.58Z"/>
    <path class="st10" d="M98.74,331.08s6.25.41,12.46-7.3c2.56-3.18,3.8-4.86,3.8-4.86l-8.6-1.55,10-1.42,5.32-6.54-8-1.45s6.23-1.47,10.52-1c0,0,8.81-12.37,11.19-14-11.44-.49-22.6,3.68-30.93,11.54-13.77,13.12-7.61,26.76-5.76,26.58Z"/>
    <path class="st1" d="M98.74,331.08s-1.44-23.86,24.88-35.37c0,0-27.08,9.7-24.88,35.37Z"/>
  </g>
  <g id="freepik--character-2--inject-47">
    <path class="st18" d="M302.85,306s-1.78,1-2.11,4.79-3.74,10.89,4.4,11.21,7,.71,10.34,2.05,10.5,4.34,16.22.3-.88-6.19-3.26-7-8.49-3.15-12-5.84-4-3.55-4-3.55l-9.59-1.96Z"/>
    <path class="st18" d="M276.59,315.47s-1.4.4-1.47,3.2-2.27,7,.73,9.56,3.45,2.2,5.27,6.07,6,9.12,14.73,7.19,3.23-7.17,2.48-7.94-9.25-9.21-10.19-12c-.5-1.54-1.14-3.02-1.9-4.45l-9.65-1.63Z"/>
    <path class="st13" d="M276.54,312v5.14s.62,2.43,5.41,2.43c2.56,0,4.24-1.53,4.29-2.43v-5.65l-9.7.51Z"/>
    <path class="st13" d="M302.76,302.78v5.15s.62,2.42,5.4,2.42c2.57,0,4.25-1.53,4.29-2.43v-5.65l-9.69.51Z"/>
    <path class="st18" d="M317.38,182.54l3.69,59.53c.17,2.81.07,5.62-.32,8.41l-7.59,55.08s-6.1,2.71-11.25-1.57l-3-44c-.25-3.73.27-7.47,1.52-10.99l1.17-3.33-10.65-59,26.43-4.13Z"/>
    <path class="st22" d="M310.08,198.12s-1.8,7-10.8,11.39l-1.81,13.27-3.9-21.6,16.51-3.06Z"/>
    <path class="st18" d="M313,184.94s1.27,11.28-7.44,18.57c-2.41,2.14-5.36,3.57-8.53,4.15l-2.87,41.84-7,65.37s-4.22,3.53-12,0l-3.69-49c-.41-5.49.58-11,2.89-16l.17-.35c-1.96-21.75-2.66-43.59-2.1-65.42l40.57.84Z"/>
    <path class="st13" d="M324.92,141.65l3.16,6.27s14.16,5,22.52,4.84l3.63,8.8c-6.71.5-13.45.57-20.17.22-9.85-.63-11.31-.88-14.22-4.62s-7.24-10.61-7.24-10.61l12.32-4.9Z"/>
    <path class="st13" d="M350.6,152.76c.77-.52,1.48-1.12,2.13-1.78.88-.94,1.4-1.9,5.07-2.8,2.37-.59,2.82-2.45,4.1-1.83s-.93,4.82-3.47,5.52c1.83.2,3.68-.05,5.39-.72,2.15-1.09,5.53-2.58,6.89-2.11s1.56,8-3.37,10.83-15.11,1.5-15.11,1.5l-1.63-8.61Z"/>
    <path class="st17" d="M302.88,113.44h0c4.56-.91,9.17,1.27,11.36,5.37l12,22.39s-3.24,6.8-13.64,7.17l-9.72-34.93Z"/>
    <path class="st5" d="M302.88,113.44h0c4.56-.91,9.17,1.27,11.36,5.37l12,22.39s-3.24,6.8-13.64,7.17l-9.72-34.93Z"/>
    <path class="st13" d="M272.9,152.73l-3.58,9.2-3.75,31.12-9,2.85s-.76-18.72-.38-31.3c.1-3.37.73-6.7,1.86-9.87l2.52-7.09,12.33,5.09Z"/>
    <path class="st17" d="M286,116.63l-11.36,3.25-2.2,31.73v32.47s7.06,6.12,23.83,6.12c7.7-.16,15.14-2.85,21.16-7.66v-40.89c0-3.66,1.46-24.62-14.5-28.21l-2.73.54-14.2,2.65Z"/>
    <path class="st4" d="M286,116.63l-11.36,3.25-2.2,31.73v32.47s7.06,6.12,23.83,6.12c7.7-.16,15.14-2.85,21.16-7.66v-40.89c0-3.66,1.46-24.62-14.5-28.21l-2.73.54-14.2,2.65Z"/>
    <path class="st17" d="M281,118s3.79,3.75,1.06,14.28c-2.23,7.97-4.92,15.81-8.06,23.47-5.79,1.09-11.72-1.08-15.42-5.67l8.07-22.34c1.42-3.89,4.61-6.86,8.59-8l5.76-1.74Z"/>
    <path class="st5" d="M281,118s3.79,3.75,1.06,14.28c-2.23,7.97-4.92,15.81-8.06,23.47-5.79,1.09-11.72-1.08-15.42-5.67l8.07-22.34c1.42-3.89,4.61-6.86,8.59-8l5.76-1.74Z"/>
    <path class="st13" d="M265.57,193.05c.47.8,1.02,1.54,1.64,2.23.88.95,1.8,1.52,2.47,5.25.43,2.4,2.26,3,1.56,4.21s-4.75-1.24-5.29-3.83c-.31,1.82-.18,3.68.38,5.44.95,2.21,2.21,5.68,1.66,7s-8.08,1-10.59-4.07-.52-15.17-.52-15.17l8.69-1.06Z"/>
    <path class="st18" d="M313.21,76.71s2.66,2.72,2.66,9.84-5.87,13.32-5.87,13.32v-22.82l3.21-.34Z"/>
    <path class="st18" d="M313.21,78.57c2.34-1.34,3.88-3.74,4.1-6.43.38-4.55-2.29-2.92-3.22-2.52s-3.67,1.4-3.67,1.4c0,0,2.54-2.64,1-4.4-1.12-1.31-6.5,2.8-13.32,3.6s-13.34.74-15.25,6.83c0,0-6.58,1.33-5,12.86s6,18.18,8.08,18.08l27.28-29.42Z"/>
    <path class="st13" d="M286,116.63l5.94,3.76c2.68,1.7,6.08,1.77,8.83.18h0c1.71-.99,2.29-3.18,1.3-4.89-.27-.47-.65-.87-1.1-1.18l-.77-.52v-16.4h-14.2v19.05Z"/>
    <path class="st14" d="M300.15,114c-6.29-.88-11.42-5.47-13-11.62v-4.8h13v16.42Z"/>
    <path class="st13" d="M303.46,74.31s13.51.51,11.07,22.26c-1.14,10.23-2,15.89-10.74,15.89s-21.67-6.6-20.79-24.16,20.46-13.99,20.46-13.99Z"/>
    <polygon class="st14" points="304.82 92.24 304.82 99.87 309.29 98.5 304.82 92.24"/>
    <path class="st18" d="M298.29,93.56c0,.86.7,1.56,1.56,1.56.86,0,1.56-.7,1.56-1.56s-.7-1.56-1.56-1.56h0c-.86,0-1.55.68-1.56,1.54,0,0,0,.01,0,.02Z"/>
    <path class="st18" d="M308.52,92.47c0,.86.69,1.56,1.55,1.57.86,0,1.56-.69,1.57-1.55,0-.86-.69-1.56-1.55-1.57,0,0,0,0,0,0-.86,0-1.55.69-1.56,1.55Z"/>
    <path class="st18" d="M312,89.24l-3-1.81s1.17-1.21,2.33-.48c.67.55.94,1.46.67,2.29Z"/>
    <path class="st18" d="M299,88.71l-2.74,2.23s-.74-1.51.34-2.35c.75-.46,1.7-.41,2.4.12Z"/>
    <path class="st14" d="M304.11,103.5s-5.54-1.43-4.19-1.12c0,0-.28,2.21,1.57,2.63,1.12.18,2.22-.45,2.62-1.51Z"/>
    <path class="st18" d="M313.21,78.57s-4.31,4-15.36,3.21-10.1,2.22-8.85,7.41c.83,3.56.9,13-1.85,8.39h-5.47v-10.93c0-7.73,6.27-14,14-14h11.31l6.22,5.92Z"/>
    <path class="st13" d="M287.24,97s-.55-5.23-4.18-5.33c-4-.11-4.53,3.73-4.48,5.09.15,3.59,3.05,7.47,8.46,7.62l.2-7.38Z"/>
    <path class="st18" d="M282.88,77.05s-2.8-3.71-1-5.25,2.62,4.84,2.62,4.84l-1.62.41Z"/>
    <path class="st18" d="M283.11,78.28s-4.65-.06-4.76-2.42,5.43.88,5.43.88l-.67,1.54Z"/>
  </g>
  <g id="freepik--table-2--inject-47">
    <ellipse class="st17" cx="345.69" cy="341.66" rx="25.84" ry="14.92"/>
    <ellipse class="st7" cx="345.69" cy="341.66" rx="25.84" ry="14.92"/>
    <path class="st17" d="M364,352.21c-10.09,5.83-26.45,5.83-36.54,0-5.05-2.91-7.57-6.73-7.57-10.55h0v3.13h0c.09,3.75,2.61,7.47,7.56,10.33,10.09,5.83,26.45,5.83,36.54,0,5.16-3,7.67-6.91,7.55-10.81v-2.38c-.14,3.73-2.66,7.44-7.54,10.28Z"/>
    <path class="st11" d="M364,352.21c-10.09,5.83-26.45,5.83-36.54,0-5.05-2.91-7.57-6.73-7.57-10.55h0v3.13h0c.09,3.75,2.61,7.47,7.56,10.33,10.09,5.83,26.45,5.83,36.54,0,5.16-3,7.67-6.91,7.55-10.81v-2.38c-.14,3.73-2.66,7.44-7.54,10.28Z"/>
    <path class="st17" d="M342.21,244.59v95.17c0,4.47,7,4.48,7,0v-95.17c0-4.48-7-4.49-7,0Z"/>
    <path class="st17" d="M337.58,230v21.16h0c0,1.2.79,2.39,2.38,3.31,3.6,1.82,7.86,1.82,11.46,0,1.58-.92,2.37-2.11,2.37-3.31v-21.16h-16.21Z"/>
    <path class="st8" d="M337.58,230v21.16h0c0,1.2.79,2.39,2.38,3.31,3.6,1.82,7.86,1.82,11.46,0,1.58-.92,2.37-2.11,2.37-3.31v-21.16h-16.21Z"/>
    <ellipse class="st17" cx="345.69" cy="203.35" rx="47.45" ry="27.4"/>
    <ellipse class="st7" cx="345.69" cy="203.35" rx="47.45" ry="27.4"/>
    <path class="st17" d="M379.24,222.73c-18.53,10.7-48.58,10.7-67.11,0-9.26-5.35-13.9-12.37-13.9-19.38h0v5.76h0c.17,6.87,4.79,13.72,13.88,19,18.53,10.7,48.58,10.7,67.11,0,9.49-5.47,14.1-12.69,13.88-19.86v-4.36c-.19,6.8-4.81,13.61-13.86,18.84Z"/>
    <path class="st11" d="M379.24,222.73c-18.53,10.7-48.58,10.7-67.11,0-9.26-5.35-13.9-12.37-13.9-19.38h0v5.76h0c.17,6.87,4.79,13.72,13.88,19,18.53,10.7,48.58,10.7,67.11,0,9.49-5.47,14.1-12.69,13.88-19.86v-4.36c-.19,6.8-4.81,13.61-13.86,18.84Z"/>
    <path class="st17" d="M333.62,174h-21.33l1.92,22.57h0c.25,1.45,1.2,2.69,2.54,3.31,3.9,1.97,8.49,1.97,12.39,0,1.34-.62,2.29-1.86,2.55-3.31h0l1.93-22.57Z"/>
    <path class="st16" d="M335,172.81v-1.81h-.42c-.69-1.33-1.77-2.41-3.1-3.11-4.7-2.71-12.31-2.71-17,0-1.33.7-2.41,1.78-3.1,3.11h-.42v1.8c0,1.78,1.18,3.56,3.52,4.91,4.7,2.71,12.31,2.71,17,0,2.33-1.34,3.52-3.12,3.52-4.9Z"/>
    <ellipse class="st19" cx="322.96" cy="171.13" rx="12.02" ry="6.94"/>
    <path class="st16" d="M332.59,170.38v-1.38h-.34c-.55-1.07-1.42-1.94-2.48-2.49-4.28-2.17-9.35-2.17-13.63,0-1.06.55-1.93,1.42-2.48,2.49h-.34v1.44c0,1.43.94,2.85,2.82,3.94,4.28,2.17,9.35,2.17,13.63,0,1.89-1.14,2.83-2.57,2.82-4Z"/>
    <path class="st21" d="M329.77,173c-4.28,2.17-9.35,2.17-13.63,0-3.76-2.18-3.76-5.7,0-7.87,4.28-2.17,9.35-2.17,13.63,0,3.76,2.14,3.76,5.66,0,7.87Z"/>
    <path class="st6" d="M328.2,171.82c-3.3,1.67-7.19,1.67-10.49,0-2.8-1.62-2.9-4.2-.29-5.88l.29-.18c.63-.35,1.3-.63,2-.83,2.83-.79,5.84-.49,8.46.83,2.93,1.67,2.93,4.39.03,6.06Z"/>
    <path class="st16" d="M317.71,166.62c3.3-1.67,7.19-1.67,10.49,0,1.06.51,1.84,1.46,2.14,2.6.21-1.23-.5-2.51-2.14-3.46-3.3-1.67-7.19-1.67-10.49,0-1.64,1-2.35,2.23-2.13,3.46.29-1.14,1.07-2.09,2.13-2.6Z"/>
    <path class="st16" d="M321.68,166.91l-2.16,1.37-2.1-1.51v-.83l.29-.18c.63-.35,1.3-.63,2-.83v.63l1.97,1.35Z"/>
    <path class="st17" d="M378.52,186.53h-21.32l1.91,22.57h0c.26,1.45,1.2,2.68,2.54,3.3,3.9,1.98,8.5,1.98,12.4,0,1.34-.62,2.28-1.85,2.54-3.3h0l1.93-22.57Z"/>
    <path class="st16" d="M379.88,185.29v-1.79h-.42c-.69-1.33-1.77-2.41-3.1-3.1-4.69-2.71-12.31-2.71-17,0-1.33.69-2.41,1.77-3.1,3.1h-.43v1.81c0,1.77,1.18,3.55,3.53,4.91,4.69,2.71,12.31,2.71,17,0,2.36-1.36,3.53-3.15,3.52-4.93Z"/>
    <ellipse class="st19" cx="367.86" cy="183.61" rx="12.02" ry="6.94"/>
    <path class="st16" d="M377.49,182.87v-1.44h-.33c-.56-1.06-1.43-1.93-2.49-2.49-4.28-2.17-9.34-2.17-13.62,0-1.06.56-1.93,1.43-2.49,2.49h-.34v1.45c0,1.42.95,2.84,2.83,3.93,4.28,2.17,9.34,2.17,13.62,0,1.89-1.09,2.83-2.52,2.82-3.94Z"/>
    <path class="st21" d="M374.67,185.45c-4.28,2.17-9.34,2.17-13.62,0-3.77-2.17-3.77-5.69,0-7.87,4.28-2.17,9.34-2.17,13.62,0,3.76,2.18,3.76,5.7,0,7.87Z"/>
    <path class="st6" d="M373.1,184.3c-3.3,1.68-7.19,1.68-10.49,0-2.8-1.61-2.9-4.2-.29-5.87.09-.07.19-.13.29-.18.63-.36,1.3-.64,2-.83,2.82-.8,5.84-.5,8.46.83,2.93,1.67,2.93,4.38.03,6.05Z"/>
    <path class="st16" d="M362.61,179.11c3.3-1.67,7.19-1.67,10.49,0,1.06.51,1.84,1.46,2.14,2.6.21-1.24-.5-2.51-2.14-3.46-3.3-1.67-7.19-1.67-10.49,0-1.63.95-2.34,2.22-2.13,3.46.29-1.14,1.07-2.09,2.13-2.6Z"/>
    <path class="st16" d="M366.58,179.4l-2.16,1.37-2.1-1.51v-.83c.09-.07.19-.13.29-.18.63-.36,1.3-.64,2-.83v.58l1.97,1.4Z"/>
  </g>
  <g id="freepik--character-3--inject-47">
    <path class="st24" d="M434.63,196.32l6.62,18.68c1.34,3.8.74,8.02-1.62,11.29l-10.05,13.95-7.18-10.47,6.6-10.36-5.87-12.63v-4.91l11.5-5.55Z"/>
    <path class="st17" d="M419,174s5-.5,7.6,3.5,8,18.78,8,18.78c-3.23,3.82-7.75,6.31-12.71,7l-2.89-29.28Z"/>
    <path class="st3" d="M419,174s5-.5,7.6,3.5,8,18.78,8,18.78c-3.23,3.82-7.75,6.31-12.71,7l-2.89-29.28Z"/>
    <path class="st18" d="M427.42,377.26c-.81,1.54-2.41,2.51-4.15,2.52-3.19-.13-5.98-2.21-7-5.24-1.06-2.65-2.76-5-4.94-6.84-1.05-1.12-5.08-4.75-5.5-8.6-.02.25-.02.5,0,.75,0,4.09,4.43,8.08,5.54,9.26,2.19,1.85,3.88,4.22,4.93,6.89,1.02,3.02,3.81,5.1,7,5.23,1.74,0,3.34-.97,4.15-2.51.3-.66.38-1.4.23-2.11-.06.23-.15.44-.26.65Z"/>
    <path class="st17" d="M426.69,366.92l.21.23c.54.59.81,1.38.74,2.18-.08.87-.16,2.12-.16,3.47,0,2.52.57,3.08-.06,4.46-.81,1.54-2.41,2.51-4.15,2.52-3.19-.13-5.98-2.21-7-5.24-1.06-2.65-2.76-5-4.94-6.84-1.11-1.18-5.54-5.17-5.54-9.25-.09-2.96,2.24-5.44,5.21-5.53.06,0,.13,0,.19,0,2,0,4.72,1.18,6.81,4.21s8.69,9.79,8.69,9.79Z"/>
    <g class="st15">
      <path d="M426.69,366.92l.21.23c.54.59.81,1.38.74,2.18-.08.87-.16,2.12-.16,3.47,0,2.52.57,3.08-.06,4.46-.81,1.54-2.41,2.51-4.15,2.52-3.19-.13-5.98-2.21-7-5.24-1.06-2.65-2.76-5-4.94-6.84-1.11-1.18-5.54-5.17-5.54-9.25-.09-2.96,2.24-5.44,5.21-5.53.06,0,.13,0,.19,0,2,0,4.72,1.18,6.81,4.21s8.69,9.79,8.69,9.79Z"/>
    </g>
    <path class="st19" d="M412.94,362.38c-.09,0-.18-.03-.26-.08-.23-.15-.3-.45-.16-.68.11-.16,2.54-3.92,6.68-3.5.28.03.48.27.45.55-.03.28-.27.48-.55.45h0c-3.55-.37-5.72,3-5.74,3-.09.15-.24.25-.42.26Z"/>
    <path class="st19" d="M415.38,364.79c-.26,0-.49-.2-.49-.47,0-.12.04-.23.11-.32.1-.16,2.52-3.93,6.68-3.51.27.03.46.27.44.54-.03.27-.27.47-.53.44,0,0,0,0,0,0-3.55-.36-5.73,3-5.75,3.05-.08.17-.26.28-.45.27Z"/>
    <path class="st23" d="M417.52,356.47c-1.46-2.07-3.77-3.37-6.3-3.55-2.97-.02-5.38,2.37-5.4,5.34,0,.06,0,.13,0,.19.18,2.16,1.04,4.21,2.46,5.85.12-3.01,1.96-5.69,4.74-6.87,1.43-.57,2.96-.9,4.5-.96Z"/>
    <path class="st24" d="M431.48,312.2l-1.4-4.39,2.52-36.9-22.6,7.54.93,32.26c.05,1.71.19,3.41.43,5.1l4.64,32.79c.81.8,3.09,2.57,7.43,2.57,2.32.03,4.54-.93,6.11-2.64l3.15-20.11c.86-5.43.45-10.98-1.21-16.22Z"/>
    <path class="st17" d="M423.47,351.17c-4.34,0-6.62-1.77-7.43-2.57l2.79,19.74c5.44,3.72,7.64,0,7.64,0l3.11-19.81c-1.57,1.71-3.79,2.67-6.11,2.64Z"/>
    <path class="st4" d="M423.47,351.17c-4.34,0-6.62-1.77-7.43-2.57l2.79,19.74c5.44,3.72,7.64,0,7.64,0l3.11-19.81c-1.57,1.71-3.79,2.67-6.11,2.64Z"/>
    <path class="st17" d="M390.15,377.18l-4.09,3s-10.38.81-13.31,1-6.61,1.52-7.41,4.69c-.7,2.76.82,5.62,8.07,6.54s9.75-.77,15,.12c5,.85,12,3.14,15.44-2.68.37-.62.47-1.36.28-2.05-.39-1.49-1.1-4.23-1.27-5.2-.23-1.35-.43-5.86-1.71-5.86s-11,.44-11,.44Z"/>
    <path class="st9" d="M390.15,377.18l-4.09,3s-10.38.81-13.31,1-6.61,1.52-7.41,4.69c-.7,2.76.82,5.62,8.07,6.54s9.75-.77,15,.12c5,.85,12,3.14,15.44-2.68.37-.62.47-1.36.28-2.05-.39-1.49-1.1-4.23-1.27-5.2-.23-1.35-.43-5.86-1.71-5.86s-11,.44-11,.44Z"/>
    <path class="st18" d="M404.16,389c-.05.3-.15.59-.31.85-3.45,5.82-10.47,3.53-15.45,2.68-5.24-.89-7.74.8-15-.12-5.77-.74-7.9-2.69-8.19-4.85-.32,2.56,1.47,5.07,8.19,5.93,7.25.92,9.75-.77,15,.12,5,.84,12.34,3.48,15.79-2.34.25-.74.24-1.54-.03-2.27Z"/>
    <path class="st17" d="M388,358.48l2.12,18.7s.42,4,5.69,4,5.31-4.49,5.31-4.49l1.36-18.24-14.48.03Z"/>
    <path class="st4" d="M388,358.48l2.12,18.7s.42,4,5.69,4,5.31-4.49,5.31-4.49l1.36-18.24-14.48.03Z"/>
    <path class="st24" d="M382.46,285v17.17c0,2.82.15,5.63.45,8.43l5.09,47.88s8.14,6.16,14.48,0l2.52-28.89c.57-6.51-.21-13.06-2.3-19.25h0l5-25.38-25.24.04Z"/>
    <path class="st23" d="M376.23,380.92c-1.45.11-2.72.2-3.48.24-2.92.18-6.61,1.52-7.41,4.69-.7,2.76.82,5.62,8.07,6.54-1.32-8.56,2.82-11.46,2.82-11.47Z"/>
    <path class="st19" d="M377.8,386c-.27,0-.49-.21-.5-.48,0,0,0,0,0-.01.1-2.03,1.02-3.93,2.56-5.26.21-.17.52-.14.69.07,0,0,0,0,0,0,.17.21.14.53-.07.7-1.3,1.15-2.09,2.76-2.19,4.49,0,.27-.22.49-.49.49Z"/>
    <path class="st19" d="M382.09,385.77c-.27,0-.49-.22-.49-.49.1-2.03,1.02-3.92,2.55-5.25.2-.17.5-.15.68.04,0,0,0,0,.01.02.18.2.16.51-.05.69,0,0,0,0-.01,0-1.3,1.14-2.09,2.76-2.2,4.49,0,.27-.22.49-.49.49Z"/>
    <path class="st18" d="M387.93,225.44s-5.47,12.1-5.47,23.47v35.94c8.68,6.47,19.61,9.16,30.3,7.45,17.85-2.94,21.26-8.85,21.26-8.85v-26c0-10.67-2.76-21.16-8.02-30.45l-2.39-4.23-35.68,2.67Z"/>
    <path class="st17" d="M387.93,219v6.45s4.84,4.31,17.66,4.31,18-7,18-7l-2.59-4.2-33.07.44Z"/>
    <path class="st9" d="M387.93,219v6.45s4.84,4.31,17.66,4.31,18-7,18-7l-2.59-4.2-33.07.44Z"/>
    <path class="st17" d="M396.64,178.64l-4.64,1.63-8,17.27v12.8l3.87,8.65c5.1,3.64,11.22,5.57,17.49,5.51,10.81,0,15.55-5.94,15.55-5.94,0,0,2.94-13.09,5-21.46s-1.51-20-7-23.06l-7.25,1.19-15.02,3.41Z"/>
    <path class="st24" d="M390.05,206.39s-10.93,17.31-12.63,20.27-6.57,5.5-16.94-5-13.48-14-13.48-14c0,0-13.62-4.76-16.8-8.6s-4.44-9.44-1.82-8.55,16.86,6,18.47,1.66c-.62-1.3-.96-2.72-1-4.16,0-2.16.94-3.93,2.15-3.93s.86,2.17,1.71,3.93,6.14,9,5.24,12.38l15.05,12.16,7.43-14.45,12.62,8.29Z"/>
    <path class="st24" d="M408.23,178.81c-5.24,1.67-11.59-.17-11.59-.17v-17.72h15.13v14.31c-.5,1.72-1.83,3.06-3.54,3.58Z"/>
    <polygon class="st20" points="385.75 149.99 385.75 158 381.07 156.56 385.75 149.99"/>
    <path class="st18" d="M410.45,129.16c-3.12-.82-14-3-23.73,5.07-2.15,1.79-4.61,6.56-5.4,12.52,1.23.9,2.57,1.62,4,2.15l25.13-19.74Z"/>
    <path class="st24" d="M403.62,132.45c-4.77-.53-15.19,1-17.73,13.36s-2.48,22.14,3.86,23.78,21.79-1.39,25.56-17.31-7.04-19.28-11.69-19.83Z"/>
    <path class="st18" d="M390.44,135.45s-1.65,6.47.88,11.54c1.34,2.61,1.54,5.65.54,8.41-.5,1.38-1.24,2.66-2.18,3.79,0,0,5.22-.72,5.22-5,.93,2.41,1.64,4.9,2.12,7.43.43,3,2.25,5.58,7.9,7.15,2.75.76,6.26.41,8.07-.72,0,0,5.54-3.77,7.76-6.85s7-14,2-22.59-17.6-15.72-32.31-3.16Z"/>
    <path class="st24" d="M394.9,154.2s.63-5.25,4.28-5.3c4-.06,4.5,3.81,4.43,5.18-.19,3.6-2.38,7.12-8.71,5.11v-4.99Z"/>
    <path class="st17" d="M420.28,165.56c0,2.3-1.86,4.16-4.16,4.16-2.3,0-4.16-1.86-4.16-4.16s1.86-4.16,4.16-4.16,4.16,1.86,4.16,4.16h0Z"/>
    <path class="st18" d="M416.48,169c-.83-.65-1.42-1.56-1.68-2.58-.34-1.15-.05-2.4.76-3.29.68-.66,1.59-1.03,2.54-1,1.56,0,3.11.23,4.6.7,4.39,1.52,7.81,7.94,3.23,18-1.36,3-1.74,7.42.85,9,.17.09.23.29.14.46-.06.12-.19.19-.32.18-3.83,0-12.14-1.07-9.72-9.85,2.12-7.77.86-10.62-.4-11.62Z"/>
    <path class="st18" d="M390.44,135.45s-4.21,3.14-3.5,13.94c1.35.67,2.86.96,4.36.85,0,0-.43-5.85,1.89-10.37l-2.75-4.42Z"/>
    <path class="st17" d="M392,180.27c-3.56,1.49-6.6,4.01-8.71,7.24-2.38,3.69-5.89,10.59-5.89,10.59,2.92,4.35,7.48,7.34,12.63,8.29,0,0,3.63-6.16,4.67-7.68s5.61-12.86-1.15-19l-1.55.56Z"/>
    <path class="st3" d="M392,180.27c-3.56,1.49-6.6,4.01-8.71,7.24-2.38,3.69-5.89,10.59-5.89,10.59,2.92,4.35,7.48,7.34,12.63,8.29,0,0,3.63-6.16,4.67-7.68s5.61-12.86-1.15-19l-1.55.56Z"/>
  </g>
  <g id="freepik--character-1--inject-47">
    <path class="st22" d="M170.36,376.81v.19c-.03,1.92-.42,3.81-1.17,5.58-.56,1.4-.83,2.89-.81,4.4v6.17c0,.55-.45,1-1,1h0c-.55,0-1-.45-1-1v-9.51l3.98-6.83Z"/>
    <path class="st22" d="M167.2,370.51s-3.31,2.44-3.31,8.89-4.79,12.11-7.22,13.57-7.82-2-7.82-2c0,0-5.73,4.86-5.73,7.06s2.8,4,9.28,3.08,11.86-1.83,12.87-8.84c1.18-8.2,1.22-9.25,3.69-11.95s1.53-8.32-1.76-9.81Z"/>
    <path class="st24" d="M168.21,353.67l-1.06,15.7s-.86,24.36-12.55,24.36h-6.08c-.27,0,0-3.93,0-3.93,0,0,6.71-9.77,7.21-19.47l-.6-16.66h13.08Z"/>
    <path class="st18" d="M167.15,369.37s-2.67,1.93-3.36,8.88c-.76,7.77-4.86,12.12-7.33,13.57s-7.94-2-7.94-2c0,0-5.82,4.87-5.82,7.06s2.85,4,9.42,3.09,10.89-2.07,12.1-9,1.24-8.62,3.75-11.32,4.14-5.28-.82-10.28Z"/>
    <path class="st18" d="M160.3,233l-6,54.22c-1.07,9.63-1.38,19.32-.91,29l1.78,37.46s7,4.93,13.08,0l4.85-27.45c.84-4.75.49-9.63-1-14.21h0l11.07-34.33-5.34-43.59-17.53-1.1Z"/>
    <path class="st22" d="M163.43,249.5s3,8.67,11.5,11.46l3.66,30.78,4.53-14.06-3.45-28.18h-16.24Z"/>
    <path class="st22" d="M205.08,391.86v.14c-.02,1.92-.42,3.81-1.17,5.58-.56,1.4-.83,2.89-.81,4.4v6.17c0,.55-.45,1-1,1h0c-.55,0-1-.45-1-1v-9.51l3.98-6.78Z"/>
    <path class="st22" d="M201.92,385.56s-3.3,2.44-3.3,8.89-4.8,12.11-7.23,13.57-7.81-2-7.81-2c0,0-5.74,4.86-5.74,7.06s2.81,4,9.28,3.08,11.88-1.85,12.88-8.86c1.18-8.2,1.22-9.25,3.69-11.95s1.52-8.29-1.77-9.79Z"/>
    <path class="st24" d="M202.94,368.72l-1.07,15.7s-.86,24.36-12.55,24.36h-6.08c-.27,0,0-3.93,0-3.93,0,0,6.72-9.77,7.21-19.47l-.6-16.66h13.09Z"/>
    <path class="st18" d="M201.87,384.42s-2.67,1.93-3.35,8.88c-.76,7.77-4.87,12.12-7.34,13.57s-7.94-2-7.94-2c0,0-5.82,4.87-5.82,7.06s2.85,4,9.43,3.09,10.88-2.07,12.09-9,1.25-8.62,3.75-11.32,4.15-5.28-.82-10.28Z"/>
    <path class="st18" d="M195.42,232.7s13.32,14.69,13.32,31.37-3.74,52.36-3.74,52.36l1.06,2.64c1.69,4.2,2.26,8.77,1.67,13.26l-4.81,36.45s-5.45,5-13.09,0l-4-49.13-9.65-62.39c-4.89-1.33-9.3-4.02-12.72-7.76v-17.16l31.96.36Z"/>
    <path class="st22" d="M160.1,226.49l.2,6.49s4.11,3.61,16.68,3.61,18.44-3.59,18.44-3.59v-7l-35.32.49Z"/>
    <path class="st24" d="M168.3,183.5c-2.7.31-10.37-.78-14.81,10.36s-8.4,22.3-8.4,22.3l-8.15-8.45s-9.54-14.31-11.8-12.71-1.45,4.16-.81,6,3,7.58,3.81,9.15,10.55,24,19.32,24c5.87,0,12.31-19.79,12.31-19.79l8.53-30.86Z"/>
    <path class="st17" d="M198.75,204.05c-.07.46-.13.92-.2,1.38-2,14.33-3.13,20.52-3.13,20.52-6.52,2.61-13.47,3.97-20.49,4-11.5,0-14.83-3.45-14.83-3.45l-1.1-11.78s-4.55-3.44-4.55-11.44,13.88-19.62,13.88-19.62l4.16-.2,14.3.51,9.83.87,1.38.16s2.89,3.73.75,19.05Z"/>
    <path class="st18" d="M191.6,142c1.08-1.25,1.57-2.9,1.36-4.54-.23-3,2.64-.83,2.87.91s-1.54,4.33-3.19,4.9l-1.04-1.27Z"/>
    <path class="st18" d="M192.65,142.56c1.65.08,3.25-.55,4.4-1.73,2.25-2.05,2.29,1.56,1.06,2.83s-4.35,1.45-5.82.5l.36-1.6Z"/>
    <path class="st18" d="M202.58,170c-1.65-1.56-2.57-3.73-2.53-6,.16-4.92-.48-12.25-4.6-18.41-6.91-10.35-15.77-9.68-23-9s-15.39-2.31-17.64,1.58c-4,7,1.27,9,1.27,9-3.5,8.1,4.85,10.09,4.85,10.09l4.23,11.4c-.78-.3-1.62-.41-2.46-.34-3.02.33-5.27,2.96-5.12,6,.16,3.09,2.79,5.46,5.88,5.3.6-.03,1.18-.16,1.74-.37.94,1.9,2.88,3.11,5,3.13.94,0,1.87-.23,2.7-.68,1.97-1.15,4.19-1.78,6.47-1.83h2.37c2.27.06,4.49.68,6.46,1.82,2.73,1.49,6.15.49,7.64-2.24.08-.14.15-.28.21-.43,1.3.68,2.83.8,4.22.33,2.96-.94,4.6-4.11,3.66-7.07-.27-.86-.75-1.64-1.39-2.28h.04Z"/>
    <path class="st24" d="M172.46,175.48v8s-9.15,11.06-.23,11.86,14.53-11.34,14.53-11.34v-16.69l-14.3,8.17Z"/>
    <path class="st20" d="M187.22,162.37v.54c-3.34,13.18-12,16.05-14.82,16.72l-.11-20.4,14.5-.07.43,3.21Z"/>
    <path class="st24" d="M175,138.86c-4.74.38-14.61,3.85-14.75,16.36s1.76,22,8.24,22.43,21-5.45,21.64-21.68-10.5-17.49-15.13-17.11Z"/>
    <polygon class="st20" points="170.13 160.24 170.24 167.58 165.92 166.33 170.13 160.24"/>
    <path class="st18" d="M175.45,160c.02.83-.64,1.51-1.47,1.53-.83.02-1.51-.64-1.53-1.47-.02-.83.64-1.51,1.47-1.53,0,0,.01,0,.02,0,.82,0,1.49.65,1.51,1.47Z"/>
    <path class="st18" d="M165.6,159.14c.01.83-.65,1.51-1.48,1.52-.83.01-1.51-.65-1.52-1.48-.01-.83.65-1.51,1.48-1.52.82-.02,1.5.64,1.52,1.46,0,0,0,.01,0,.02Z"/>
    <path class="st17" d="M162.24,156.07l2.9-1.78s-1.14-1.15-2.25-.43c-.66.53-.92,1.41-.65,2.21Z"/>
    <path class="st20" d="M171.63,169.91c1.26-.6,2.48-1.27,3.66-2,0,0,.77,2-.86,2.82-1.01.43-2.18.08-2.8-.82Z"/>
    <path class="st18" d="M163.32,144.06s3.19,17,26.53,15.61c0,0,5.64-17.6-8.72-22s-17.81,6.39-17.81,6.39Z"/>
    <path class="st18" d="M162.24,156.07l2.9-1.78s-1.14-1.15-2.25-.43c-.66.53-.92,1.41-.65,2.21Z"/>
    <path class="st24" d="M186.31,161.25s1.15-4.93,4.63-4.59c3.82.37,3.87,4.1,3.66,5.4-.56,3.41-3.8,6.76-9,6.26l.71-7.07Z"/>
    <path class="st18" d="M183.22,159.18s-.57,4.73,2.83,4.73l.83-4.24-3.66-.49Z"/>
    <path class="st20" d="M145.09,216.16c1.6,1.6,2.95,3.42,4,5.42,0,0,0-3.17-3.34-7.28l-.66,1.86Z"/>
    <path class="st18" d="M132.91,209.57l-11-20.85c-.28-.48-.12-1.09.35-1.37.2-.12.42-.16.65-.13l12.49,1.16c.61.06,1.15.44,1.41,1l10.82,21.89c.27.55.04,1.2-.5,1.47-.21.1-.44.14-.67.1l-11.89-2c-.72-.14-1.33-.61-1.66-1.27Z"/>
    <path class="st22" d="M147.67,211.24l-10.82-21.89c-.26-.56-.8-.94-1.41-1l-12.44-1.13c-.55-.06-1.04.33-1.1.88,0,.04,0,.08,0,.12.13-.05.28-.06.42-.05l12.49,1.15c.61.06,1.15.44,1.41,1l10.79,21.88c.08.17.12.36.1.55.56-.23.83-.87.6-1.43-.01-.03-.02-.05-.03-.08Z"/>
    <path class="st24" d="M126.39,197.17l5.63,10.7s12.2,1,11.82-4.52-2.82-5.41-2.82-5.41c0,0-8.17,1.89-14.63-.77Z"/>
    <path class="st24" d="M223.78,225.81c0,4.26-8.05,29.44-8.05,29.44l-7.62-4.32c1.08-4.23,1.66-8.57,1.73-12.93.02-4.04.51-8.07,1.46-12,0,0-4.31-8-12.75-20.57v-.06c-8-11.86-2.61-19.64-1.93-20.53l1.38.16c8.91,1.09,12.06,10.37,15.27,16s10.55,20.56,10.51,24.81Z"/>
    <path class="st24" d="M208.11,250.93c-.74.55-1.53,1.03-2.36,1.43-1.18.54-2.25.72-4.3,3.9-1.32,2.05-3.23,1.88-3,3.29s4.86.68,6.35-1.5c-.4,1.8-1.24,3.47-2.43,4.87-1.73,1.68-4.22,4.4-4.22,5.84s7.06,4.05,11.34.3,6.29-13.81,6.29-13.81l-7.67-4.32Z"/>
  </g>
  <g id="freepik--speech-bubbles--inject-47">
    <path class="st16" d="M369.71,51.87l-41.09-23.72c-3.37-1.94-6.1.12-6.1,4.62v23.93c0,4.49,2.73,9.72,6.1,11.67l3.79,2.18-6.41,13.6,16.51-7.78,27.22,15.72c3.37,2,6.11-.12,6.11-4.62v-23.92c-.02-4.5-2.76-9.73-6.13-11.68Z"/>
    <path class="st17" d="M367.31,63.44c-.09,0-.17-.02-.24-.07l-36.3-20.95c-.24-.14-.32-.45-.18-.69.13-.24.43-.32.67-.19,0,0,0,0,.01,0l36.3,21c.24.14.32.45.17.69-.09.15-.26.25-.43.24v-.04Z"/>
    <path class="st17" d="M367.31,71.09c-.08,0-.17-.02-.24-.06l-36.3-21c-.24-.13-.32-.43-.19-.67,0,0,0,0,0-.01.14-.24.44-.32.68-.19l36.3,21c.24.14.32.45.17.69-.09.15-.26.25-.43.24Z"/>
    <path class="st17" d="M350.6,69.1c-.09,0-.17-.02-.25-.07l-19.58-11.31c-.25-.11-.36-.41-.25-.66.11-.25.41-.36.66-.25.03.01.06.03.09.05l19.58,11.3c.24.14.32.45.19.69-.09.15-.26.25-.44.25Z"/>
    <path class="st16" d="M412.38,91.76l-16.38-9.44c-2-1.17-3.68.07-3.68,2.79v14.43c0,2.71,1.65,5.87,3.68,7l3.78,2.18,3.1,13.34,2.52-10.06,7,4c2,1.17,3.68-.08,3.68-2.79v-14.41c-.02-2.71-1.67-5.87-3.7-7.04Z"/>
    <path class="st17" d="M409.65,102.54c0,3.92-2.76,5.51-6.15,3.55-3.64-2.37-5.92-6.33-6.16-10.66,0-3.92,2.76-5.51,6.16-3.55,3.63,2.37,5.92,6.33,6.15,10.66Z"/>
    <g class="st12">
      <path class="st1" d="M409.65,102.54c0,3.92-2.76,5.51-6.15,3.55-3.64-2.37-5.92-6.33-6.16-10.66,0-3.92,2.76-5.51,6.16-3.55,3.63,2.37,5.92,6.33,6.15,10.66Z"/>
    </g>
    <path class="st1" d="M399.47,95.7c-.13-.08-.22-.2-.27-.34-.07-.21,0-.39.14-.39h1.57l-1.57-1.82c-.14-.14-.2-.35-.14-.54.08-.13.26-.09.4.08l2.11,2.44c.1.11.16.25.17.4,0,.13-.07.21-.17.21h-2.11s-.09-.01-.13-.04Z"/>
    <path class="st1" d="M407.17,100.15c-.07-.03-.13-.09-.17-.15l-2.11-2.44c-.1-.11-.15-.25-.16-.4,0-.13.06-.22.16-.22h2.11c.15,0,.33.18.4.39s0,.39-.13.39h-1.58l1.58,1.82c.15.14.2.35.13.54,0,.13-.12.14-.23.07Z"/>
    <path class="st1" d="M403.5,103.07c-1.98-1.26-3.49-3.15-4.29-5.36-.05-.11-.05-.24,0-.35.05-.07.15-.08.26,0l8,4.65c.12.07.21.19.26.32.05.11.05.24,0,.35-.83,1.32-2.44,1.43-4.23.39ZM400,98.35c.74,1.65,1.95,3.04,3.48,4,1.4.81,2.66.79,3.47,0l-6.95-4Z"/>
    <path class="st17" d="M116.48,196.18l-15.75-5.32c-2.94-18.43-20.26-30.98-38.69-28.04-18.43,2.94-30.98,20.26-28.04,38.69,2.94,18.43,20.26,30.98,38.69,28.04,14.43-2.3,25.74-13.62,28.04-28.04l15.75-5.33Z"/>
    <path class="st2" d="M116.48,196.18l-15.75-5.32c-2.94-18.43-20.26-30.98-38.69-28.04-18.43,2.94-30.98,20.26-28.04,38.69,2.94,18.43,20.26,30.98,38.69,28.04,14.43-2.3,25.74-13.62,28.04-28.04l15.75-5.33Z"/>
    <path class="st18" d="M94.38,216.44c-11.18,14.85-32.28,17.83-47.14,6.65-.64-.48-1.26-.98-1.86-1.51l11.89-4.33,16.08-3.31,5.15-1.47c5.62-1.58,11.66-.07,15.88,3.97Z"/>
    <path class="st18" d="M89.58,181.18s2.62-13.18-9.58-18.52-31.18-3.34-35.35,13.34,6.56,27.17,12.6,29.42l32.33-24.24Z"/>
    <path class="st13" d="M57.25,217.26l1.81,2.86c2.78,4.39,7.77,6.86,12.94,6.41h0c2.78-.27,4.82-2.74,4.55-5.52-.06-.65-.25-1.28-.55-1.86l-2.71-5.21v-20.72h-16.04v24.04Z"/>
    <path class="st14" d="M73.33,212.69c-6.64-2.47-11.98-7.55-14.77-14.06v-5.41h14.77v19.47Z"/>
    <path class="st13" d="M77.08,166.86s15.3.58,12.54,25.22c-1.3,11.59-2.25,18-12.17,18s-24.55-7.48-23.6-27.37,23.23-15.85,23.23-15.85Z"/>
    <polygon class="st14" points="78.96 188.54 78.96 197.19 84.03 195.63 78.96 188.54"/>
    <circle class="st18" cx="73.33" cy="190.04" r="1.76"/>
    <path class="st18" d="M83.15,188.81c0,.98.78,1.77,1.76,1.78.98,0,1.77-.78,1.78-1.76,0-.98-.78-1.77-1.76-1.78,0,0,0,0,0,0-.97,0-1.76.78-1.77,1.75,0,0,0,0,0,.01Z"/>
    <path class="st18" d="M87.06,185.14l-3.44-2s1.32-1.38,2.64-.55c.76.61,1.08,1.62.8,2.55Z"/>
    <path class="st18" d="M72.41,184.55l-3.11,2.53s-.83-1.72.4-2.67c.85-.52,1.92-.46,2.71.14Z"/>
    <path class="st14" d="M81.34,200.69c-1.68.12-3.35-.33-4.74-1.27,0,0-.32,2.5,1.77,3s2.97-1.73,2.97-1.73Z"/>
    <path class="st18" d="M84.92,170.35s-1.67,5.91-14.2,5-11.43,2.53-10.07,8.38c.94,4,1,14.77-2.09,9.51h-6.2v-12.4c0-8.74,7.08-15.83,15.82-15.84h6.2c4.16,0,8.08,1.99,10.54,5.34h0Z"/>
    <path class="st13" d="M58.71,192.59s-.63-5.93-4.74-6c-4.52-.13-5.13,4.22-5.07,5.77.16,4.07,3.45,8.46,9.58,8.63l.23-8.4Z"/>
    <path class="st17" d="M143.25,112.28c-2.25-11.16-9.97-20.44-20.53-24.69-.98-.39-1.98-.72-3-1-5.22-1.54-10.74-1.79-16.08-.72-1.38.27-2.74.63-4.07,1.07-1,.33-1.93.69-2.84,1.09h0c-.26.11-.51.22-.75.34-16.86,7.87-24.15,27.91-16.28,44.76,1.07,2.3,2.4,4.47,3.96,6.47.63.8,1.27,1.56,2,2.3,2.42,2.58,5.23,4.76,8.33,6.47.55.3,1.11.59,1.68.86,1.58.77,3.22,1.41,4.91,1.91,3.56,1.07,7.28,1.54,11,1.39l11.62,25.16-1.17-27.24c1.3-.48,2.58-1.04,3.81-1.68,2.56-1.32,4.94-2.97,7.07-4.92,1.11-.99,2.14-2.06,3.09-3.2,6.62-7.85,9.29-18.3,7.25-28.37Z"/>
    <path class="st2" d="M143.25,112.28c-2.25-11.16-9.97-20.44-20.53-24.69-.98-.39-1.98-.72-3-1-5.22-1.54-10.74-1.79-16.08-.72-1.38.27-2.74.63-4.07,1.07-1,.33-1.93.69-2.84,1.09h0c-.26.11-.51.22-.75.34-16.86,7.87-24.15,27.91-16.28,44.76,1.07,2.3,2.4,4.47,3.96,6.47.63.8,1.27,1.56,2,2.3,2.42,2.58,5.23,4.76,8.33,6.47.55.3,1.11.59,1.68.86,1.58.77,3.22,1.41,4.91,1.91,3.56,1.07,7.28,1.54,11,1.39l11.62,25.16-1.17-27.24c1.3-.48,2.58-1.04,3.81-1.68,2.56-1.32,4.94-2.97,7.07-4.92,1.11-.99,2.14-2.06,3.09-3.2,6.62-7.85,9.29-18.3,7.25-28.37Z"/>
    <path class="st18" d="M129.16,140.4c0,2-1.38,4.25-3.73,6.35-2.74,2.35-5.92,4.14-9.35,5.27-5.18.93-10.51.62-15.55-.9-1.69-.5-3.33-1.14-4.91-1.91-.57-.27-1.13-.56-1.68-.86-3.1-1.71-5.91-3.89-8.33-6.47-.69-.74-1.33-1.5-2-2.3-.73-6.77,4-13.54,5-16.28,1.33-3.91,2.13-18.15,2.29-21.22v-.58c3.18-.66,6.42-1.03,9.67-1.13h.94c6-.08,13.22.91,17.41,5.31,1.32,1.37,2.3,3.04,2.85,4.86.4,1.28.62,2.6.68,3.94.06,1,.12,2,.2,2.92,0,.59.1,1.16.17,1.71v.49c.25,2.41.69,4.8,1.3,7.14.25.94.55,1.88.89,2.79,1.14,3,2.38,4.68,3.18,6.54.64,1.35.97,2.83.97,4.33Z"/>
    <path class="st24" d="M135.91,140.63c-.95,1.14-1.98,2.21-3.09,3.2-2.13,1.95-4.51,3.6-7.07,4.92l-.32-2-2.73-17.38c.81-.03,1.61.01,2.41.14,3.28.46,8.9,2.29,10.42,9.4l.38,1.72Z"/>
    <path class="st18" d="M132.82,143.83c-2.13,1.95-4.51,3.6-7.07,4.92-2.81,1.47-5.82,2.53-8.94,3.14-.24.06-.48.1-.73.13-5.18.93-10.51.62-15.55-.9-1.69-.5-3.33-1.14-4.91-1.91-.57-.27-1.13-.56-1.68-.86-.35-11.62,1.73-16.73,1.73-16.73l1.12-.3c.07,0,.14,0,.21,0,2.85-.69,7-1.4,7-1.4l13.26-.29,5.48-.21c2.01,2.1,3.88,4.33,5.59,6.68,1.79,2.39,3.3,4.99,4.49,7.73Z"/>
    <path class="st18" d="M99.82,86.56s-.69-5.28-1.62-5.31-1.38,4.46-1.38,4.46c0,0-4.21-.92-3.92.36s5.1,3.16,5.1,3.16l1.82-2.67Z"/>
    <path class="st18" d="M90.89,103.52c.11,14.69,13.11,17.37,13.11,17.37l26.14-9.07c1.63-1.34,2.76-3.18,3.23-5.23.43-1.56.64-3.17.62-4.79h0c0-6.18-3.74-13.3-13.38-16.57-2.11-.71-4.3-1.21-6.51-1.48-1.06-.14-2.13-.22-3.2-.25-7.82-.23-13.64,2.67-16.93,7.92-.74,1.19-1.33,2.45-1.77,3.78-.9,2.68-1.34,5.49-1.31,8.32Z"/>
    <path class="st24" d="M104,129.87l.6,1c2.89,5,7.13,9.06,12.25,11.73l1.66.86c.82.4,1.82.06,2.22-.76.11-.22.16-.46.17-.7h0c-.02-4.01-1.08-7.95-3.09-11.42l-.59-1v-19h-13.22v19.29Z"/>
    <path class="st20" d="M104,113.42v.48c2.2,6.76,6.96,12.39,13.26,15.68v-19h-12.93l-.33,2.84Z"/>
    <path class="st24" d="M117,88.47c4.69.6,14.33,4.5,13.91,16.92s-2.76,21.81-9.22,21.91-20.57-6.37-20.5-22.52,11.26-16.9,15.81-16.31Z"/>
    <polygon class="st20" points="121.84 110.44 120.91 117.68 125.31 116.92 121.84 110.44"/>
    <path class="st0" d="M115.61,109.49c-.05.83.58,1.54,1.41,1.59.83.05,1.54-.58,1.59-1.41s-.58-1.54-1.41-1.59c-.83-.05-1.54.58-1.59,1.41h0Z"/>
    <path class="st0" d="M125.44,109c-.05.82.57,1.53,1.39,1.58.82.05,1.53-.57,1.58-1.39.05-.82-.57-1.53-1.39-1.58,0,0,0,0-.01,0-.82-.05-1.52.57-1.57,1.39Z"/>
    <path class="st0" d="M128.92,106.15l-2.8-1.9s1.18-1.09,2.25-.33c.63.55.85,1.44.55,2.23Z"/>
    <path class="st20" d="M122.06,120.57c-1.42.1-2.82-.28-4-1.07,0,0-.27,2.11,1.5,2.51,1.07.17,2.11-.43,2.5-1.44Z"/>
    <path class="st18" d="M128.39,94.17s-3.94,16.73-27.06,14.3c0,0-4.8-17.74,9.66-21.45s17.4,7.15,17.4,7.15Z"/>
    <path class="st24" d="M104.78,110.2s-.93-5-4.4-4.77c-3.81.2-4,3.9-3.88,5.2.41,3.41,3.47,6.89,8.64,6.62l-.36-7.05Z"/>
    <path class="st24" d="M100.51,150.57v.55c-1.69-.5-3.33-1.14-4.91-1.91-.57-.27-1.13-.56-1.68-.86-3.1-1.71-5.91-3.89-8.33-6.47,1.17-7.17,6.72-9.82,11.18-10.56.07,0,.14,0,.21,0,0,0,5.34,3.21,3.53,19.25Z"/>
  </g>
</svg>