<?xml version="1.0" encoding="UTF-8"?>
<svg id="Layer_1" xmlns="http://www.w3.org/2000/svg" version="1.1" viewBox="0 0 500 500">
  <!-- Generator: Adobe Illustrator 30.0.0, SVG Export Plug-In . SVG Version: 2.1.1 Build 123)  -->
  <defs>
    <style>
      .st0 {
        fill: #b16668;
      }

      .st1 {
        fill: #263238;
      }

      .st2 {
        fill: #152133;
      }

      .st3, .st4, .st5 {
        fill: #fff;
      }

      .st6 {
        fill: #131d2b;
      }

      .st7, .st5 {
        opacity: .2;
      }

      .st8 {
        fill: #ffa8a7;
      }

      .st9 {
        fill: #f28f8f;
      }

      .st4 {
        opacity: .4;
      }

      .st4, .st10, .st11, .st5 {
        isolation: isolate;
      }

      .st10 {
        opacity: .1;
      }

      .st12 {
        fill: #d7a829;
      }

      .st13, .st11 {
        opacity: .3;
      }

      .st14 {
        fill: #1b2a3f;
      }
    </style>
  </defs>
  <g id="freepik--question-marks--inject-135">
    <g id="freepik--question-marks--inject-1351" data-name="freepik--question-marks--inject-135">
      <path class="st12" d="M308.74,53.88c1.6.73,3.08,1.69,4.4,2.85,1.27,1.09,2.34,2.4,3.15,3.86.78,1.4,1.24,2.96,1.35,4.56.1,1.71-.24,3.41-1,4.95-.54,1.23-1.32,2.35-2.3,3.28-.87.8-1.85,1.48-2.91,2-1.03.5-2.11.9-3.21,1.2l-3.11.87c-.94.25-1.85.59-2.73,1-.78.37-1.45.94-1.92,1.67-.23.33-.55.6-.92.76-.35.17-.76.17-1.11,0l-3.91-1.81c-.38-.18-.67-.49-.82-.88-.16-.37-.14-.8.07-1.15.6-1.2,1.45-2.27,2.48-3.13.93-.77,1.96-1.41,3.06-1.9,1.06-.47,2.15-.85,3.27-1.14,1.11-.28,2.15-.56,3.11-.84.88-.24,1.73-.57,2.53-1,.7-.37,1.26-.95,1.59-1.67.61-1.28.55-2.78-.16-4-.86-1.49-2.2-2.64-3.79-3.29-2.92-1.33-5.74-.87-8.46,1.4-.27.26-.59.46-.93.6-.37.09-.76.03-1.08-.16l-4.17-1.92c-.3-.13-.53-.37-.65-.68-.15-.32-.15-.68,0-1,.66-1.27,1.63-2.35,2.81-3.16,1.33-.95,2.82-1.66,4.4-2.09,1.73-.47,3.53-.66,5.32-.57,1.95.09,3.87.56,5.64,1.39ZM297.32,84.05c.37.17.65.48.78.87.17.37.17.79,0,1.16l-2.09,4.53c-.36.75-1.24,1.08-2,.75l-4.43-2c-.74-.36-1.06-1.24-.74-2l2.09-4.53c.36-.75,1.24-1.08,2-.74l4.39,1.96Z"/>
      <path class="st12" d="M307.14,107.39c1.14.4,2.23.95,3.21,1.66.95.66,1.77,1.49,2.42,2.44.62.9,1.04,1.92,1.23,3,.29,2.11-.33,4.25-1.7,5.88-.54.6-1.17,1.12-1.86,1.54-.68.4-1.39.73-2.13,1l-2.08.8c-.63.24-1.23.54-1.8.89-.52.3-.94.74-1.21,1.27-.14.24-.34.45-.58.59-.24.13-.52.15-.77.06l-2.81-1c-.27-.1-.49-.3-.62-.55-.13-.25-.13-.55,0-.8.34-.86.85-1.65,1.5-2.31.6-.59,1.27-1.1,2-1.51.7-.39,1.43-.73,2.18-1,.74-.27,1.43-.53,2.08-.79.59-.22,1.15-.51,1.67-.86.46-.3.81-.74,1-1.26.32-.91.18-1.93-.38-2.72-.69-.96-1.68-1.67-2.82-2-2.04-.75-4.32-.14-5.72,1.52-.17.19-.37.35-.6.48-.24.1-.51.1-.75,0l-3-1c-.22-.07-.4-.23-.5-.43-.1-.21-.1-.46,0-.67.35-.9.92-1.69,1.64-2.33.85-.75,1.83-1.33,2.89-1.73,1.16-.44,2.38-.7,3.62-.75,1.32-.06,2.64.14,3.89.58ZM301.28,128.88c.26.09.48.29.6.54.13.25.15.55.05.81l-1.14,3.25c-.09.27-.28.48-.54.6-.25.12-.54.14-.81.05l-3.17-1.12c-.27-.09-.48-.28-.6-.53-.13-.25-.15-.55-.05-.81l1.12-3.28c.09-.27.28-.48.54-.6.25-.13.54-.15.8-.05l3.2,1.14Z"/>
      <g class="st7">
        <path d="M307.14,107.39c1.14.4,2.23.95,3.21,1.66.95.66,1.77,1.49,2.42,2.44.62.9,1.04,1.92,1.23,3,.29,2.11-.33,4.25-1.7,5.88-.54.6-1.17,1.12-1.86,1.54-.68.4-1.39.73-2.13,1l-2.08.8c-.63.24-1.23.54-1.8.89-.52.3-.94.74-1.21,1.27-.14.24-.34.45-.58.59-.24.13-.52.15-.77.06l-2.81-1c-.27-.1-.49-.3-.62-.55-.13-.25-.13-.55,0-.8.34-.86.85-1.65,1.5-2.31.6-.59,1.27-1.1,2-1.51.7-.39,1.43-.73,2.18-1,.74-.27,1.43-.53,2.08-.79.59-.22,1.15-.51,1.67-.86.46-.3.81-.74,1-1.26.32-.91.18-1.93-.38-2.72-.69-.96-1.68-1.67-2.82-2-2.04-.75-4.32-.14-5.72,1.52-.17.19-.37.35-.6.48-.24.1-.51.1-.75,0l-3-1c-.22-.07-.4-.23-.5-.43-.1-.21-.1-.46,0-.67.35-.9.92-1.69,1.64-2.33.85-.75,1.83-1.33,2.89-1.73,1.16-.44,2.38-.7,3.62-.75,1.32-.06,2.64.14,3.89.58ZM301.28,128.88c.26.09.48.29.6.54.13.25.15.55.05.81l-1.14,3.25c-.09.27-.28.48-.54.6-.25.12-.54.14-.81.05l-3.17-1.12c-.27-.09-.48-.28-.6-.53-.13-.25-.15-.55-.05-.81l1.12-3.28c.09-.27.28-.48.54-.6.25-.13.54-.15.8-.05l3.2,1.14Z"/>
      </g>
      <path class="st12" d="M344.02,111.39c.33.02.64.18.85.44.22.25.33.58.3.91l-.31,4.06c-.02.33-.18.64-.44.85-.24.22-.57.34-.9.31l-4-.31c-.69-.05-1.2-.65-1.15-1.34l.31-4.07c.02-.33.18-.64.44-.85.25-.22.57-.33.9-.3l4,.3ZM344.17,85c1.43.1,2.84.41,4.18.92,1.29.47,2.48,1.17,3.52,2.06,1,.86,1.79,1.92,2.34,3.11.58,1.27.81,2.68.67,4.07-.06,1.1-.34,2.18-.82,3.17-.44.86-1,1.64-1.67,2.33-.65.68-1.35,1.29-2.11,1.84l-2.15,1.56c-.64.46-1.24.99-1.79,1.56-.49.51-.84,1.14-1,1.83-.08.32-.25.61-.48.85-.22.23-.54.34-.86.3l-3.51-.27c-.34-.02-.65-.18-.88-.43-.24-.24-.35-.58-.28-.91.12-1.09.46-2.15,1-3.11.49-.85,1.1-1.63,1.8-2.32.68-.67,1.41-1.27,2.19-1.81.76-.53,1.48-1,2.13-1.54.6-.44,1.16-.94,1.65-1.5.43-.48.69-1.09.74-1.73.1-1.15-.37-2.27-1.26-3-1.08-.89-2.43-1.4-3.84-1.45-2.62-.2-4.65,1-6.08,3.49-.14.27-.32.52-.54.73-.26.17-.57.24-.88.19l-3.74-.29c-.27-.01-.52-.13-.7-.33-.18-.21-.27-.48-.24-.76.14-1.16.57-2.27,1.24-3.23.75-1.11,1.69-2.08,2.78-2.86,1.19-.87,2.51-1.55,3.91-2,1.51-.46,3.1-.63,4.68-.48h0Z"/>
      <g class="st13">
        <path class="st3" d="M344.02,111.39c.33.02.64.18.85.44.22.25.33.58.3.91l-.31,4.06c-.02.33-.18.64-.44.85-.24.22-.57.34-.9.31l-4-.31c-.69-.05-1.2-.65-1.15-1.34l.31-4.07c.02-.33.18-.64.44-.85.25-.22.57-.33.9-.3l4,.3ZM344.17,85c1.43.1,2.84.41,4.18.92,1.29.47,2.48,1.17,3.52,2.06,1,.86,1.79,1.92,2.34,3.11.58,1.27.81,2.68.67,4.07-.06,1.1-.34,2.18-.82,3.17-.44.86-1,1.64-1.67,2.33-.65.68-1.35,1.29-2.11,1.84l-2.15,1.56c-.64.46-1.24.99-1.79,1.56-.49.51-.84,1.14-1,1.83-.08.32-.25.61-.48.85-.22.23-.54.34-.86.3l-3.51-.27c-.34-.02-.65-.18-.88-.43-.24-.24-.35-.58-.28-.91.12-1.09.46-2.15,1-3.11.49-.85,1.1-1.63,1.8-2.32.68-.67,1.41-1.27,2.19-1.81.76-.53,1.48-1,2.13-1.54.6-.44,1.16-.94,1.65-1.5.43-.48.69-1.09.74-1.73.1-1.15-.37-2.27-1.26-3-1.08-.89-2.43-1.4-3.84-1.45-2.62-.2-4.65,1-6.08,3.49-.14.27-.32.52-.54.73-.26.17-.57.24-.88.19l-3.74-.29c-.27-.01-.52-.13-.7-.33-.18-.21-.27-.48-.24-.76.14-1.16.57-2.27,1.24-3.23.75-1.11,1.69-2.08,2.78-2.86,1.19-.87,2.51-1.55,3.91-2,1.51-.46,3.1-.63,4.68-.48h0Z"/>
      </g>
    </g>
  </g>
  <g id="freepik--Character--inject-135">
    <g id="freepik--character--inject-135">
      <path class="st12" d="M349.74,292.01h0c1.16,6.93-2.1,13.86-8.18,17.38l-95.82,50-.28,5.53-4.42,2.47,5.63,3.24,106-61.35-2.93-17.27Z"/>
      <path class="st12" d="M251.53,159.04l-24.5,14.14,104.48,66.06c6.68,4.23,11.25,11.11,12.56,18.91l15.22,98.52c.15.93,1.03,1.55,1.96,1.4.2-.03.4-.1.57-.21h0c.57-.32.9-1,.7-3.35l-8.7-104.69c-.49-5.91-4.26-13-10.28-17.74l-92.01-73.04Z"/>
      <path class="st10" d="M251.53,159.04l-24.5,14.14,104.48,66.06c6.68,4.23,11.25,11.11,12.56,18.91l15.22,98.52c.15.93,1.03,1.55,1.96,1.4.2-.03.4-.1.57-.21h0c.57-.32.9-1,.7-3.35l-8.7-104.69c-.49-5.91-4.26-13-10.28-17.74l-92.01-73.04Z"/>
      <path class="st12" d="M350.74,297.98c1.13,6.78-2.06,13.55-8,17l-89.45,51.69,4.77,9.87,86.4-49.89c3.89-2.23,8.85-.88,11.08,3.01.48.84.81,1.77.97,2.73l-5.77-34.41Z"/>
      <path class="st10" d="M350.74,297.98c1.13,6.78-2.06,13.55-8,17l-89.45,51.69,4.77,9.87,86.4-49.89c3.89-2.23,8.85-.88,11.08,3.01.48.84.81,1.77.97,2.73l-5.77-34.41Z"/>
      <path class="st12" d="M239.51,366.72l-1.21-7.2-90.34-52.13,11-6.33-5.48-3.16-4.1,2.37c-3.9,2.29-8.92.99-11.21-2.91-1.33-2.27-1.49-5.05-.43-7.46l.38-.88-.6,1.38h0l-8.18,18.85,7.11,4.75,6-3.47,97.06,56.19Z"/>
      <path class="st14" d="M240.68,360.89l-92.36-53.37c-3.45-2.25-5.62-6.01-5.84-10.13v-5.44c.22-4.11,2.39-7.87,5.84-10.11l92.36-53.33c3.67-1.86,8-1.86,11.67,0l92.39,53.35c3.44,2.25,5.61,6,5.83,10.11v5.51c-.22,4.11-2.39,7.86-5.83,10.11l-92.37,53.3c-3.67,1.87-8.02,1.87-11.69,0Z"/>
      <path class="st6" d="M242.39,361.63c-.59-.19-1.17-.44-1.71-.75l-92.36-53.36c-3.45-2.25-5.61-6.02-5.83-10.13v-5.45c.21-3.63,1.92-7.01,4.73-9.33-2.07,1.86-1.7,4.34,1.1,6l91.92,53.08,2.15,19.94Z"/>
      <path class="st2" d="M350.55,291.96v5.52c-.21,4.1-2.37,7.86-5.81,10.11l-92.36,53.3c-3.1,1.57-6.7,1.83-10,.73l-2.15-20,.44.25c3.67,1.87,8,1.87,11.67,0l92.4-53.28c2.82-1.61,3.18-4.11,1.1-6,2.81,2.33,4.52,5.73,4.71,9.37Z"/>
      <path class="st14" d="M273.54,247.49l-92.37,53.33c-2.1,1.11-4.48,1.58-6.84,1.35-.35,0-.69-.06-1-.11h-.21l-.61-.11h-.08c-.31-.06-.61-.14-.91-.24-.7-.2-1.37-.48-2-.84l-4.78-2.79c-3.53-2.31-6.04-5.89-7-10l-14-78.4c-.08-.48-.12-.97-.12-1.46v-.57c.08-.98.29-1.95.64-2.87.61-1.7,1.66-3.22,3.04-4.39l.4-.3c.2-.14.41-.28.62-.4l92.36-53.33c3.67-1.84,8-1.84,11.67,0l4.75,2.75c1.04.63,1.98,1.39,2.81,2.28l.47.52c.63.72,1.2,1.49,1.7,2.3.12.17.23.34.33.52l.26.47.36.69c.11.23.22.46.31.69s.16.39.23.58c.05.09.08.18.11.28.06.17.11.34.16.51s.13.45.18.67c.05.16.08.32.11.49l14.05,78.42c.51,3.94-1.29,7.82-4.64,9.96Z"/>
      <path class="st2" d="M160.1,219.15l14,78.41c.65,3.66,3.8,5.13,7,3.26l92.36-53.32c3.36-2.15,5.17-6.05,4.65-10l-14.05-78.4c-.65-3.67-3.8-5.13-7-3.27l-92.32,53.32c-3.36,2.15-5.17,6.05-4.64,10Z"/>
      <path class="st6" d="M178.79,301.77c-1.46.37-2.96.51-4.46.4-.35,0-.69-.06-1-.11s-.54-.08-.82-.14h-.08c-.31-.06-.61-.14-.91-.24-.7-.2-1.37-.48-2-.84l-4.78-2.76c-3.53-2.31-6.04-5.89-7-10l-14-78.4c-.08-.48-.12-.97-.12-1.46v-.57c.08-.98.29-1.95.64-2.87l16.48,9.36c-.65,1.58-.86,3.31-.59,5l14,78.41c.48,2.73,2.35,4.25,4.62,4.06,0,.05,0,.11.02.16Z"/>
      <g id="freepik--character--inject-1351" data-name="freepik--character--inject-135">
        <g id="freepik--Bottom--inject-135">
          <path class="st9" d="M321.38,350.24s-10.59,22.74-11.51,31.87c-1,9.51-3.42,12.55-2.31,23,.25,2.28,1.21,6.86,1.42,8.71.19,1.65-.49,2.93-2.61,3.26-4.18.66-10.68-7.44-13.54-16.06s-6.57-27.91-6.75-30.21c-.05-2.31.52-4.59,1.63-6.61.58-1.19,1.27-2.32,2.07-3.37,1.57-4.08,2.61-11.94,4-17.34l27.6,6.75Z"/>
          <path class="st6" d="M277.57,379.11c-.59.94-1.02,1.98-1.26,3.07-.19,1.9,3.8,8.37,5.38,10.73s3.08,5.3,2.58,11c-.55,6.08,1.86,12.07,5.55,17.28s10.24,11,20.14,14.61c9.9,3.61,13.67-1.28,13.67-1.28,0,0,3.35-4.7,1.58-6.77s-47.64-48.64-47.64-48.64Z"/>
          <path class="st2" d="M289.74,360.83c-.3,0-.84-.13-1.67.78-.32.34-2.37,4.77-4,7.07s-5.84,6.6-6.54,10.43c2,7.56,8.7,13.07,9.41,20.15s.43,15.25,10.82,24.37,21.45,10.56,25.55,8.47,3.95-6.38-1.22-14.79c-5.49-8.93-8.57-27.86-8.57-27.87-.58-3.3.33-8.77-2.82-10.94-1.58-.91-3.33-1.47-5.15-1.62-2-.32-4.29-.6-6,.49-1.46,1.09-2.45,2.7-2.74,4.5-.28,1.78-.67,3.55-1.18,5.28-.21.54-.56,1.13-1.14,1.19-.86.08-1.27-1-1.39-1.88-.67-4.54-1.31-9.08-1.94-13.63-.32-2.21-.64-4.43-.95-6.64-.25-1.71-.93-3.69-.47-5.36Z"/>
          <path class="st8" d="M335.12,382.07s6.41,26.68,12.14,36.8,8.64,15,16.07,22.43c1.61,1.61,5.24,4.58,6.56,5.89,1.18,1.16,1.46,2.59,0,4.18-2.84,3.13-15.72,4.75-23.35-.16s-15.06-16-19.7-20.07c-1.74-1.53-3.38-3.1-5-4.78s-1.25-3.28-1.51-5.19c-.13-.93-.18-3.48-.18-3.48-1.32-4.47-4.51-11.41-6.25-15.74l21.22-19.88Z"/>
          <path class="st6" d="M319.11,438.28c0,1.11.19,2.22.56,3.27.85,1.7,7.68,5.06,10.27,6.23s5.43,2.85,8,7.93c2.78,5.43,8,9.23,13.89,11.68s14.55,3.9,24.83,1.66,10.9-8.36,10.9-8.36c0,0,.34-5.76-2.27-6.57s-66.18-15.84-66.18-15.84Z"/>
          <path class="st2" d="M319.74,416.31c-.27.14-.79.33-1,1.54-.08.46.54,5.3.38,8.11-.18,3-1.44,8.7,0,12.32,5.68,5.35,14.32,6.44,18.68,12.06s8.48,12.68,22.13,14.88,23.78-2.47,26.14-6.42-.05-7.5-8.91-11.87c-9.39-4.65-22.06-19-22.07-19.05-1.74-2.04-3.35-4.19-4.82-6.43-.91-1.36-.89-2.74-3-2.87-1,0-1.99.2-2.91.58-1.89.66-3.75,1.41-5.56,2.25-.94.32-1.74.97-2.23,1.84-.27,1.01-.15,2.07.32,3,1.23,3.33,2.47,6.67,3.7,10-4.16-2-6.88-6-9.66-9.71-1.54-2.17-3.38-4.12-5.46-5.78-.99-.76-2.08-1.38-3.23-1.84-.42-.16-1.53-.25-1.83-.56-.14-.15-.23-.83-.35-.88-.13-.38-.23-.77-.32-1.17Z"/>
          <path class="st12" d="M267.74,245.5c11.65,7.32,51.8,26.82,68.49,40.19,4.82,3.86,7.15,9.93,4.9,21.56-3.12,16.11-15,50.59-15,50.59-1.24,3.08-2.21,6.25-2.92,9.49l-61.47-63.06,6-58.77Z"/>
          <path class="st4" d="M267.74,245.5c11.65,7.32,51.8,26.82,68.49,40.19,4.82,3.86,7.15,9.93,4.9,21.56-3.12,16.11-15,50.59-15,50.59-1.24,3.08-2.21,6.25-2.92,9.49l-61.47-63.06,6-58.77Z"/>
          <path class="st11" d="M321.38,319.91c-1.67-6.29-5.88-9.67-9.62-12.22-14.91-10.16-36-24.9-39.78-27.76,1.63-4,4.34-11.05,1.37-17.9,0,0-1.12,15-9.38,21.18l-.09.15c2.1,2.83,43.63,58.86,61.62,76,.2-.53.41-1,.62-1.48,0,0,.78-2.27,2-5.9-1.6-9.37-4.23-22.59-6.74-32.07Z"/>
          <path class="st12" d="M268.42,243.76h0l-81.8,19c2.35,13.31,3.51,19,8.07,26.28s12.29,15,38.73,27.4c19.92,9.33,44.6,19.54,49.58,21.48,3.75,1.47,4.67,8.7,7.22,17.92,2.85,10.31,7.66,17.54,12,26.05,6.34,12.42,11.09,22.65,11.09,22.65,0,0,17.35.08,26.54-9.25-17.39-63.59-18.68-68.16-19.16-69.72-2.09-6.87-2.17-8.74-11.39-15.79-7.91-6.05-42.92-28.81-42.92-28.81,0,0,11.92-18.68,2.04-37.21Z"/>
          <path class="st4" d="M268.42,243.76h0l-81.8,19c2.35,13.31,3.51,19,8.07,26.28s12.29,15,38.73,27.4c19.92,9.33,44.6,19.54,49.58,21.48,3.75,1.47,4.67,8.7,7.22,17.92,2.85,10.31,7.66,17.54,12,26.05,6.34,12.42,11.09,22.65,11.09,22.65,0,0,17.35.08,26.54-9.25-17.39-63.59-18.68-68.16-19.16-69.72-2.09-6.87-2.17-8.74-11.39-15.79-7.91-6.05-42.92-28.81-42.92-28.81,0,0,11.92-18.68,2.04-37.21Z"/>
        </g>
        <g id="freepik--Top--inject-135">
          <path class="st8" d="M251.41,158.63c15,.11,21.94,9.32,26.43,22.52s6.85,19.83,10.42,30.15c3.78,10.92-16.49,24.3-21.94,21.23l-11.18-28.83c-1.02-9.81-3.73-45.07-3.73-45.07Z"/>
          <path class="st2" d="M250.66,154.97c8.27.4,14.76,3.12,17.78,5.9s5.15,3.62,11.77,23.67c4.78,14.47,5.59,17.79,5.59,17.79,0,0-10.19,12.87-29.84,11.32l-3.38-8-1.92-50.68Z"/>
          <path class="st12" d="M222.1,152.98l-19.36,6.06s-16.33,11.9-18,25.21-2.2,20.38-.36,52.95c1,17.88,6.81,43.7,6.81,43.7,0,0,18.73,5.52,48.89-5.33,35.18-12.65,35.18-26.1,35.18-26.1-4.4-3.82-7.16-9.2-7.69-15-.46-5.79-.57-13.9.13-32.11,1-26.21-.53-41.86-15.21-46.34.05.01-20.9-4.39-30.39-3.04Z"/>
          <path class="st11" d="M222.1,152.98l-19.36,6.06s-16.33,11.9-18,25.21-2.2,20.38-.36,52.95c1,17.88,6.81,43.7,6.81,43.7,0,0,18.73,5.52,48.89-5.33,35.18-12.65,35.18-26.1,35.18-26.1-4.4-3.82-7.16-9.2-7.69-15-.46-5.79-.57-13.9.13-32.11,1-26.21-.53-41.86-15.21-46.34.05.01-20.9-4.39-30.39-3.04Z"/>
          <path class="st6" d="M249.32,82.75c-19.84-4.07-36.56,9-40,21.12-5.37,18.7,12.4,33.14,15.21,43.58l48.33-37.87c.7-7.66-3.7-22.76-23.54-26.83Z"/>
          <path class="st8" d="M236.3,109.06c-6.32-1.37-7.82,1.5-8.19,5.58s-.07,5.6-1,9.83c-.16.92-.5,1.79-1,2.58-.5.8-1.34,1.32-2.28,1.43-1.24.09-1.75-.67-2.13-1.65-.49-1.26-.55-3.41-2.68-5.22s-7.78-3.74-10.41,2.22c-2.72,6.17,2.43,13.73,6.71,15.65,5.71,2.57,9-3.15,9-3.15l-4.49,22.43c9.78,15.49,32.28,11.63,27.81,5.36l4.2-10.18s5.13.69,8.47-.16c3.79-.73,10.27-2.63,12.34-15.68.77-4.87.89-18.35.38-25.85-.43-6.36-1.59-8.56-1.86-9.42-2.63-2.21-11-2.13-15,1.72-6.28-4.16-15.12-3.82-19.87,4.51Z"/>
          <path class="st0" d="M256.74,140.85c-.86-.9-1.98-1.51-3.21-1.75-.55-.13-1.12-.18-1.69-.17-.6-.03-1.2.12-1.72.43-.16.14-.22.35-.18.55,0,.16.14.46.34.47.29,0,.58-.03.86-.07h.92c.5,0,1,.05,1.49.17.49.11.96.28,1.4.51.46.28.91.58,1.34.91.16.14.4.13.54-.03.03-.04.06-.08.07-.12.12-.31.06-.66-.16-.9Z"/>
          <path class="st9" d="M251.84,153.94c-6.9-.57-10.6-1.72-13.59-2.94-5.51-2.25-7.78-2.83-12.51-14.61,0,0,.52,10.42,7,15.74,5.11,4.26,17.7,5.26,17.7,5.26l1.4-3.45Z"/>
          <path class="st2" d="M270.98,106.55c-2.55-7.12-10.33-12.51-14.83-2-6.23-8.9-17-7.66-19.33,3.65-1.36,6.36-1.11,12.95.72,19.19,0,0-7-3.41-7.27-13.17,0,0-1.08,7.08-.23,9.89,0,0-17.24-1.64-22.18-6.88,0,0-4.19-19.5,8.95-24.47,1-8.37,13.72-19,35.48-13.65s25,16.88,25,16.88c-2.1-1.44-4.38-2.58-6.79-3.39,4.13,3.99,6.62,9.37,7,15.09.72,9.68-4.13,14.65-4.13,14.65,0,0-.34-10.09-2.39-15.79Z"/>
          <path class="st6" d="M216.39,94.12l-6.88-5.15c1.49-1.9,4.22-2.28,6.18-.86,1.84,1.4,2.21,4.02.81,5.87-.04.05-.07.09-.11.14Z"/>
          <path class="st6" d="M217.33,93.61l-8.05,3c-.78-2.28.37-4.78,2.62-5.66,2.17-.79,4.58.32,5.37,2.5.02.05.04.11.06.16Z"/>
          <path class="st6" d="M252.74,97.71c.08,0,.16-.02.22-.07.14-.12.16-.33.05-.47-7.39-9.25-27.11-10.13-34.81-5.42-.16.1-.21.3-.11.46.1.16.3.21.46.11,7.33-4.48,26.87-3.57,33.93,5.27.07.08.16.12.26.12Z"/>
          <path class="st1" d="M250.03,123.39c.01,1.46-1.16,2.65-2.61,2.67-1.46.01-2.65-1.16-2.67-2.61-.01-1.42,1.09-2.59,2.51-2.66,1.48-.05,2.72,1.11,2.77,2.59,0,0,0,.01,0,.02Z"/>
          <path class="st1" d="M269.12,121.96c.1,1.43-.98,2.68-2.41,2.78,0,0-.01,0-.02,0-1.35.13-2.56-.85-2.69-2.21-.01-.11-.01-.22-.01-.32-.12-1.41.92-2.66,2.34-2.79,1.41-.12,2.66.92,2.79,2.34,0,.07,0,.13,0,.2h0Z"/>
          <polygon class="st9" points="256.08 117.82 257.25 135.77 266.58 131.83 256.08 117.82"/>
          <path class="st1" d="M241.05,116.57l5.16-4.75c1.3,1.48,1.2,3.73-.23,5.09-1.4,1.27-3.56,1.17-4.83-.23-.03-.04-.07-.07-.1-.11Z"/>
          <path class="st1" d="M265.22,110.84l5.57,4.35c-1.08,1.53-3.19,1.9-4.72.82-.05-.04-.1-.07-.15-.11-1.54-1.23-1.85-3.46-.7-5.06Z"/>
          <path class="st9" d="M220.74,135c2.39-.56,4.23,1.61,4.23,1.61,0,0,1.87-1.21,3,0,.73.77,1.24,1.72,1.47,2.76,0,0,1.94-1.36,3.26.19.81.98,1.41,2.12,1.74,3.34,0,0,1.73-.66,3.22,1.6,1.07,1.63,3.07,4.17,5.62,5.24,2.29,1,1.18,2.41-1.33,3.07s-22.25-16.67-22.25-16.67l1.04-1.14Z"/>
          <path class="st1" d="M199.05,225.86c.92.9,19.95-8.84,21.33-20.79-5.05-1.19-22.25,10.65-21.33,20.79Z"/>
          <path class="st8" d="M202.56,160.23c-14.77,5.47-18.38,17.37-17,29.61,1.06,9.1,6.68,18.71,18.23,37.59s21.12,12.69,21.12,12.69l3.16-14-16.61-41.28s-.86-18.12-8.9-24.61Z"/>
          <path class="st9" d="M218.74,202.8l-2.43-6.12s-8.8,16.56-4.65,27.35l7.08-21.23Z"/>
          <path class="st2" d="M202.74,159.04c-12,4.24-16.37,9.16-18.22,19.7-1.25,7.13-.3,12.25,2.88,22.11,3.29,10.24,11.87,25,11.87,25,.12-5.94,11.49-19.4,21.32-20.79,0,0-5.65-17.13-7.34-21.8s-5.35-18.68-10.51-24.22Z"/>
          <path class="st8" d="M241.19,170.61c1.65-4.58,3-8.52,2.43-11-.75-3.35-2.38-3.94-2.38-3.94.63-.1,1.24-.32,1.79-.65.58-.34.95-.95,1-1.62.07-.88-1.78-1.43-2.52-1.93-2.44-1.65-3.26-2.83-5-5.08-.49-.73-1.25-1.23-2.12-1.37-.54-1.65-1.12-3.15-2.24-3.7-.78-.39-1.68-.43-2.49-.13-.34-1.13-1.07-2.1-2.06-2.73-.83-.32-1.74-.32-2.57,0-.55-.76-1.17-1.46-1.87-2.08-1.38-.89-3.16-.83-4.47.16-1.73,1.19-2.34,3-3.15,4.83-.71,1.61-1.28,3.29-1.71,5-.43,1.6-.76,3.21-1,4.85-.17.94-.14,1.91.11,2.83.74,2,11.49,13.23,11.49,13.23-.93,6.59-8.35,35.09-11.54,44.85-3,9.3-.2,24.53,4.21,27s10.19,2.9,17.46-7.83c8.04-11.91,2.55-49.37,6.63-60.69Z"/>
          <path class="st9" d="M224.95,240.12c2.79-1,5.9-3.47,9.36-8.49-1.59-.35-3.21-.61-4.79-.8-2.7-.34-5-1.54-7.61-2.32-.18-.12-.43-.07-.55.11-.04.06-.06.12-.07.19-.39,1.28-.18,2.66.57,3.77.64.82,1.42,1.53,2.31,2.08.28.19.76.39,1.78,1,.43.26.77.57.69.94-.24,1.15-4.07,1.14-4.78,1.14-2.34-.03-4.66-.43-6.88-1.17-.54-.15-1.06-.37-1.55-.65-.47-.3-.9-.67-1.27-1.09-.52-.53-1.01-1.09-1.47-1.68-1.05-1.56-2.25-3.01-3.59-4.32-.93-.81-2.08-1.32-3.31-1.45v.07c11.57,18.8,21.16,12.67,21.16,12.67Z"/>
          <path class="st0" d="M241.46,155.44c-1.03.19-2.09.17-3.11-.05-1.43-.16-2.73-.91-3.57-2.08,0,0-.16-4.3-.61-3.95s-.33,3.69-.33,3.69c-.66-.35-1.24-.82-1.72-1.39-.91.57.32,1.57,1.59,2.37.73.54,1.51,1.02,2.33,1.42,1.3.5,2.68.76,4.08.78.88-.08,1.75.24,2.36.88-.45-.63-1.02-1.67-1.02-1.67Z"/>
          <path class="st0" d="M235.09,145.16c-.16,0-.32.16-.47.13-1.4-.23-2.91.24-4.92,1.53-1.72,1.3-3.22,2.86-4.45,4.63,0,0,.33-2,3-4.4s5.35-2.84,6.84-1.89Z"/>
          <path class="st0" d="M229.74,140.91l-.06.5c-4.84,1.62-7.28,4.92-9,7.44,0,0,.14-2.22,3.69-5.27,1.53-1.34,3.38-2.26,5.37-2.67Z"/>
          <path class="st0" d="M224.33,137.61c-.87.23-2.08,1.32-3.53,2.94-1.52,1.68-2.73,3.63-3.56,5.74.94-1.52,4.19-6.41,8.11-7.73-.45-.17-.82-.51-1.02-.95Z"/>
          <path class="st0" d="M220.74,163.28c2.71,2.52,6.16,4.1,9.84,4.52-2.08.31-4.19.15-6.2-.46l-3.64-4.06Z"/>
          <path class="st0" d="M239.16,208.55c.17-4.51.21-9,.22-13.54s0-9,.15-13.56c.07-2.26.27-4.52.57-6.76.15-1.13.39-2.24.71-3.33.31-1.1.74-2.14,1.09-3.21.79-2.11,1.34-4.29,1.65-6.52.1-1.11-.06-2.22-.47-3.25-.3-1.04-.98-1.94-1.89-2.53h0c-.09-.04-.12-.15-.08-.24.03-.04.07-.07.11-.09.67-.1,1.32-.35,1.87-.75.26-.2.46-.46.6-.76.14-.27.17-.58.07-.87-.45-.49-1.01-.86-1.64-1.09-.64-.33-1.25-.72-1.81-1.18-1.13-.88-2.14-1.91-3-3.05-.44-.54-.87-1.13-1.32-1.64-.41-.52-1.01-.85-1.66-.93-.09,0-.16-.06-.19-.14-.29-1.1-.79-2.14-1.47-3.06-.37-.39-.86-.66-1.39-.76-.54-.1-1.09-.05-1.61.13-.12.04-.24-.02-.28-.14,0,0,0,0,0,0h0c-.28-.94-.83-1.78-1.6-2.39-.83-.5-1.84-.57-2.73-.19-.09.03-.19,0-.26-.07-.59-.9-1.35-1.68-2.23-2.3-.95-.43-2.05-.43-3,0-1,.42-1.85,1.14-2.43,2.06-.56.94-1.05,1.93-1.45,2.95-.87,2.02-1.54,4.12-2,6.27-.25,1.07-.47,2.16-.63,3.25-.09.54-.15,1.08-.16,1.63-.05.52,0,1.05.17,1.55h0c.32.64.72,1.23,1.18,1.78.45.57.92,1.14,1.39,1.69.94,1.12,1.91,2.21,2.89,3.3,1.96,2.17,3.96,4.31,6,6.44.02.03.02.07,0,.1-.32,2.12-.8,4.21-1.28,6.29s-1,4.16-1.53,6.23l-3.21,12.43,3.06-12.46,1.46-6.25c.47-2.08.94-4.17,1.25-6.28v.11c-2-2.12-4-4.25-6-6.42-1-1.08-2-2.18-2.91-3.29-.48-.56-.95-1.12-1.4-1.7-.48-.57-.9-1.19-1.24-1.86h0c-.21-.54-.29-1.13-.23-1.71.02-.56.08-1.12.16-1.67.16-1.1.37-2.19.62-3.28.48-2.17,1.16-4.3,2.05-6.34.41-1.04.9-2.04,1.47-3,.6-.98,1.48-1.76,2.53-2.24,1.08-.49,2.31-.49,3.39,0,.5.29.95.66,1.32,1.11.38.41.73.85,1.06,1.3l-.25-.07c.51-.2,1.05-.29,1.59-.27.56.01,1.1.18,1.56.49.44.32.81.72,1.09,1.19.29.45.51.93.68,1.43l-.28-.14c.59-.2,1.22-.25,1.84-.14.62.12,1.19.44,1.62.9.72.96,1.24,2.06,1.54,3.22l-.19-.15c.76.09,1.46.48,1.95,1.07.49.56.89,1.12,1.33,1.67.84,1.12,1.83,2.13,2.93,3,.53.44,1.11.82,1.73,1.14.32.15.64.31,1,.49.34.18.64.45.85.77.21.78-.09,1.62-.76,2.08-.6.42-1.28.7-2,.82v-.34c1.02.62,1.77,1.6,2.1,2.74.2.54.34,1.1.44,1.67.06.57.06,1.16,0,1.73-.31,2.25-.88,4.46-1.69,6.59-.35,1.07-.79,2.12-1.1,3.19-.32,1.08-.55,2.18-.71,3.29-.33,2.23-.48,4.48-.59,6.73-.18,4.51-.19,9-.25,13.55s-.15,9.07-.37,13.58Z"/>
          <path class="st8" d="M253.51,252.66c-3.11,1.17-7.07,3.72-11.23,4.85-4.37,1.11-8.88,1.57-13.38,1.38-2.36-.03-4.72-.2-7.07-.5-2.46-.33-4.54-1.62-6.76-2.7s-4.58-2.35-5.41-4.65c-.44-1.2-.39-2.57-1.06-3.66-.41-.67-1.05-1.16-1.51-1.79-.65-1.09-1.04-2.33-1.12-3.6-.2-1.36-.54-2.7-1-4-.99-2.86-2.17-5.66-3.53-8.37-.06-.09-.09-.2-.07-.31.05-.11.15-.19.26-.23,1.82-.61,3.82-.17,5.21,1.16,1.34,1.32,2.55,2.77,3.59,4.33.46.58.95,1.14,1.47,1.68.37.42.8.78,1.27,1.08.49.28,1.01.5,1.55.65,2.22.74,4.54,1.14,6.88,1.18.71,0,4.54,0,4.79-1.14.08-.38-.27-.69-.7-.94-1-.59-1.5-.8-1.77-1-.89-.55-1.68-1.26-2.32-2.09-.75-1.11-.96-2.49-.57-3.77.03-.12.1-.22.19-.3.14-.06.29-.06.43,0,2.58.78,4.91,2,7.61,2.32,2.66.28,5.28.82,7.83,1.62,1.75.71,3.54,1.32,5.35,1.85,2.15.51,4.41.12,6.27-1.07,4.42-2.44,14.12-10.22,19.3-13.9l19.59-11.53s1.36,4,2.71,8.79c2.59,9.21,2.29,11-1.82,14.92-6.86,6.56-19.95,14.08-34.98,19.74Z"/>
          <path class="st0" d="M201.58,229.11c1.1-.46,2.33-.46,3.43,0,1.09.44,2.07,1.12,2.86,2,.8.87,1.47,1.84,2.17,2.77.34.47.73.9,1.12,1.34s.75.89,1.18,1.28c.85.76,1.88,1.27,3,1.49,1.11.33,2.25.57,3.4.74,1.15.17,2.31.23,3.47.19,1.14,0,2.28-.17,3.36-.52.53-.22.71-.62.24-1s-1-.58-1.5-.87c-.52-.29-1.01-.62-1.47-1-.48-.36-.92-.77-1.29-1.24-.76-.97-1.09-2.21-.93-3.43.04-.31.11-.61.22-.9.08-.2.28-.33.5-.31.16.02.31.05.46.11.56.18,1.11.38,1.66.58,1.1.41,2.19.84,3.3,1.18,1.11.33,2.26.55,3.41.67,2.32.32,4.61.86,6.83,1.61-2.24-.68-4.53-1.14-6.86-1.39-1.17-.11-2.33-.32-3.46-.64-1.13-.34-2.22-.76-3.32-1.15-.55-.2-1.1-.39-1.66-.55-.12-.05-.25-.09-.38-.1-.1,0-.13,0-.19.13-.09.26-.15.53-.18.8-.14,1.13.18,2.27.89,3.16.36.44.78.83,1.24,1.17.45.36.94.68,1.46.94.52.27,1.04.56,1.53.88.14.11.26.24.35.39.1.18.13.39.07.58-.12.34-.4.61-.74.72-1.14.38-2.34.55-3.54.52-1.18.03-2.36-.04-3.52-.22-1.16-.19-2.31-.45-3.44-.79-.57-.16-1.13-.35-1.68-.58-.55-.24-1.05-.58-1.48-1-.43-.41-.79-.87-1.18-1.31s-.77-.89-1.11-1.37c-.7-.94-1.36-1.9-2.13-2.77-.74-.9-1.68-1.62-2.74-2.09-1.07-.44-2.27-.45-3.35-.02Z"/>
          <path class="st9" d="M267.29,221.27c3.48-2.66,10.75-5.32,16-3.94-3-3.21-12.21-1.25-16,.82v3.12Z"/>
        </g>
      </g>
      <path class="st12" d="M237.18,352.48c.6,3.67-1.89,7.14-5.56,7.74-1.53.25-3.1-.03-4.44-.8l-86.1-49.71c-4.5-2.59-6.9-7.72-6-12.84l18.31-43.26h-11l-29.86,85.85c-.36,1.1.24,2.29,1.34,2.65.55.18,1.15.13,1.66-.15.39-.23.7-.58.88-1l8.15-19.27c3.11-3.41,8.19-4.19,12.18-1.87l95.72,55.27c6.02,3.53,10.18,9.53,11.37,16.41l-6.65-39.02Z"/>
      <path class="st5" d="M237.18,352.48c.6,3.67-1.89,7.14-5.56,7.74-1.53.25-3.1-.03-4.44-.8l-86.1-49.71c-4.5-2.59-6.9-7.72-6-12.84l18.31-43.26h-11l-29.86,85.85c-.36,1.1.24,2.29,1.34,2.65.55.18,1.15.13,1.66-.15.39-.23.7-.58.88-1l8.15-19.27c3.11-3.41,8.19-4.19,12.18-1.87l95.72,55.27c6.02,3.53,10.18,9.53,11.37,16.41l-6.65-39.02Z"/>
      <path class="st12" d="M253.28,366.7c-1.94,1.34-4.6.86-5.94-1.08-.49-.71-.76-1.55-.76-2.42h0l-.46-4.75.13,1.41-4.21-43.67c-.64-7.65-4.41-14.7-10.42-19.48l-84.35-67-1.67-9.27c-10.07,7.99-11.76,22.63-3.77,32.71,1.62,2.04,3.57,3.8,5.77,5.19l72,45.49c6.69,4.23,11.26,11.11,12.57,18.91l16.51,97.45c.12.93.97,1.6,1.9,1.48.93-.12,1.6-.97,1.48-1.9l-2.39-24.78c-.61-7.36,2-14.77,8.4-18.46"/>
      <path class="st10" d="M253.28,366.7c-1.94,1.34-4.6.86-5.94-1.08-.49-.71-.76-1.55-.76-2.42h0l-.46-4.75.13,1.41-4.21-43.67c-.64-7.65-4.41-14.7-10.42-19.48l-84.35-67-1.67-9.27c-10.07,7.99-11.76,22.63-3.77,32.71,1.62,2.04,3.57,3.8,5.77,5.19l72,45.49c6.69,4.23,11.26,11.11,12.57,18.91l16.51,97.45c.12.93.97,1.6,1.9,1.48.93-.12,1.6-.97,1.48-1.9l-2.39-24.78c-.61-7.36,2-14.77,8.4-18.46"/>
    </g>
  </g>
</svg>